<?xml version="1.0" encoding="UTF-8"?><svg xmlns="http://www.w3.org/2000/svg" viewBox="0 0 750 750"><defs><style>.cls-1{fill:#f8b133;}.cls-2{fill:#e95b0c;}.cls-3{fill:#fff;}.cls-4{fill:#fcee21;}.cls-5{fill:#fde26d;}.cls-6{fill:#8acef8;}.cls-7{fill:#8f3790;}.cls-8{fill:#c8e4fc;}.cls-9{fill:#88bc59;}.cls-10{fill:#62b2ef;}.cls-11{fill:#2c8923;}.cls-12{mix-blend-mode:soft-light;}.cls-13{isolation:isolate;}</style></defs><g class="cls-13"><g id="Layer_1"><rect class="cls-7" x="-5.46" width="760.91" height="760.91"/><g><path class="cls-9" d="M269.82,228.58c-21.55-23.54-36.28-52.5-41.95-83.9l-.14-.76-31.67,5.72-31.67,5.72,.14,.76c5.68,31.46,1.93,63.77-10.03,93.42-9.29,23.03-17.36,52.82-12.46,79.92l57.47,318.37c2.76,15.29,16.95,26.49,32.31,24.19,9.34-1.4,16.88-7.16,20.94-14.86,2.35-4.46,8.18-5.33,11.96-2,6.28,5.53,14.93,8.24,23.81,6.64s16.03-7.17,19.98-14.55c2.38-4.44,8.14-5.66,11.9-2.31,6.49,5.8,15.57,8.56,24.81,6.6,15.2-3.22,24.57-18.67,21.81-33.96l-57.47-318.37c-4.9-27.16-22.94-52.3-39.73-70.64Z"/><path class="cls-11" d="M233.03,153.14l-70.38,12.7-6.27-34.76c-.67-3.74,1.81-7.32,5.55-7.99l56.84-10.26c3.74-.67,7.32,1.81,7.99,5.55l6.27,34.76Z"/><rect class="cls-11" x="161.58" y="361.1" width="170.22" height="138.03" transform="translate(-72.48 50.66) rotate(-10.23)"/><path class="cls-3" d="M299.64,413.67l-108.31,19.55c-6.38,1.15-12.55-3.13-13.7-9.51h0c-1.15-6.38,3.13-12.55,9.51-13.7l108.31-19.55c6.38-1.15,12.55,3.13,13.7,9.51h0c1.15,6.38-3.13,12.55-9.51,13.7Z"/><path class="cls-4" d="M285.44,425.81l-76.56,13.82c-4.51,.81-7.73,4.09-7.16,7.28,.58,3.19,4.74,5.14,9.25,4.32l76.56-13.82c4.51-.81,7.73-4.09,7.15-7.28s-4.74-5.14-9.25-4.32Z"/><path class="cls-4" d="M289.2,446.68l-76.56,13.82c-4.51,.81-7.73,4.09-7.16,7.28s4.74,5.14,9.25,4.32l76.56-13.82c4.51-.81,7.73-4.09,7.15-7.28-.58-3.19-4.74-5.14-9.25-4.32Z"/><g class="cls-12"><path class="cls-3" d="M214.58,654.57c-2.07,.37-4.05-1-4.43-3.07l-48.52-268.83c-12.93-71.62-7.25-85.23,4.07-112.36,1.08-2.59,2.21-5.3,3.39-8.21,12.79-31.66,4.94-83.59,4.86-84.11-.32-2.08,1.13-4.01,3.18-4.35,2.08-.32,4.03,1.1,4.35,3.18,.34,2.21,8.26,54.52-5.32,88.14-1.19,2.94-2.33,5.68-3.42,8.29-11.08,26.55-16.13,38.67-3.6,108.07l48.52,268.83c.37,2.07-1,4.05-3.07,4.43Z"/></g></g><g><path class="cls-1" d="M597.21,246.57c-12.29-29.39-16.35-61.56-11.07-92.97l.13-.76-31.68-5.33-31.68-5.33-.13,.76c-5.29,31.46-19.72,60.55-40.97,84.36-16.5,18.49-34.14,43.75-38.7,70.86l-53.54,318.43c-2.57,15.29,6.97,30.6,22.18,33.63,9.25,1.84,18.27-1.02,24.68-6.89,3.71-3.39,9.48-2.24,11.91,2.16,4.03,7.31,11.24,12.78,20.12,14.28s17.48-1.32,23.68-6.91c3.73-3.37,9.56-2.57,11.96,1.85,4.14,7.64,11.73,13.3,21.07,14.58,15.36,2.11,29.38-9.24,31.96-24.53l53.54-318.43c4.57-27.16-3.89-56.87-13.46-79.76Z"/><path class="cls-2" d="M588.14,163.29l-70.4-11.84,5.85-34.76c.63-3.74,4.17-6.26,7.91-5.63l56.86,9.56c3.74,.63,6.26,4.17,5.63,7.91l-5.85,34.76Z"/><rect class="cls-2" x="438.54" y="343.1" width="137.77" height="169.9" transform="translate(1.17 857.47) rotate(-80.46)"/><circle class="cls-5" cx="510.67" cy="430.72" r="48.71"/><path class="cls-3" d="M566.85,436.63l-109.22,11.7c-6.44,.69-12.27-4.01-12.96-10.45h0c-.69-6.44,4.01-12.27,10.45-12.96l109.22-11.7c6.44-.69,12.27,4.01,12.96,10.45h0c.69,6.44-4.01,12.27-10.45,12.96Z"/><g class="cls-12"><path class="cls-3" d="M401.47,628.02c-2.07-.35-3.47-2.31-3.12-4.38l45.21-268.88c12.04-71.63,21.98-82.5,41.77-104.16,1.89-2.07,3.87-4.23,5.96-6.57,22.7-25.41,32.87-76.85,32.97-77.36,.4-2.06,2.4-3.34,4.45-3.01,2.06,.4,3.41,2.39,3.01,4.46-.42,2.19-10.66,54-34.76,80.98-2.11,2.36-4.11,4.55-6.01,6.63-19.37,21.2-28.21,30.87-39.88,100.29l-45.21,268.88c-.35,2.07-2.31,3.47-4.38,3.12Z"/></g></g><g><path class="cls-8" d="M425.29,218.39c-14.54-28.41-22.52-61.16-22.52-94.75v-.81h-54.96v.81c0,33.65-8.05,66.42-22.59,94.89-11.3,22.11-22.59,51.47-22.59,80.46v340.52c0,16.35,10.22,30.61,23.48,31.1,8.06,.3,15.27-4.26,19.84-11.48,2.65-4.18,7.68-3.99,10.35,.16,4.44,6.9,11.3,11.33,19,11.33s14.56-4.43,19-11.33c2.67-4.16,7.7-4.34,10.35-.16,4.57,7.22,11.78,11.78,19.84,11.48,13.26-.49,23.48-14.75,23.48-31.1V298.98c0-29.04-11.35-58.47-22.67-80.6Z"/><path class="cls-10" d="M405.82,133.37h-61.06v-37.17c0-4,3.24-7.24,7.24-7.24h46.58c4,0,7.24,3.24,7.24,7.24v37.17Z"/><rect class="cls-10" x="302.62" y="350.17" width="145.33" height="145.29"/><g class="cls-12"><path class="cls-3" d="M316.95,655.86c-2.22,0-4.01-1.8-4.01-4.01V357.33c0-78.26,7.13-91.57,21.34-118.1,1.36-2.54,2.79-5.2,4.28-8.07,16.35-31.29,17.67-88.06,17.69-88.63,.04-2.21,1.89-4.01,4.09-3.93,2.21,.04,3.97,1.88,3.93,4.09-.05,2.4-1.39,59.24-18.59,92.18-1.51,2.89-2.95,5.58-4.32,8.14-14,26.14-20.38,38.07-20.38,114.31v294.52c0,2.21-1.79,4.01-4.01,4.01Z"/></g><circle class="cls-6" cx="375.29" cy="422.82" r="50.76" transform="translate(-133.99 177.36) rotate(-22.68)"/><path class="cls-3" d="M407.06,418h-63.53c-4.18,0-7.6,3.42-7.6,7.6s3.42,7.6,7.6,7.6h63.53c4.18,0,7.6-3.42,7.6-7.6s-3.42-7.6-7.6-7.6Z"/></g></g></g></svg>