<?xml version="1.0" encoding="UTF-8"?><svg id="Layer_1" xmlns="http://www.w3.org/2000/svg" viewBox="0 0 750 750"><defs><style>.cls-1{fill:#f4c540;}.cls-2{fill:#e89721;}.cls-3,.cls-4{fill:#fff;}.cls-5{fill:#a9c1c4;}.cls-6{fill:#c5d5d8;}.cls-7{fill:#e43d32;}.cls-8{fill:#161616;}.cls-9{fill:#88d5ff;}.cls-10{fill:#6ecbff;}.cls-11{fill:#383838;}.cls-4{opacity:.5;}.cls-12{fill:#1b44aa;opacity:.8;}</style></defs><rect class="cls-7" x="-5.46" width="760.91" height="760.91"/><g><path class="cls-5" d="M668.55,430.08c-6.99-78.99-51.74-122.62-133.02-129.69-95.36-8.29-154.24,15.36-235.82,64.93-45.14,27.42-81.81,36.05-106.04,24.96-17.18-7.87-28.21-25.74-32.8-53.12-3.84-22.95-.88-43.46,9.39-62.24l-9.25-6.01c-10.78,19.41-15.85,42.49-11.22,70.11,5.24,31.28,18.43,51.97,39.2,61.48,27.77,12.72,68.08,3.88,116.55-25.57,79.5-48.3,136.75-71.35,229.01-63.34,76.1,6.61,116.27,45.7,122.79,119.48,2.54,28.64-5.86,56-23.63,77.02-19.23,22.75-47.4,36.2-81.46,38.9-39.13,3.1-76.97-13.03-117.02-30.1-33.19-14.15-67.51-28.78-102.94-31.61-32.64-2.6-63.98,9.48-90.61,34.94-19.9,19.03-30.1,38.61-30.52,39.43l9.99,5.15c.38-.74,39.15-74,110.24-68.32,33.61,2.68,67.07,16.95,99.43,30.74,39.54,16.85,80.42,34.27,122.31,30.97,37.11-2.94,67.94-17.75,89.16-42.85,19.72-23.33,29.04-53.62,26.24-85.27Z"/><g><g><path class="cls-6" d="M258.37,565.17c1.42-2.84,1.68-6.03,1.27-9.2-3.55-8.6-9.69-11.18-14.51-11.81-6.22-.8-27.29-.8-45.56,0-18.26,.8-18.26,3.81-24.68,8.43-6.42,4.62-33.72,26.89-50.57,42.75-16.86,15.85-19.25,27.03-19.25,27.03,0,0,29.86,13.51,57.83,23.15,17.02-10.62,51.41-32.39,60.96-40.75,12.84-11.24,28.9-28.36,34.52-39.6Z"/><path class="cls-5" d="M261.98,565.03c-.5-3.61-1.32-6.57-2.35-9.07,.41,3.17-.82,6.78-2.87,9.2-8.23,9.7-22.88,25.35-35.72,36.59-9.55,8.36-41.13,33.14-58.15,43.76,21.47,7.4,41.82,12.53,46.7,7.52,11.23-11.53,50.99-61.12,52.39-64.53s2.21-7.43,0-23.48Z"/></g><rect class="cls-3" x="104.44" y="610.59" width="107.73" height="50.57" rx="9.74" ry="9.74" transform="translate(-25.99 7.04) rotate(-2.35)"/><g><path class="cls-2" d="M129.85,626.72l8.15-.41-.49,20.37-29.71,19.69s-12.89,3.5-14.41-5.4c-1.52-8.9,5.16-14.73,10.71-18.76,5.56-4.03,25.75-15.49,25.75-15.49Z"/><path class="cls-1" d="M138,626.31l-.49,20.37s-24.32,16.51-28.6,19.14-10.28,.65-11.25-5.2c-.96-5.85,4.39-11.21,9.56-15.08,5.16-3.88,30.78-19.23,30.78-19.23Z"/></g><g><path class="cls-2" d="M172.07,623.8l8.15-.41-.49,20.37-29.71,19.69s-12.89,3.5-14.41-5.4c-1.52-8.9,5.16-14.73,10.71-18.76,5.56-4.03,25.75-15.49,25.75-15.49Z"/><path class="cls-1" d="M180.22,623.39l-.49,20.37s-24.32,16.51-28.6,19.14-10.28,.65-11.25-5.2,4.39-11.21,9.56-15.08,30.78-19.23,30.78-19.23Z"/></g><rect class="cls-4" x="198.13" y="575.44" width="64.35" height="8.03" rx="2.5" ry="2.5" transform="translate(-342.28 332.57) rotate(-45)"/></g></g><g><g><path class="cls-3" d="M335.25,471.93l47.91-101.09-163.02-111.66s-10.39,12.77-7.45,27.94c2.94,15.17,32.65,63.28,55.12,101.55,17.89,30.45,42.38,78.18,64.04,102.22,1.41-.11,2.59-.5,3.39-1.29,4.55-4.55,0-17.66,0-17.66Z"/><path class="cls-6" d="M464.32,426.43l-81.16-55.59-47.91,101.09s4.55,13.11,0,17.66c-.8,.8-1.98,1.18-3.39,1.29,5.56,6.17,10.94,10.81,15.97,13.16,24.62,11.51,34.79-.28,55.93-13.12,21.14-12.84,46.47-26.48,52.13-32.37,5.66-5.89,8.8-16.34,8.44-32.12Z"/></g><g><g><rect class="cls-11" x="267.91" y="204.66" width="145.38" height="289.66" rx="21.1" ry="21.1" transform="translate(-130.52 222.21) rotate(-30.62)"/><g><path class="cls-9" d="M301.37,211.96l-62.62,37.06c-13.65,8.08-18.21,25.86-10.13,39.52l14.29,24.14,59.73-101.38c-.42,.22-.85,.42-1.26,.66Z"/><path class="cls-9" d="M340.89,222.09c-.41-.69-.86-1.34-1.31-1.98l-58.47,157.11,44.06,74.44,35.26-196.56-19.53-33Z"/><path class="cls-10" d="M302.64,211.3l-59.73,101.38,38.2,64.54,58.47-157.11c-8.3-11.7-24.17-15.54-36.94-8.81Z"/><path class="cls-10" d="M451.89,409.63l-44.54-75.25-6.53,138.99,40.94-24.23c13.65-8.08,18.21-25.86,10.13-39.52Z"/><path class="cls-9" d="M379.37,287.11l-19.23,202.76c6.35,.97,13.06-.15,18.99-3.66l21.68-12.83,6.53-138.99-27.98-47.27Z"/><path class="cls-10" d="M360.42,255.1l-35.26,196.56,14.45,24.42c4.57,7.72,12.25,12.53,20.53,13.79l19.23-202.76-18.95-32.01Z"/></g></g><g><ellipse class="cls-11" cx="245.91" cy="266.05" rx="8.77" ry="9.93" transform="translate(-98.9 154.86) rotate(-29.38)"/><ellipse class="cls-10" cx="245.82" cy="265.9" rx="4.18" ry="4.74" transform="translate(-98.83 154.8) rotate(-29.38)"/></g><g><ellipse class="cls-12" cx="359.48" cy="469.04" rx="11.22" ry="12.71" transform="translate(-183.88 236.68) rotate(-29.38)"/><ellipse class="cls-12" cx="385.38" cy="453.18" rx="11.22" ry="12.71" transform="translate(-172.76 247.35) rotate(-29.38)"/><ellipse class="cls-12" cx="410.54" cy="437.68" rx="11.22" ry="12.71" transform="translate(-161.92 257.7) rotate(-29.38)"/><ellipse class="cls-12" cx="435.78" cy="421.74" rx="11.22" ry="12.71" transform="translate(-150.86 268.03) rotate(-29.38)"/><rect class="cls-4" x="325.14" y="411.33" width="114.88" height="17.61" rx="5.48" ry="5.48" transform="translate(-160.65 253.45) rotate(-30.62)"/></g></g><rect class="cls-8" x="402.58" y="477.59" width="23.02" height="4.13" rx="1.29" ry="1.29" transform="translate(-184.35 271.31) rotate(-30)"/></g><g><path class="cls-5" d="M262.19,202.32c60.23-28.16,66.23-49.39,71.51-68.11l.71-2.49c5.68-19.67,3.06-32.51,2.95-33.05l-11,2.31c.02,.11,2.09,10.88-2.74,27.63l-.72,2.55c-4.86,17.21-9.88,35-65.46,60.99-34.53,16.15-75.85,39.77-96.41,76.77l9.25,6.01c14.84-27.13,44.95-50.64,91.92-72.6Z"/><g><path class="cls-1" d="M333.43,79.64s.54-11.1-1.74-12.71-11.51-1.47-13.38,1.2,.94,12.18,.94,12.18l14.18-.67Z"/><path class="cls-3" d="M332.42,109.33c-5.94,.72-12.91-2.13-15.45-11.5-2.54-9.37-4.42-16.32-1.61-18.33,2.81-2.01,12.03-3.88,17.05-3.88s7.16,6.15,8.1,14.32c.94,8.16,.79,18.31-8.1,19.39Z"/></g></g></svg>