<?xml version="1.0" encoding="UTF-8"?><svg xmlns="http://www.w3.org/2000/svg" viewBox="0 0 750 750"><defs><style>.cls-1{fill:#f9d19b;}.cls-2{fill:#fcaa3d;}.cls-3,.cls-4{fill:#feb546;}.cls-5{fill:#4c2816;}.cls-6{fill:#4cadbd;}.cls-4{mix-blend-mode:multiply;opacity:.5;}.cls-7{opacity:.2;}.cls-7,.cls-8{fill:#fff;}.cls-9{isolation:isolate;}.cls-8{opacity:.8;}</style></defs><g class="cls-9"><g id="Layer_1"><rect class="cls-6" x="-5.46" y="-5.85" width="760.91" height="760.91"/><g><path class="cls-3" d="M247.42,337.91v48.67c-57.1,2.67-102.73,49.96-102.73,107.71s47.4,106.84,106.02,107.81c10.27,36.04,43.45,62.43,82.78,62.43h115.52c47.54,0,86.07-38.54,86.07-86.07v-240.55H247.42Zm-65.87,156.38c0-37.42,29.11-68.16,65.87-70.78v141.57c-36.76-2.62-65.87-33.37-65.87-70.78Z"/><path class="cls-4" d="M307.8,337.91h-60.39v240.55c0,47.54,38.54,86.07,86.07,86.07h115.52c28.26,0,53.34-13.62,69.04-34.66-242.12,7.07-210.24-291.96-210.24-291.96Z"/><ellipse class="cls-1" cx="390.88" cy="340.64" rx="144.2" ry="26.95"/><ellipse class="cls-2" cx="390.88" cy="340.64" rx="132.54" ry="20.76"/><path class="cls-5" d="M262.99,346.1c15.31,8.81,66.77,15.29,127.9,15.29s112.58-6.48,127.9-15.29c-15.31-8.81-66.77-15.29-127.9-15.29s-112.58,6.48-127.9,15.29Z"/><path class="cls-4" d="M170.63,494.3c0,37.42,29.11,68.16,65.87,70.78v-1.65c-31.44-7.28-54.95-35.51-54.95-69.14s23.51-61.85,54.95-69.14v-1.65c-36.76,2.62-65.87,33.37-65.87,70.78Z"/><path class="cls-7" d="M503.31,384.06h0c6.48,0,11.74,5.26,11.74,11.74v151.8c0,6.48-5.26,11.74-11.74,11.74h0c-6.48,0-11.74-5.26-11.74-11.74v-151.79c0-6.48,5.26-11.74,11.74-11.74Z"/></g><path class="cls-8" d="M377.34,68.17s-27.04,36.17-25.42,79.5c1.63,43.34,33.89,70.05,33.56,125.77,0,0,38.12-55.39,3.26-108.5-25.47-38.79-11.4-96.77-11.4-96.77Z"/><path class="cls-8" d="M315.97,170.8s-18.98,25.38-17.83,55.79c1.14,30.41,23.78,49.16,23.55,88.25,0,0,26.75-38.87,2.29-76.13-17.87-27.22-8-67.9-8-67.9Z"/><path class="cls-8" d="M453.47,166.29s-18.98,25.38-17.83,55.79c1.14,30.41,23.78,49.16,23.55,88.25,0,0,26.75-38.87,2.29-76.13-17.87-27.22-8-67.9-8-67.9Z"/></g></g></svg>