<?xml version="1.0" encoding="utf-8"?>
<!-- Generator: Adobe Illustrator 26.3.1, SVG Export Plug-In . SVG Version: 6.00 Build 0)  -->
<svg version="1.1" id="Layer_1" xmlns="http://www.w3.org/2000/svg" xmlns:xlink="http://www.w3.org/1999/xlink" x="0px" y="0px"
	 viewBox="0 0 801 208.9" style="enable-background:new 0 0 801 208.9;" xml:space="preserve">
<style type="text/css">
	.st0{fill:#E4116D;}
	.st1{font-family:'AvenirNext-Regular';}
	.st2{font-size:83.341px;}
	.st3{letter-spacing:4;}
	.st4{font-size:182.9166px;}
	.st5{letter-spacing:10;}
</style>
<text transform="matrix(1 0 0 1 -1.353 61.7098)"><tspan x="0" y="0" class="st0 st1 st2 st3">L</tspan><tspan x="47.2" y="0" class="st0 st1 st2">A</tspan></text>
<g>
	<path class="st0" d="M105.7,131.6l-28.8,4.4c0-10.1-5-22-18.8-22c-12.9,0-22.8,11.4-22.8,29.7c0,21.1,12.9,29.7,26.5,29.7
		c14.1,0,22.8-10.1,26.2-14.8l18.4,19.4c-6.4,8.9-20.6,22.3-45.4,22.3c-34.5,0-57.3-22-57.3-56.7c0-34.9,22.6-56.7,54-56.7
		C92.8,87,105.7,110.8,105.7,131.6"/>
	<path class="st0" d="M234.5,143.5c0,34.9-22.6,56.7-55.5,56.7c-32.9,0-55.5-21.8-55.5-56.7c0-34.7,22.6-56.5,55.5-56.5
		C211.9,87,234.5,108.8,234.5,143.5 M202.8,143.5c0-19.1-10.2-29.5-23.8-29.5c-13.6,0-23.8,10.4-23.8,29.5
		c0,19.3,10.2,29.7,23.8,29.7C192.6,173.2,202.8,162.8,202.8,143.5"/>
	<path class="st0" d="M361.5,198.9h-28l-28.3-39.2c-4.5-6.4-9.6-13.9-13.7-20.6l-1.2,0.5c0.8,3.5,0.8,11.1,0.8,20.1v39.2h-30V88.3
		h24.8l31.7,43.4c4.7,6.5,11.6,17.8,13.7,21.8l1-0.5c-0.8-3.5-0.8-12.2-0.8-21.3V88.3h30V198.9z"/>
	<polygon class="st0" points="421,113.7 421,133.9 459.9,133.9 459.9,158.3 421,158.3 421,198.9 389.7,198.9 389.7,88.3 465.6,88.3 
		465.6,113.7 	"/>
	<polygon class="st0" points="519.6,113.7 519.6,131.8 558.5,131.8 558.5,155.5 519.6,155.5 519.6,173.4 565.9,173.4 565.9,198.9 
		488.3,198.9 488.3,88.3 565.9,88.3 565.9,113.7 	"/>
</g>
<text transform="matrix(1 0 0 1 588.561 200.3622)"><tspan x="0" y="0" class="st0 st1 st4 st5">2</tspan><tspan x="116.3" y="0" class="st0 st1 st4">8</tspan></text>
</svg>
