<?xml version="1.0" encoding="utf-8"?>
<!-- Generator: Adobe Illustrator 21.1.0, SVG Export Plug-In . SVG Version: 6.00 Build 0)  -->
<svg version="1.1" id="Layer_1" xmlns="http://www.w3.org/2000/svg" xmlns:xlink="http://www.w3.org/1999/xlink" x="0px" y="0px"
	 viewBox="0 0 500 500" style="enable-background:new 0 0 500 500;" xml:space="preserve">
<style type="text/css">
	.st0{fill:#E4116D;}
	.st1{fill:#54565C;}
	.st2{fill:#EC7534;}
	.st3{fill:none;stroke:#54565C;stroke-width:0.5;stroke-miterlimit:10;}
	.st4{fill:#F15A29;}
	.st5{fill:#00AEBC;}
</style>
<g>
	<g>
		<g>
			<path class="st0" d="M113.7,189.4H124v2.1h-12.6v-22.4h2.3V189.4z"/>
		</g>
		<g>
			<path class="st0" d="M128.5,191.5h-2.6l9.6-22.4h2.2l9.6,22.4h-2.6l-2.4-5.9h-11.3L128.5,191.5z M131.7,183.5h9.6l-4.8-11.8
				L131.7,183.5z"/>
		</g>
		<g>
			<path class="st0" d="M150.1,218l-10.8,1.7c0-3.8-1.9-8.3-7.1-8.3c-4.9,0-8.6,4.3-8.6,11.3c0,8,4.9,11.3,10,11.3
				c5.3,0,8.6-3.8,9.8-5.6l6.9,7.4c-2.4,3.4-7.7,8.5-17.1,8.5c-13,0-21.5-8.3-21.5-21.5c0-13.2,8.5-21.5,20.3-21.5
				C145.2,201.1,150.1,210.1,150.1,218"/>
			<path class="st0" d="M198.4,222.5c0,13.2-8.5,21.5-20.9,21.5c-12.3,0-20.9-8.3-20.9-21.5c0-13.2,8.5-21.4,20.9-21.4
				C189.9,201.1,198.4,209.3,198.4,222.5 M186.5,222.5c0-7.2-3.8-11.2-8.9-11.2c-5.1,0-8.9,3.9-8.9,11.2c0,7.3,3.8,11.3,8.9,11.3
				C182.7,233.8,186.5,229.8,186.5,222.5"/>
			<path class="st0" d="M149,296.7h-10.5l-10.6-14.9c-1.7-2.4-3.6-5.3-5.2-7.8l-0.4,0.2c0.3,1.3,0.3,4.2,0.3,7.6v14.9h-11.3v-42h9.3
				l11.9,16.5c1.8,2.5,4.3,6.7,5.2,8.3l0.4-0.2c-0.3-1.3-0.3-4.6-0.3-8.1v-16.5H149V296.7z"/>
			<polygon class="st0" points="171.4,264.4 171.4,272 186,272 186,281.3 171.4,281.3 171.4,296.7 159.6,296.7 159.6,254.7 
				188.1,254.7 188.1,264.4 			"/>
			<polygon class="st0" points="208.4,264.4 208.4,271.3 223.1,271.3 223.1,280.2 208.4,280.2 208.4,287 225.8,287 225.8,296.7 
				196.7,296.7 196.7,254.7 225.8,254.7 225.8,264.4 			"/>
		</g>
		<g>
			<path class="st1" d="M117.2,312.5h-2.5v5.2c0,0.3,0,0.6,0.1,0.8c0.1,0.2,0.1,0.4,0.3,0.5s0.2,0.2,0.4,0.2c0.2,0,0.3,0.1,0.5,0.1
				c0.2,0,0.4,0,0.7-0.1c0.2-0.1,0.4-0.1,0.6-0.2l0.1,1.2c-0.5,0.2-1,0.3-1.7,0.3c-0.2,0-0.5,0-0.7-0.1c-0.3-0.1-0.5-0.2-0.7-0.4
				c-0.2-0.2-0.4-0.4-0.5-0.7c-0.1-0.3-0.2-0.7-0.2-1.2v-5.6h-1.9v-1.1h1.9v-2.5h1.2v2.5h2.5V312.5z"/>
			<path class="st1" d="M128.7,315.8c0,0.7-0.1,1.3-0.3,1.8c-0.2,0.6-0.6,1.1-1,1.5s-0.9,0.7-1.5,1c-0.6,0.2-1.2,0.3-1.9,0.3
				c-0.7,0-1.3-0.1-1.9-0.3c-0.6-0.2-1.1-0.6-1.5-1c-0.4-0.4-0.7-0.9-1-1.5c-0.2-0.6-0.3-1.2-0.3-1.8c0-0.7,0.1-1.3,0.3-1.8
				c0.2-0.6,0.6-1.1,1-1.5c0.4-0.4,0.9-0.7,1.5-1c0.6-0.2,1.2-0.3,1.9-0.3c0.7,0,1.3,0.1,1.9,0.3c0.6,0.2,1.1,0.6,1.5,1
				c0.4,0.4,0.7,0.9,1,1.5C128.6,314.6,128.7,315.2,128.7,315.8z M127.4,315.8c0-0.5-0.1-0.9-0.2-1.4c-0.2-0.4-0.4-0.8-0.7-1.1
				c-0.3-0.3-0.6-0.6-1-0.7c-0.4-0.2-0.9-0.3-1.4-0.3s-1,0.1-1.4,0.3s-0.7,0.4-1,0.7c-0.3,0.3-0.5,0.7-0.7,1.1
				c-0.2,0.4-0.2,0.9-0.2,1.4c0,0.5,0.1,1,0.2,1.4c0.2,0.4,0.4,0.8,0.7,1.1c0.3,0.3,0.6,0.6,1,0.7s0.9,0.3,1.4,0.3s1-0.1,1.4-0.3
				c0.4-0.2,0.8-0.4,1-0.7c0.3-0.3,0.5-0.7,0.7-1.1C127.3,316.8,127.4,316.3,127.4,315.8z"/>
			<path class="st1" d="M132.7,322c0.4,0.5,0.8,0.9,1.4,1.2c0.6,0.3,1.2,0.4,1.9,0.4c0.6,0,1.2-0.1,1.6-0.3c0.4-0.2,0.8-0.4,1.1-0.7
				c0.3-0.3,0.5-0.7,0.6-1.1c0.1-0.4,0.2-0.9,0.2-1.3v-1.6h0c-0.4,0.6-0.9,1-1.5,1.3c-0.6,0.3-1.2,0.4-1.8,0.4
				c-0.6,0-1.2-0.1-1.8-0.3c-0.6-0.2-1-0.5-1.4-0.9c-0.4-0.4-0.7-0.9-1-1.4c-0.2-0.6-0.4-1.2-0.4-1.8s0.1-1.2,0.3-1.8
				c0.2-0.6,0.5-1,0.9-1.5c0.4-0.4,0.9-0.7,1.4-1c0.5-0.2,1.1-0.3,1.8-0.3c0.3,0,0.5,0,0.8,0.1c0.3,0.1,0.6,0.1,0.9,0.3
				s0.6,0.3,0.9,0.5c0.3,0.2,0.6,0.5,0.8,0.8h0v-1.5h1.2v8.8c0,0.5-0.1,1-0.2,1.5c-0.1,0.5-0.3,1-0.7,1.5s-0.8,0.8-1.4,1.1
				c-0.6,0.3-1.4,0.5-2.4,0.5c-0.9,0-1.7-0.1-2.3-0.4c-0.7-0.3-1.3-0.7-1.9-1.3L132.7,322z M132.9,315.7c0,0.5,0.1,0.9,0.3,1.3
				c0.2,0.4,0.4,0.8,0.7,1.1c0.3,0.3,0.6,0.6,1,0.7c0.4,0.2,0.8,0.3,1.3,0.3c0.4,0,0.9-0.1,1.3-0.2c0.4-0.2,0.8-0.4,1.1-0.7
				s0.6-0.7,0.7-1.1c0.2-0.4,0.2-0.9,0.2-1.4c0-0.5-0.1-0.9-0.2-1.3c-0.1-0.4-0.4-0.8-0.7-1.1c-0.3-0.3-0.6-0.6-1-0.7
				c-0.4-0.2-0.9-0.3-1.4-0.3c-0.5,0-0.9,0.1-1.3,0.3c-0.4,0.2-0.7,0.4-1,0.7c-0.3,0.3-0.5,0.7-0.7,1.1
				C133,314.8,132.9,315.3,132.9,315.7z"/>
			<path class="st1" d="M145.3,316.2c0,0.4,0.1,0.9,0.3,1.2c0.2,0.4,0.4,0.7,0.7,1c0.3,0.3,0.6,0.5,1,0.7c0.4,0.2,0.8,0.2,1.2,0.2
				c0.7,0,1.2-0.2,1.7-0.5s0.8-0.7,1.1-1.1l1,0.8c-0.5,0.7-1.1,1.1-1.7,1.4c-0.6,0.3-1.3,0.4-2,0.4c-0.6,0-1.2-0.1-1.8-0.3
				c-0.6-0.2-1-0.6-1.4-1c-0.4-0.4-0.7-0.9-0.9-1.5c-0.2-0.6-0.3-1.2-0.3-1.8c0-0.7,0.1-1.3,0.3-1.8c0.2-0.6,0.5-1.1,0.9-1.5
				c0.4-0.4,0.9-0.7,1.4-1c0.5-0.2,1.1-0.3,1.7-0.3c0.7,0,1.3,0.1,1.8,0.4c0.5,0.2,1,0.6,1.3,1c0.4,0.4,0.6,0.9,0.8,1.4
				c0.2,0.5,0.3,1.1,0.3,1.7v0.6H145.3z M151.3,315.2c0-0.8-0.2-1.5-0.7-2c-0.5-0.5-1.2-0.8-2.1-0.8c-0.4,0-0.8,0.1-1.2,0.2
				s-0.7,0.4-1,0.6c-0.3,0.3-0.5,0.6-0.7,0.9s-0.3,0.7-0.3,1.1H151.3z"/>
			<path class="st1" d="M160.5,312.5h-2.5v5.2c0,0.3,0,0.6,0.1,0.8c0.1,0.2,0.1,0.4,0.3,0.5s0.2,0.2,0.4,0.2c0.2,0,0.3,0.1,0.5,0.1
				c0.2,0,0.4,0,0.7-0.1c0.2-0.1,0.4-0.1,0.6-0.2l0.1,1.2c-0.5,0.2-1,0.3-1.7,0.3c-0.2,0-0.5,0-0.7-0.1c-0.3-0.1-0.5-0.2-0.7-0.4
				c-0.2-0.2-0.4-0.4-0.5-0.7c-0.1-0.3-0.2-0.7-0.2-1.2v-5.6h-1.9v-1.1h1.9v-2.5h1.2v2.5h2.5V312.5z"/>
			<path class="st1" d="M163.2,306h1.2v6.9h0c0.1-0.2,0.3-0.5,0.5-0.7c0.2-0.2,0.4-0.4,0.7-0.5c0.3-0.1,0.5-0.3,0.8-0.3
				c0.3-0.1,0.6-0.1,0.9-0.1c1.1,0,2,0.3,2.5,0.9s0.8,1.5,0.8,2.6v5.6h-1.2v-4.9c0-1-0.2-1.7-0.5-2.3c-0.3-0.5-1-0.8-1.9-0.8
				c-0.1,0-0.2,0-0.5,0.1c-0.3,0-0.6,0.2-0.9,0.4c-0.3,0.2-0.6,0.6-0.9,1c-0.2,0.5-0.4,1.1-0.4,1.9v4.5h-1.2V306z"/>
			<path class="st1" d="M175.5,316.2c0,0.4,0.1,0.9,0.3,1.2c0.2,0.4,0.4,0.7,0.7,1c0.3,0.3,0.6,0.5,1,0.7c0.4,0.2,0.8,0.2,1.2,0.2
				c0.7,0,1.2-0.2,1.7-0.5s0.8-0.7,1.1-1.1l1,0.8c-0.5,0.7-1.1,1.1-1.7,1.4c-0.6,0.3-1.3,0.4-2,0.4c-0.6,0-1.2-0.1-1.8-0.3
				c-0.6-0.2-1-0.6-1.4-1c-0.4-0.4-0.7-0.9-0.9-1.5c-0.2-0.6-0.3-1.2-0.3-1.8c0-0.7,0.1-1.3,0.3-1.8c0.2-0.6,0.5-1.1,0.9-1.5
				c0.4-0.4,0.9-0.7,1.4-1c0.5-0.2,1.1-0.3,1.7-0.3c0.7,0,1.3,0.1,1.8,0.4c0.5,0.2,1,0.6,1.3,1c0.4,0.4,0.6,0.9,0.8,1.4
				c0.2,0.5,0.3,1.1,0.3,1.7v0.6H175.5z M181.4,315.2c0-0.8-0.2-1.5-0.7-2c-0.5-0.5-1.2-0.8-2.1-0.8c-0.4,0-0.8,0.1-1.2,0.2
				s-0.7,0.4-1,0.6c-0.3,0.3-0.5,0.6-0.7,0.9s-0.3,0.7-0.3,1.1H181.4z"/>
			<path class="st1" d="M186.2,314.2c0-0.4,0-0.8,0-1.2s0-0.9,0-1.6h1.2v1.6h0c0.1-0.2,0.2-0.5,0.4-0.7c0.2-0.2,0.4-0.4,0.6-0.6
				c0.2-0.2,0.5-0.3,0.8-0.4c0.3-0.1,0.7-0.2,1-0.2c0.3,0,0.7,0,0.9,0.1l-0.2,1.2c-0.2-0.1-0.4-0.1-0.7-0.1c-0.5,0-0.9,0.1-1.2,0.3
				c-0.3,0.2-0.6,0.4-0.8,0.7c-0.2,0.3-0.4,0.6-0.5,0.9s-0.2,0.6-0.2,0.9v5h-1.2V314.2z"/>
			<path class="st1" d="M199.9,311.4l2,7.2h0l2.3-7.2h1.3l2.3,7.2h0l2-7.2h1.5l-2.8,8.8h-1.4L205,313h0l-2.3,7.2h-1.4l-2.8-8.8
				H199.9z"/>
			<path class="st1" d="M215,316.2c0,0.4,0.1,0.9,0.3,1.2c0.2,0.4,0.4,0.7,0.7,1c0.3,0.3,0.6,0.5,1,0.7c0.4,0.2,0.8,0.2,1.2,0.2
				c0.7,0,1.2-0.2,1.7-0.5s0.8-0.7,1.1-1.1l1,0.8c-0.5,0.7-1.1,1.1-1.7,1.4c-0.6,0.3-1.3,0.4-2,0.4c-0.6,0-1.2-0.1-1.8-0.3
				c-0.6-0.2-1-0.6-1.4-1c-0.4-0.4-0.7-0.9-0.9-1.5c-0.2-0.6-0.3-1.2-0.3-1.8c0-0.7,0.1-1.3,0.3-1.8c0.2-0.6,0.5-1.1,0.9-1.5
				c0.4-0.4,0.9-0.7,1.4-1c0.5-0.2,1.1-0.3,1.7-0.3c0.7,0,1.3,0.1,1.8,0.4c0.5,0.2,1,0.6,1.3,1c0.4,0.4,0.6,0.9,0.8,1.4
				c0.2,0.5,0.3,1.1,0.3,1.7v0.6H215z M220.9,315.2c0-0.8-0.2-1.5-0.7-2c-0.5-0.5-1.2-0.8-2.1-0.8c-0.4,0-0.8,0.1-1.2,0.2
				s-0.7,0.4-1,0.6c-0.3,0.3-0.5,0.6-0.7,0.9s-0.3,0.7-0.3,1.1H220.9z"/>
		</g>
		<g>
			<path class="st0" d="M267.3,296.7h-28.2v-5.2l17.7-18.1c0.7-0.7,1.3-1.4,2-2.1c0.7-0.8,1.3-1.6,1.8-2.4c0.5-0.8,1-1.7,1.3-2.7
				c0.3-0.9,0.5-1.9,0.5-2.9c0-1.2-0.2-2.3-0.7-3.3c-0.4-1-1.1-1.8-1.8-2.5c-0.8-0.7-1.7-1.2-2.8-1.5c-1-0.4-2.1-0.5-3.3-0.5
				c-2.3,0-4.2,0.6-5.8,1.9c-1.6,1.3-2.6,3-3.1,5.1l-4.8-0.5c0.6-3.3,2.1-5.9,4.5-7.8c2.4-1.9,5.3-2.8,8.7-2.8
				c1.8,0,3.5,0.2,5.1,0.7c1.6,0.5,3,1.2,4.3,2.2c1.2,1,2.2,2.2,2.9,3.6c0.7,1.5,1.1,3.1,1.1,5.1c0,1.7-0.3,3.3-0.8,4.7
				c-0.5,1.4-1.2,2.8-2,4c-0.8,1.3-1.8,2.5-2.8,3.6c-1.1,1.1-2.2,2.3-3.3,3.3l-14,14h23.3V296.7z"/>
		</g>
		<g>
			<path class="st0" d="M286.1,272.9c-1-0.3-1.8-0.8-2.7-1.5c-0.8-0.7-1.5-1.4-2.1-2.3c-0.6-0.9-1-1.9-1.4-2.9
				c-0.3-1.1-0.5-2.1-0.5-3.3c0-1.8,0.3-3.4,1-4.8c0.7-1.5,1.6-2.7,2.7-3.7s2.4-1.8,3.9-2.3c1.5-0.5,3.1-0.8,4.8-0.8
				s3.3,0.3,4.8,0.8c1.5,0.5,2.8,1.3,3.9,2.3c1.1,1,2,2.2,2.7,3.7c0.7,1.5,1,3.1,1,4.8c0,1.1-0.2,2.2-0.5,3.3s-0.8,2-1.4,2.9
				c-0.6,0.9-1.3,1.7-2.1,2.3c-0.8,0.7-1.7,1.1-2.7,1.5v0.1c2.5,0.7,4.5,2.1,6,4.2c1.5,2.1,2.3,4.6,2.3,7.6c0,1.9-0.4,3.7-1.2,5.2
				c-0.8,1.6-1.8,2.9-3.1,4c-1.3,1.1-2.8,2-4.4,2.6c-1.7,0.6-3.5,0.9-5.4,0.9c-1.9,0-3.7-0.3-5.4-0.9c-1.7-0.6-3.2-1.4-4.4-2.6
				c-1.3-1.1-2.3-2.5-3.1-4c-0.8-1.6-1.2-3.3-1.2-5.2c0-2.9,0.8-5.5,2.3-7.6c1.5-2.1,3.5-3.5,6-4.2V272.9z M301.3,284.1
				c0-1.3-0.2-2.5-0.7-3.6c-0.5-1.1-1.1-2.1-1.9-2.9s-1.8-1.5-3-1.9c-1.2-0.5-2.5-0.7-3.9-0.7c-1.5,0-2.8,0.2-3.9,0.7
				c-1.2,0.5-2.2,1.1-3,1.9c-0.8,0.8-1.4,1.8-1.9,2.9c-0.5,1.1-0.7,2.3-0.7,3.6s0.2,2.5,0.7,3.6c0.5,1.1,1.1,2.1,1.9,2.9
				c0.8,0.8,1.8,1.5,3,1.9c1.2,0.5,2.5,0.7,3.9,0.7c1.4,0,2.7-0.2,3.9-0.7c1.2-0.5,2.2-1.1,3-1.9c0.8-0.8,1.4-1.8,1.9-2.9
				C301.1,286.6,301.3,285.4,301.3,284.1z M299.7,263.3c0-1.1-0.2-2.2-0.6-3.2c-0.4-1-0.9-1.8-1.7-2.5c-0.7-0.7-1.5-1.2-2.5-1.6
				c-1-0.4-2-0.6-3.1-0.6s-2.2,0.2-3.1,0.6c-1,0.4-1.8,0.9-2.5,1.6c-0.7,0.7-1.3,1.5-1.7,2.5c-0.4,1-0.6,2-0.6,3.2
				c0,1.1,0.2,2.2,0.6,3.2s0.9,1.8,1.7,2.5c0.7,0.7,1.5,1.2,2.5,1.6c1,0.4,2,0.6,3.1,0.6s2.2-0.2,3.1-0.6c1-0.4,1.8-0.9,2.5-1.6
				c0.7-0.7,1.3-1.5,1.7-2.5S299.7,264.4,299.7,263.3z"/>
		</g>
		<g>
			<path class="st2" d="M242,314.1c0.3,0,0.5,0.2,0.6,0.5c0,0.1-0.1,0.4-0.4,0.7c-0.3,0.3-0.8,0.8-1.4,1.4c-1.8,1.7-3,2.7-3.7,2.9
				c-0.4,0.2-0.8,0.3-1.3,0.3c-0.5,0-0.9-0.2-1.2-0.6c-0.3-0.7-0.4-1.3-0.2-2.1l0.1-1.2l-0.9,1.1c-1.7,2.1-3,2.8-3.8,2.1
				c-0.7-0.9-0.2-2.2,1.4-4c1.2-1.2,2.2-1.7,3-1.7c0.4,0,0.8-0.4,1-1.1c0.4-0.9,0.9-2.2,1.6-4.1c0.4-1.1,0.7-2.1,1.1-3
				c0.3-0.9,0.6-1.6,0.9-2.2c0.2-0.6,0.4-0.9,0.5-1c0.3-0.2,0.6-0.2,0.9,0.1c0.2,0.2,0,0.9-0.4,2.2c-0.4,1.3-1.1,3.2-2.2,5.8
				c-0.4,0.9-0.7,1.9-1,2.8c-0.3,1-0.5,1.9-0.7,2.9c-0.2,0.7-0.3,1.4-0.3,2.1c0.1,0.4,0.2,0.6,0.6,0.6c0.3,0,0.6-0.1,0.9-0.3
				c1.4-1.1,2.8-2.2,4-3.5c0.1-0.1,0.3-0.3,0.5-0.5C241.7,314.2,241.9,314.1,242,314.1z M231.5,317.8c1.1-1.2,1.9-2.2,2.4-3
				c-0.2-0.1-0.7,0.2-1.4,0.8c-0.7,0.6-1.2,1.1-1.5,1.6c-0.3,0.6-0.5,1-0.4,1.1C230.7,318.5,231,318.3,231.5,317.8z"/>
			<path class="st2" d="M240.6,316.9c0.1-0.8,0.2-1.6,0.6-2.3c0.3-0.8,0.7-1.1,1.1-0.8c0.2,0.1,0.2,0.3,0,0.7
				c-0.4,1.2-0.6,2.1-0.7,3c0,0.6,0.3,0.9,0.7,1c0.4,0,0.9-0.1,1.3-0.3c0.8-0.4,2-1.3,3.7-2.8c0.5-0.5,1-0.9,1.6-1.2
				c0.2-0.1,0.4,0,0.5,0.2c0,0.2,0,0.5-0.1,0.7c-0.4,0.4-0.8,0.8-1.2,1.2c-1,1-2.1,1.8-3.3,2.6c-0.9,0.6-1.9,0.8-2.9,0.7
				c-0.2-0.1-0.5-0.2-0.6-0.4C240.6,318.5,240.4,317.8,240.6,316.9z M243.2,309.9c0.2-0.3,0.4-0.3,0.6-0.2c0.4,0.2,0.4,0.7,0,1.4
				c-0.5,0.8-0.8,0.9-1.1,0.5C242.5,311.1,242.7,310.5,243.2,309.9z"/>
			<path class="st2" d="M247.5,319.8l0.7-0.5l0-2.1c-0.2-1,0-1.9,0.4-2.8c0.2-0.3,0.5-0.6,0.9-0.8c0.4-0.3,0.8-0.3,1.1,0
				c0.2,0.2,0.2,0.4,0,0.6c-0.2,0.2-0.4,0.3-0.6,0.4c-0.5,0.4-0.7,0.9-0.8,1.6c0,0.7,0,1.3,0.1,1.8l0.1,0.7l0.6-0.4
				c2-1.2,4.2-2.3,6.6-3.4c0.8-0.4,1.4-0.6,1.7-0.7c0.3-0.1,0.6,0,0.6,0.2c0.3,0.4,0,0.7-1,1.1c-4.1,1.9-7.3,3.6-9.6,5.3
				c-0.6,0.7-1.2,0.8-1.7,0.6C246.3,321,246.5,320.4,247.5,319.8z"/>
			<path class="st2" d="M256,317.6c0.1-1.6,0.8-2.8,2.1-3.6c0.3-0.2,0.8-0.3,1.2-0.4c0.5,0,0.8,0.1,1.1,0.5c0.1,0.2,0.1,0.5-0.1,0.7
				c-0.2,0.2-0.5,0.2-0.7,0c0,0-0.1-0.1-0.1-0.1c-0.1,0-0.1,0-0.2,0c-0.4,0-0.8,0.2-1.1,0.4c-0.7,0.6-1.1,1.3-1.2,2.2
				c0,0.6,0.3,0.9,0.9,1c0.6,0.1,1.1,0,1.5-0.1c1.7-0.7,3.3-1.6,4.8-2.7c0.6-0.4,1.1-0.7,1.7-1.1c0.2-0.2,0.4-0.3,0.7-0.4
				c0.4,0.1,0.5,0.3,0.4,0.7c-0.1,0.2-0.2,0.3-0.4,0.4c-0.5,0.4-1,0.8-1.5,1.1c-1.1,0.8-2.3,1.6-3.6,2.3c-0.7,0.4-1.5,0.7-2.5,1
				c-0.9,0.3-1.8,0.2-2.5-0.3C256.3,318.7,256,318.2,256,317.6z"/>
			<path class="st2" d="M275.3,314.1c0.9-0.3,1.3-0.2,1.2,0.4c0,0.2-0.1,0.3-0.3,0.4s-0.6,0.3-1.2,0.5c-1.9,0.6-3.5,0.8-5,0.7
				c-0.6-0.2-0.9-0.1-0.9,0.3c-0.4,1.5-1.1,2.6-1.9,3.3c-0.8,0.4-1.4,0.3-1.9-0.4c-0.2-0.6-0.2-1.2-0.1-1.8c0.1-0.8,0.4-1.6,0.8-2.2
				c0.2-0.5,0.5-1,0.9-1.4c0.6-0.2,1.2,0,1.9,0.5c0.2,0.4,0.8,0.6,1.8,0.6C272,315,273.5,314.7,275.3,314.1z M268.2,316
				c0-0.2-0.2-0.4-0.5-0.5c-0.3-0.2-0.5-0.2-0.5-0.2c-0.2,0.4-0.4,0.8-0.5,1.1c-0.5,1.2-0.6,2-0.4,2.4c0.2,0.1,0.5-0.1,0.9-0.6
				C267.8,317.3,268.1,316.6,268.2,316z"/>
			<path class="st2" d="M274.8,318.6c0-0.5,0-1,0-1.5c0-0.5,0.1-1.1,0.2-1.6c0-0.4,0.1-0.8,0.3-1.1c0,0,0-0.1,0-0.1
				c0.3-0.3,0.6-0.3,0.8-0.1c0.1,0.2,0,0.7-0.1,1.6c-0.2,0.9-0.2,1.7-0.2,2.2l0,0.7l1-1c0.6-0.7,1.3-1.5,2-2.3
				c0.5-0.7,0.9-1.2,1.2-1.3c0.3-0.1,0.7,0,1.2,0.3c0.6,0.2,1.2,0.4,1.9,0.3c0.7,0,1.4,0,2.1-0.1c0.4-0.1,0.7-0.2,1.1-0.3
				c1-0.5,1.5-0.4,1.6,0.2c0.1,0.3-0.4,0.7-1.5,1.1c-1.7,0.6-3.5,0.5-5.6-0.1c-0.1,0-0.3,0-0.4,0.2c-0.2,0.1-0.4,0.4-0.7,0.9
				c-1.3,1.6-2.4,2.7-3.2,3.2c-0.3,0.2-0.6,0.2-0.9,0.1C275,319.5,274.8,319.1,274.8,318.6z"/>
			<path class="st2" d="M295.5,315.2c0.8-0.6,1.4-0.9,1.7-1.1c0.4-0.1,0.5,0,0.5,0.3c0,0.2-0.4,0.7-1.3,1.4c-0.8,0.7-1.8,1.3-2.9,2
				c-1.1,0.7-2,1.1-2.9,1.4c-1.7,0.6-2.9,0.6-3.6,0c-1.1-1.2-0.9-2.7,0.6-4.5c0.3-0.4,0.9-0.8,1.6-1.1c0.7-0.3,1.2-0.1,1.5,0.7
				c0.1,0.6-0.1,1.1-0.6,1.6c-0.5,0.6-1.1,0.9-1.9,1.1c-0.5,0-0.8,0.2-0.7,0.5c0,0.6,0.3,1,0.9,1.1
				C290,318.5,292.4,317.4,295.5,315.2z M289.4,314.7c-0.3,0-0.7,0.4-1.2,1.1c0,0.1,0.1,0.2,0.4,0.1s0.5-0.2,0.7-0.4
				c0.2-0.2,0.4-0.4,0.4-0.6C289.6,314.7,289.5,314.7,289.4,314.7z"/>
			<path class="st2" d="M295.3,317.9c0.3-1.1,0.6-2.2,1-3.3c0.1-0.2,0.1-0.4,0.2-0.6c0.1-0.2,0.2-0.3,0.5-0.3c0.5,0,0.5,0.7,0,2.1
				c-0.1,0.2,0.2,0,0.8-0.6c0.5-0.6,1.1-1,1.9-1.3c0.4-0.1,0.9-0.1,1.3,0c0.7,0.3,1.4,0.7,2.1,0.9c0.6,0.1,1,0,1.5-0.4
				c0.6-0.3,1-0.4,1.2-0.2c0.2,0.2,0.1,0.5-0.3,1c-1.2,1-2.5,1.1-3.8,0.4c-0.9-0.7-1.7-0.7-2.5,0c-1,0.9-1.9,2-2.7,3.3
				c-0.2,0.4-0.4,0.7-0.7,1c-0.3,0.2-0.5,0.2-0.6-0.1C295,319.2,295,318.5,295.3,317.9z"/>
		</g>
		<g>
			<path class="st1" d="M329.2,303.5h5.4v0.9h-6.5v-10.2h6.3v0.9h-5.3v3.5h4.9v0.9h-4.9V303.5z"/>
		</g>
		<g>
			<path class="st1" d="M338.5,303.5h4.7v0.9h-5.8v-10.2h1V303.5z"/>
		</g>
		<g>
			<path class="st1" d="M354.6,296c-0.4-0.7-1.1-1-2-1c-0.3,0-0.5,0-0.8,0.1c-0.3,0.1-0.5,0.2-0.7,0.3c-0.2,0.1-0.4,0.3-0.5,0.6
				s-0.2,0.5-0.2,0.8c0,0.5,0.1,0.8,0.4,1.1c0.3,0.3,0.6,0.5,1,0.6c0.4,0.2,0.8,0.3,1.3,0.4s0.9,0.3,1.3,0.5c0.4,0.2,0.7,0.5,1,0.9
				c0.3,0.4,0.4,0.8,0.4,1.4c0,0.5-0.1,0.9-0.3,1.2c-0.2,0.4-0.5,0.7-0.8,0.9c-0.3,0.2-0.7,0.4-1.1,0.6s-0.8,0.2-1.2,0.2
				c-0.6,0-1.2-0.1-1.8-0.4c-0.6-0.2-1-0.6-1.4-1.2l0.9-0.7c0.2,0.4,0.5,0.7,0.9,0.9c0.4,0.2,0.9,0.3,1.4,0.3c0.3,0,0.5,0,0.8-0.1
				c0.3-0.1,0.5-0.2,0.7-0.4c0.2-0.2,0.4-0.4,0.5-0.6c0.1-0.2,0.2-0.5,0.2-0.8c0-0.4-0.1-0.6-0.2-0.9c-0.1-0.2-0.3-0.4-0.6-0.6
				c-0.2-0.2-0.5-0.3-0.8-0.4c-0.3-0.1-0.6-0.2-1-0.3c-0.3-0.1-0.7-0.2-1-0.4c-0.3-0.1-0.6-0.3-0.8-0.5c-0.2-0.2-0.4-0.5-0.6-0.8
				s-0.2-0.7-0.2-1.2c0-0.5,0.1-0.9,0.3-1.3s0.4-0.7,0.7-0.9c0.3-0.2,0.7-0.4,1.1-0.5c0.4-0.1,0.8-0.2,1.2-0.2
				c0.6,0,1.1,0.1,1.6,0.3c0.5,0.2,0.9,0.5,1.3,1L354.6,296z"/>
		</g>
		<g>
			<path class="st1" d="M358.2,304.4H357l4.4-10.2h1l4.4,10.2h-1.2l-1.1-2.7h-5.2L358.2,304.4z M359.7,300.8h4.4l-2.2-5.3
				L359.7,300.8z"/>
		</g>
		<g>
			<path class="st1" d="M370.1,303.5h4.7v0.9H369v-10.2h1V303.5z"/>
		</g>
		<g>
			<path class="st1" d="M378.8,302.9L378.8,302.9l3.4-8.6h1.1l-4,10.2h-1l-3.9-10.2h1.1L378.8,302.9z"/>
		</g>
		<g>
			<path class="st1" d="M384.7,304.4h-1.2l4.4-10.2h1l4.4,10.2h-1.2l-1.1-2.7h-5.2L384.7,304.4z M386.2,300.8h4.4l-2.2-5.3
				L386.2,300.8z"/>
			<path class="st1" d="M395.3,294.3h3.4c0.6,0,1.3,0.1,1.9,0.3s1.2,0.5,1.7,1c0.5,0.4,0.9,1,1.2,1.6c0.3,0.6,0.5,1.4,0.5,2.2
				c0,0.9-0.2,1.6-0.5,2.2c-0.3,0.6-0.7,1.2-1.2,1.6c-0.5,0.4-1.1,0.7-1.7,1s-1.3,0.3-1.9,0.3h-3.4V294.3z M396.4,303.5h2
				c0.8,0,1.4-0.1,2-0.4c0.6-0.2,1-0.5,1.4-0.9c0.4-0.4,0.7-0.8,0.8-1.3c0.2-0.5,0.3-1,0.3-1.5c0-0.5-0.1-1-0.3-1.5
				c-0.2-0.5-0.5-0.9-0.8-1.3c-0.4-0.4-0.9-0.7-1.4-0.9c-0.6-0.2-1.2-0.4-2-0.4h-2V303.5z"/>
		</g>
		<g>
			<path class="st1" d="M416.8,299.4c0,0.8-0.1,1.5-0.4,2.1c-0.3,0.7-0.6,1.2-1.1,1.7c-0.5,0.5-1,0.8-1.7,1.1s-1.3,0.4-2.1,0.4
				c-0.8,0-1.5-0.1-2.1-0.4c-0.6-0.3-1.2-0.6-1.7-1.1c-0.5-0.5-0.8-1-1.1-1.7c-0.3-0.6-0.4-1.4-0.4-2.1s0.1-1.5,0.4-2.1
				c0.3-0.6,0.6-1.2,1.1-1.7c0.5-0.5,1-0.8,1.7-1.1c0.6-0.3,1.3-0.4,2.1-0.4c0.8,0,1.5,0.1,2.1,0.4s1.2,0.6,1.7,1.1
				c0.5,0.5,0.8,1,1.1,1.7C416.7,297.9,416.8,298.6,416.8,299.4z M415.7,299.4c0-0.6-0.1-1.1-0.3-1.7c-0.2-0.5-0.5-1-0.8-1.4
				s-0.8-0.7-1.3-1c-0.5-0.2-1.1-0.4-1.7-0.4c-0.7,0-1.2,0.1-1.8,0.4c-0.5,0.2-1,0.6-1.3,1c-0.4,0.4-0.6,0.9-0.8,1.4
				c-0.2,0.5-0.3,1.1-0.3,1.7c0,0.6,0.1,1.1,0.3,1.7c0.2,0.5,0.5,1,0.8,1.4c0.4,0.4,0.8,0.7,1.3,1c0.5,0.2,1.1,0.4,1.8,0.4
				c0.6,0,1.2-0.1,1.7-0.4c0.5-0.2,1-0.6,1.3-1s0.6-0.9,0.8-1.4C415.6,300.5,415.7,299.9,415.7,299.4z"/>
		</g>
		<g>
			<path class="st1" d="M420.7,304.4h-1v-10.2h3.1c1,0,1.8,0.2,2.4,0.7s0.9,1.1,0.9,2c0,0.7-0.2,1.3-0.7,1.8
				c-0.4,0.5-1.1,0.8-1.9,0.8l2.9,4.8h-1.3l-2.8-4.7h-1.7V304.4z M420.7,298.8h1.8c0.5,0,0.8,0,1.2-0.1c0.3-0.1,0.6-0.2,0.8-0.4
				c0.2-0.2,0.3-0.3,0.4-0.6c0.1-0.2,0.1-0.4,0.1-0.7c0-0.2,0-0.5-0.1-0.7c-0.1-0.2-0.2-0.4-0.4-0.6c-0.2-0.2-0.4-0.3-0.8-0.4
				c-0.3-0.1-0.7-0.1-1.2-0.1h-1.8V298.8z"/>
		</g>
		<g>
			<path class="st1" d="M439.5,304.4H433v-1.2l4-4.1c0.2-0.2,0.3-0.3,0.5-0.5s0.3-0.4,0.4-0.5s0.2-0.4,0.3-0.6
				c0.1-0.2,0.1-0.4,0.1-0.7c0-0.3-0.1-0.5-0.2-0.7c-0.1-0.2-0.2-0.4-0.4-0.6c-0.2-0.2-0.4-0.3-0.6-0.4s-0.5-0.1-0.8-0.1
				c-0.5,0-1,0.1-1.3,0.4c-0.4,0.3-0.6,0.7-0.7,1.2l-1.1-0.1c0.1-0.8,0.5-1.3,1-1.8c0.5-0.4,1.2-0.6,2-0.6c0.4,0,0.8,0.1,1.2,0.2
				c0.4,0.1,0.7,0.3,1,0.5s0.5,0.5,0.7,0.8c0.2,0.3,0.3,0.7,0.3,1.2c0,0.4-0.1,0.8-0.2,1.1c-0.1,0.3-0.3,0.6-0.5,0.9
				s-0.4,0.6-0.7,0.8c-0.2,0.3-0.5,0.5-0.8,0.8l-3.2,3.2h5.3V304.4z"/>
		</g>
		<g>
			<path class="st1" d="M445.1,294.1c0.7,0,1.3,0.2,1.8,0.5c0.4,0.3,0.8,0.8,1,1.3c0.2,0.5,0.4,1.1,0.5,1.7c0.1,0.6,0.1,1.2,0.1,1.8
				c0,0.6,0,1.2-0.1,1.8s-0.3,1.2-0.5,1.7c-0.2,0.5-0.6,0.9-1,1.3c-0.4,0.3-1,0.5-1.8,0.5c-0.7,0-1.3-0.2-1.8-0.5
				c-0.4-0.3-0.8-0.8-1-1.3c-0.2-0.5-0.4-1.1-0.5-1.7s-0.1-1.2-0.1-1.8c0-0.6,0-1.2,0.1-1.8c0.1-0.6,0.3-1.2,0.5-1.7
				c0.2-0.5,0.6-0.9,1-1.3C443.8,294.3,444.4,294.1,445.1,294.1z M445.1,295.1c-0.6,0-1,0.1-1.3,0.4c-0.3,0.3-0.6,0.7-0.7,1.1
				c-0.2,0.4-0.3,0.9-0.3,1.4c0,0.5-0.1,0.9-0.1,1.3c0,0.4,0,0.9,0.1,1.3c0,0.5,0.1,1,0.3,1.4c0.2,0.4,0.4,0.8,0.7,1.1
				c0.3,0.3,0.8,0.4,1.3,0.4c0.6,0,1-0.1,1.3-0.4c0.3-0.3,0.6-0.7,0.7-1.1c0.2-0.4,0.3-0.9,0.3-1.4s0.1-0.9,0.1-1.3
				c0-0.4,0-0.9-0.1-1.3s-0.1-1-0.3-1.4c-0.2-0.4-0.4-0.8-0.7-1.1C446.1,295.2,445.7,295.1,445.1,295.1z"/>
		</g>
		<g>
			<path class="st1" d="M457,304.4h-6.5v-1.2l4-4.1c0.2-0.2,0.3-0.3,0.5-0.5s0.3-0.4,0.4-0.5s0.2-0.4,0.3-0.6
				c0.1-0.2,0.1-0.4,0.1-0.7c0-0.3-0.1-0.5-0.2-0.7c-0.1-0.2-0.2-0.4-0.4-0.6c-0.2-0.2-0.4-0.3-0.6-0.4s-0.5-0.1-0.8-0.1
				c-0.5,0-1,0.1-1.3,0.4c-0.4,0.3-0.6,0.7-0.7,1.2l-1.1-0.1c0.1-0.8,0.5-1.3,1-1.8c0.5-0.4,1.2-0.6,2-0.6c0.4,0,0.8,0.1,1.2,0.2
				c0.4,0.1,0.7,0.3,1,0.5s0.5,0.5,0.7,0.8c0.2,0.3,0.3,0.7,0.3,1.2c0,0.4-0.1,0.8-0.2,1.1c-0.1,0.3-0.3,0.6-0.5,0.9
				s-0.4,0.6-0.7,0.8c-0.2,0.3-0.5,0.5-0.8,0.8l-3.2,3.2h5.3V304.4z"/>
		</g>
		<g>
			<path class="st1" d="M464.5,301.1h1.5v0.9h-1.5v2.4h-1V302H459v-1.2l4.1-6.6h1.3V301.1z M463.4,295.3L463.4,295.3l-3.5,5.8h3.5
				V295.3z"/>
		</g>
		<g>
			<path class="st1" d="M328.1,311.5h3.4c0.6,0,1.3,0.1,1.9,0.3s1.2,0.5,1.7,1c0.5,0.4,0.9,1,1.2,1.6c0.3,0.6,0.5,1.4,0.5,2.2
				c0,0.9-0.2,1.6-0.5,2.2c-0.3,0.6-0.7,1.2-1.2,1.6c-0.5,0.4-1.1,0.7-1.7,1s-1.3,0.3-1.9,0.3h-3.4V311.5z M329.1,320.7h2
				c0.8,0,1.4-0.1,2-0.4c0.6-0.2,1-0.5,1.4-0.9c0.4-0.4,0.7-0.8,0.8-1.3c0.2-0.5,0.3-1,0.3-1.5c0-0.5-0.1-1-0.3-1.5
				c-0.2-0.5-0.5-0.9-0.8-1.3c-0.4-0.4-0.9-0.7-1.4-0.9c-0.6-0.2-1.2-0.4-2-0.4h-2V320.7z"/>
		</g>
		<g>
			<path class="st1" d="M344,318.3h1.5v0.9H344v2.4h-1v-2.4h-4.4v-1.2l4.1-6.6h1.3V318.3z M343,312.5L343,312.5l-3.5,5.8h3.5V312.5z
				"/>
		</g>
		<g>
			<path class="st1" d="M353.8,321.6h-6.5v-1.2l4-4.1c0.2-0.2,0.3-0.3,0.5-0.5s0.3-0.4,0.4-0.5s0.2-0.4,0.3-0.6
				c0.1-0.2,0.1-0.4,0.1-0.7c0-0.3-0.1-0.5-0.2-0.7c-0.1-0.2-0.2-0.4-0.4-0.6c-0.2-0.2-0.4-0.3-0.6-0.4s-0.5-0.1-0.8-0.1
				c-0.5,0-1,0.1-1.3,0.4c-0.4,0.3-0.6,0.7-0.7,1.2l-1.1-0.1c0.1-0.8,0.5-1.3,1-1.8c0.5-0.4,1.2-0.6,2-0.6c0.4,0,0.8,0.1,1.2,0.2
				c0.4,0.1,0.7,0.3,1,0.5s0.5,0.5,0.7,0.8c0.2,0.3,0.3,0.7,0.3,1.2c0,0.4-0.1,0.8-0.2,1.1c-0.1,0.3-0.3,0.6-0.5,0.9
				s-0.4,0.6-0.7,0.8c-0.2,0.3-0.5,0.5-0.8,0.8l-3.2,3.2h5.3V321.6z"/>
		</g>
		<g>
			<path class="st1" d="M361.2,318.3h1.5v0.9h-1.5v2.4h-1v-2.4h-4.4v-1.2l4.1-6.6h1.3V318.3z M360.2,312.5L360.2,312.5l-3.5,5.8h3.5
				V312.5z"/>
			<path class="st1" d="M368,311.3c0.7,0,1.3,0.2,1.8,0.5c0.4,0.3,0.8,0.8,1,1.3c0.2,0.5,0.4,1.1,0.5,1.7c0.1,0.6,0.1,1.2,0.1,1.8
				c0,0.6,0,1.2-0.1,1.8s-0.3,1.2-0.5,1.7c-0.2,0.5-0.6,0.9-1,1.3c-0.4,0.3-1,0.5-1.8,0.5c-0.7,0-1.3-0.2-1.8-0.5
				c-0.4-0.3-0.8-0.8-1-1.3c-0.2-0.5-0.4-1.1-0.5-1.7s-0.1-1.2-0.1-1.8c0-0.6,0-1.2,0.1-1.8c0.1-0.6,0.3-1.2,0.5-1.7
				c0.2-0.5,0.6-0.9,1-1.3C366.7,311.5,367.3,311.3,368,311.3z M368,312.3c-0.6,0-1,0.1-1.3,0.4c-0.3,0.3-0.6,0.7-0.7,1.1
				c-0.2,0.4-0.3,0.9-0.3,1.4c0,0.5-0.1,0.9-0.1,1.3c0,0.4,0,0.9,0.1,1.3c0,0.5,0.1,1,0.3,1.4c0.2,0.4,0.4,0.8,0.7,1.1
				c0.3,0.3,0.8,0.4,1.3,0.4c0.6,0,1-0.1,1.3-0.4c0.3-0.3,0.6-0.7,0.7-1.1c0.2-0.4,0.3-0.9,0.3-1.4s0.1-0.9,0.1-1.3
				c0-0.4,0-0.9-0.1-1.3s-0.1-1-0.3-1.4c-0.2-0.4-0.4-0.8-0.7-1.1C369,312.4,368.6,312.3,368,312.3z"/>
		</g>
		<g>
			<path class="st1" d="M383.1,311.5h3.4c0.6,0,1.3,0.1,1.9,0.3s1.2,0.5,1.7,1c0.5,0.4,0.9,1,1.2,1.6c0.3,0.6,0.5,1.4,0.5,2.2
				c0,0.9-0.2,1.6-0.5,2.2c-0.3,0.6-0.7,1.2-1.2,1.6c-0.5,0.4-1.1,0.7-1.7,1s-1.3,0.3-1.9,0.3h-3.4V311.5z M384.1,320.7h2
				c0.8,0,1.4-0.1,2-0.4c0.6-0.2,1-0.5,1.4-0.9c0.4-0.4,0.7-0.8,0.8-1.3c0.2-0.5,0.3-1,0.3-1.5c0-0.5-0.1-1-0.3-1.5
				c-0.2-0.5-0.5-0.9-0.8-1.3c-0.4-0.4-0.9-0.7-1.4-0.9c-0.6-0.2-1.2-0.4-2-0.4h-2V320.7z"/>
			<path class="st1" d="M399,318.3h1.5v0.9H399v2.4h-1v-2.4h-4.4v-1.2l4.1-6.6h1.3V318.3z M398,312.5L398,312.5l-3.5,5.8h3.5V312.5z
				"/>
			<path class="st1" d="M408.7,321.6h-6.5v-1.2l4-4.1c0.2-0.2,0.3-0.3,0.5-0.5s0.3-0.4,0.4-0.5s0.2-0.4,0.3-0.6
				c0.1-0.2,0.1-0.4,0.1-0.7c0-0.3-0.1-0.5-0.2-0.7c-0.1-0.2-0.2-0.4-0.4-0.6c-0.2-0.2-0.4-0.3-0.6-0.4s-0.5-0.1-0.8-0.1
				c-0.5,0-1,0.1-1.3,0.4c-0.4,0.3-0.6,0.7-0.7,1.2l-1.1-0.1c0.1-0.8,0.5-1.3,1-1.8c0.5-0.4,1.2-0.6,2-0.6c0.4,0,0.8,0.1,1.2,0.2
				c0.4,0.1,0.7,0.3,1,0.5s0.5,0.5,0.7,0.8c0.2,0.3,0.3,0.7,0.3,1.2c0,0.4-0.1,0.8-0.2,1.1c-0.1,0.3-0.3,0.6-0.5,0.9
				s-0.4,0.6-0.7,0.8c-0.2,0.3-0.5,0.5-0.8,0.8l-3.2,3.2h5.3V321.6z"/>
			<path class="st1" d="M416.7,312.4h-4.1l-0.1,3.1c0.2-0.1,0.4-0.1,0.7-0.2s0.5-0.1,0.7-0.1c0.5,0,0.9,0.1,1.3,0.2
				c0.4,0.2,0.7,0.4,1,0.7c0.3,0.3,0.5,0.6,0.7,1c0.2,0.4,0.2,0.8,0.2,1.3c0,0.5-0.1,0.9-0.3,1.3c-0.2,0.4-0.4,0.8-0.7,1
				s-0.7,0.5-1.1,0.7c-0.4,0.2-0.9,0.2-1.4,0.2c-0.6,0-1.2-0.2-1.7-0.5c-0.5-0.3-0.9-0.8-1.2-1.3l1-0.4c0.2,0.4,0.5,0.7,0.8,1
				s0.7,0.4,1.2,0.4c0.3,0,0.6-0.1,0.9-0.2c0.3-0.1,0.5-0.3,0.7-0.5c0.2-0.2,0.4-0.4,0.5-0.7s0.2-0.6,0.2-0.9c0-0.4-0.1-0.7-0.2-1
				c-0.1-0.3-0.3-0.6-0.5-0.8c-0.2-0.2-0.5-0.4-0.8-0.5c-0.3-0.1-0.6-0.2-1-0.2s-0.7,0-1.1,0.2c-0.4,0.1-0.7,0.2-1,0.4l0.1-5.3h5.2
				V312.4z"/>
			<path class="st1" d="M422.6,311.3c0.7,0,1.3,0.2,1.8,0.5c0.4,0.3,0.8,0.8,1,1.3c0.2,0.5,0.4,1.1,0.5,1.7c0.1,0.6,0.1,1.2,0.1,1.8
				c0,0.6,0,1.2-0.1,1.8s-0.3,1.2-0.5,1.7c-0.2,0.5-0.6,0.9-1,1.3c-0.4,0.3-1,0.5-1.8,0.5c-0.7,0-1.3-0.2-1.8-0.5
				c-0.4-0.3-0.8-0.8-1-1.3c-0.2-0.5-0.4-1.1-0.5-1.7s-0.1-1.2-0.1-1.8c0-0.6,0-1.2,0.1-1.8c0.1-0.6,0.3-1.2,0.5-1.7
				c0.2-0.5,0.6-0.9,1-1.3C421.3,311.5,421.8,311.3,422.6,311.3z M422.6,312.3c-0.6,0-1,0.1-1.3,0.4c-0.3,0.3-0.6,0.7-0.7,1.1
				c-0.2,0.4-0.3,0.9-0.3,1.4c0,0.5-0.1,0.9-0.1,1.3c0,0.4,0,0.9,0.1,1.3c0,0.5,0.1,1,0.3,1.4c0.2,0.4,0.4,0.8,0.7,1.1
				c0.3,0.3,0.8,0.4,1.3,0.4c0.6,0,1-0.1,1.3-0.4c0.3-0.3,0.6-0.7,0.7-1.1c0.2-0.4,0.3-0.9,0.3-1.4s0.1-0.9,0.1-1.3
				c0-0.4,0-0.9-0.1-1.3s-0.1-1-0.3-1.4c-0.2-0.4-0.4-0.8-0.7-1.1C423.6,312.4,423.1,312.3,422.6,312.3z"/>
		</g>
		<line class="st3" x1="317.3" y1="255.7" x2="317.3" y2="324.4"/>
	</g>
	<g>
		<g>
			<path class="st1" d="M384,317.5h-3.7v-0.9h3.7V317.5z"/>
		</g>
	</g>
</g>
<g>
	<g>
		<g>
			<path class="st0" d="M595.1,191h10.3v2.1h-12.6v-22.4h2.3V191z"/>
		</g>
		<g>
			<path class="st0" d="M609.9,193.1h-2.6l9.6-22.4h2.2l9.6,22.4h-2.6l-2.4-5.9h-11.3L609.9,193.1z M613.1,185.2h9.6l-4.8-11.8
				L613.1,185.2z"/>
		</g>
		<g>
			<path class="st0" d="M631.5,219.6l-10.8,1.7c0-3.8-1.9-8.3-7.1-8.3c-4.9,0-8.6,4.3-8.6,11.3c0,8,4.9,11.3,10,11.3
				c5.3,0,8.6-3.8,9.8-5.6l6.9,7.4c-2.4,3.4-7.8,8.5-17.1,8.5c-13,0-21.5-8.3-21.5-21.5c0-13.2,8.5-21.5,20.3-21.5
				C626.6,202.7,631.5,211.7,631.5,219.6"/>
			<path class="st0" d="M679.9,224.1c0,13.2-8.5,21.5-20.9,21.5c-12.3,0-20.9-8.3-20.9-21.5c0-13.2,8.5-21.4,20.9-21.4
				C671.3,202.7,679.9,211,679.9,224.1 M667.9,224.1c0-7.2-3.8-11.2-8.9-11.2c-5.1,0-8.9,3.9-8.9,11.2c0,7.3,3.8,11.3,8.9,11.3
				C664.1,235.4,667.9,231.5,667.9,224.1"/>
			<path class="st0" d="M630.4,298.3h-10.5l-10.6-14.9c-1.7-2.4-3.6-5.3-5.2-7.8l-0.4,0.2c0.3,1.3,0.3,4.2,0.3,7.6v14.9h-11.3v-42
				h9.3l11.9,16.5c1.8,2.5,4.3,6.7,5.2,8.3l0.4-0.2c-0.3-1.3-0.3-4.6-0.3-8.1v-16.5h11.3V298.3z"/>
			<polygon class="st0" points="652.8,266 652.8,273.7 667.4,273.7 667.4,283 652.8,283 652.8,298.3 641,298.3 641,256.4 
				669.5,256.4 669.5,266 			"/>
			<polygon class="st0" points="689.8,266 689.8,272.9 704.5,272.9 704.5,281.9 689.8,281.9 689.8,288.7 707.2,288.7 707.2,298.3 
				678.1,298.3 678.1,256.4 707.2,256.4 707.2,266 			"/>
		</g>
		<g>
			<path class="st1" d="M598.6,314.2H596v5.2c0,0.3,0,0.6,0.1,0.8c0.1,0.2,0.1,0.4,0.3,0.5c0.1,0.1,0.2,0.2,0.4,0.2
				c0.2,0,0.3,0.1,0.5,0.1c0.2,0,0.4,0,0.7-0.1c0.2-0.1,0.4-0.1,0.6-0.2l0.1,1.2c-0.5,0.2-1,0.3-1.7,0.3c-0.2,0-0.5,0-0.7-0.1
				c-0.3-0.1-0.5-0.2-0.7-0.4c-0.2-0.2-0.4-0.4-0.5-0.7c-0.1-0.3-0.2-0.7-0.2-1.2v-5.6h-1.9v-1.1h1.9v-2.5h1.2v2.5h2.5V314.2z"/>
			<path class="st1" d="M610.1,317.5c0,0.7-0.1,1.3-0.3,1.8c-0.2,0.6-0.6,1.1-1,1.5c-0.4,0.4-0.9,0.7-1.5,1
				c-0.6,0.2-1.2,0.3-1.9,0.3c-0.7,0-1.3-0.1-1.9-0.3c-0.6-0.2-1.1-0.6-1.5-1c-0.4-0.4-0.7-0.9-1-1.5c-0.2-0.6-0.3-1.2-0.3-1.8
				c0-0.7,0.1-1.3,0.3-1.8s0.6-1.1,1-1.5c0.4-0.4,0.9-0.7,1.5-1c0.6-0.2,1.2-0.3,1.9-0.3c0.7,0,1.3,0.1,1.9,0.3
				c0.6,0.2,1.1,0.6,1.5,1c0.4,0.4,0.7,0.9,1,1.5C610,316.2,610.1,316.8,610.1,317.5z M608.8,317.5c0-0.5-0.1-0.9-0.2-1.4
				c-0.2-0.4-0.4-0.8-0.7-1.1c-0.3-0.3-0.6-0.6-1-0.7c-0.4-0.2-0.9-0.3-1.4-0.3s-1,0.1-1.4,0.3s-0.7,0.4-1,0.7s-0.5,0.7-0.7,1.1
				c-0.2,0.4-0.2,0.9-0.2,1.4c0,0.5,0.1,1,0.2,1.4s0.4,0.8,0.7,1.1s0.6,0.6,1,0.7s0.9,0.3,1.4,0.3s1-0.1,1.4-0.3
				c0.4-0.2,0.8-0.4,1-0.7c0.3-0.3,0.5-0.7,0.7-1.1C608.7,318.4,608.8,318,608.8,317.5z"/>
			<path class="st1" d="M614.1,323.7c0.4,0.5,0.8,0.9,1.4,1.2c0.6,0.3,1.2,0.4,1.9,0.4c0.6,0,1.2-0.1,1.6-0.3
				c0.4-0.2,0.8-0.4,1.1-0.7c0.3-0.3,0.5-0.7,0.6-1.1c0.1-0.4,0.2-0.9,0.2-1.3v-1.6h0c-0.4,0.6-0.9,1-1.5,1.3
				c-0.6,0.3-1.2,0.4-1.8,0.4c-0.6,0-1.2-0.1-1.8-0.3c-0.6-0.2-1-0.5-1.4-0.9c-0.4-0.4-0.7-0.9-1-1.4s-0.4-1.2-0.4-1.8
				s0.1-1.2,0.3-1.8c0.2-0.6,0.5-1,0.9-1.5c0.4-0.4,0.9-0.7,1.4-1c0.5-0.2,1.1-0.3,1.8-0.3c0.3,0,0.5,0,0.8,0.1
				c0.3,0.1,0.6,0.1,0.9,0.3s0.6,0.3,0.9,0.5c0.3,0.2,0.6,0.5,0.8,0.8h0v-1.5h1.2v8.8c0,0.5-0.1,1-0.2,1.5c-0.1,0.5-0.3,1-0.7,1.5
				c-0.3,0.5-0.8,0.8-1.4,1.1s-1.4,0.5-2.4,0.5c-0.9,0-1.7-0.1-2.3-0.4s-1.3-0.7-1.9-1.3L614.1,323.7z M614.3,317.4
				c0,0.5,0.1,0.9,0.3,1.3c0.2,0.4,0.4,0.8,0.7,1.1c0.3,0.3,0.6,0.6,1,0.7s0.8,0.3,1.3,0.3c0.4,0,0.9-0.1,1.3-0.2
				c0.4-0.2,0.8-0.4,1.1-0.7c0.3-0.3,0.6-0.7,0.7-1.1c0.2-0.4,0.2-0.9,0.2-1.4c0-0.5-0.1-0.9-0.2-1.3c-0.1-0.4-0.4-0.8-0.7-1.1
				c-0.3-0.3-0.6-0.6-1-0.7c-0.4-0.2-0.9-0.3-1.4-0.3c-0.5,0-0.9,0.1-1.3,0.3s-0.7,0.4-1,0.7c-0.3,0.3-0.5,0.7-0.7,1.1
				C614.4,316.5,614.3,316.9,614.3,317.4z"/>
			<path class="st1" d="M626.7,317.8c0,0.4,0.1,0.9,0.3,1.2c0.2,0.4,0.4,0.7,0.7,1s0.6,0.5,1,0.7c0.4,0.2,0.8,0.2,1.2,0.2
				c0.7,0,1.2-0.2,1.7-0.5c0.5-0.3,0.8-0.7,1.1-1.1l1,0.8c-0.5,0.7-1.1,1.1-1.7,1.4c-0.6,0.3-1.3,0.4-2,0.4c-0.6,0-1.2-0.1-1.8-0.3
				c-0.6-0.2-1-0.6-1.4-1c-0.4-0.4-0.7-0.9-0.9-1.5c-0.2-0.6-0.3-1.2-0.3-1.8c0-0.7,0.1-1.3,0.3-1.8s0.5-1.1,0.9-1.5
				c0.4-0.4,0.9-0.7,1.4-1c0.5-0.2,1.1-0.3,1.7-0.3c0.7,0,1.3,0.1,1.8,0.4c0.5,0.2,1,0.6,1.3,1c0.4,0.4,0.6,0.9,0.8,1.4
				c0.2,0.5,0.3,1.1,0.3,1.7v0.6H626.7z M632.7,316.8c0-0.8-0.2-1.5-0.7-2c-0.5-0.5-1.2-0.8-2.1-0.8c-0.4,0-0.8,0.1-1.2,0.2
				c-0.4,0.2-0.7,0.4-1,0.6c-0.3,0.3-0.5,0.6-0.7,0.9c-0.2,0.3-0.3,0.7-0.3,1.1H632.7z"/>
			<path class="st1" d="M641.9,314.2h-2.5v5.2c0,0.3,0,0.6,0.1,0.8c0.1,0.2,0.1,0.4,0.3,0.5s0.2,0.2,0.4,0.2s0.3,0.1,0.5,0.1
				c0.2,0,0.4,0,0.7-0.1c0.2-0.1,0.4-0.1,0.6-0.2l0.1,1.2c-0.5,0.2-1,0.3-1.7,0.3c-0.2,0-0.5,0-0.7-0.1c-0.3-0.1-0.5-0.2-0.7-0.4
				c-0.2-0.2-0.4-0.4-0.5-0.7c-0.1-0.3-0.2-0.7-0.2-1.2v-5.6h-1.9v-1.1h1.9v-2.5h1.2v2.5h2.5V314.2z"/>
			<path class="st1" d="M644.6,307.6h1.2v6.9h0c0.1-0.2,0.3-0.5,0.5-0.7s0.4-0.4,0.7-0.5c0.3-0.1,0.5-0.3,0.8-0.3
				c0.3-0.1,0.6-0.1,0.9-0.1c1.1,0,2,0.3,2.5,0.9s0.8,1.5,0.8,2.6v5.6h-1.2V317c0-1-0.2-1.7-0.5-2.3c-0.3-0.5-1-0.8-1.9-0.8
				c-0.1,0-0.2,0-0.5,0.1c-0.3,0-0.6,0.2-0.9,0.4c-0.3,0.2-0.6,0.6-0.9,1c-0.2,0.5-0.4,1.1-0.4,1.9v4.5h-1.2V307.6z"/>
			<path class="st1" d="M656.9,317.8c0,0.4,0.1,0.9,0.3,1.2s0.4,0.7,0.7,1c0.3,0.3,0.6,0.5,1,0.7c0.4,0.2,0.8,0.2,1.2,0.2
				c0.7,0,1.2-0.2,1.7-0.5s0.8-0.7,1.1-1.1l1,0.8c-0.5,0.7-1.1,1.1-1.7,1.4c-0.6,0.3-1.3,0.4-2,0.4c-0.6,0-1.2-0.1-1.8-0.3
				c-0.6-0.2-1-0.6-1.4-1c-0.4-0.4-0.7-0.9-0.9-1.5c-0.2-0.6-0.3-1.2-0.3-1.8c0-0.7,0.1-1.3,0.3-1.8c0.2-0.6,0.5-1.1,0.9-1.5
				c0.4-0.4,0.9-0.7,1.4-1c0.5-0.2,1.1-0.3,1.7-0.3c0.7,0,1.3,0.1,1.8,0.4s1,0.6,1.3,1c0.4,0.4,0.6,0.9,0.8,1.4
				c0.2,0.5,0.3,1.1,0.3,1.7v0.6H656.9z M662.8,316.8c0-0.8-0.2-1.5-0.7-2c-0.5-0.5-1.2-0.8-2.1-0.8c-0.4,0-0.8,0.1-1.2,0.2
				s-0.7,0.4-1,0.6c-0.3,0.3-0.5,0.6-0.7,0.9s-0.3,0.7-0.3,1.1H662.8z"/>
			<path class="st1" d="M667.6,315.8c0-0.4,0-0.8,0-1.2c0-0.4,0-0.9,0-1.6h1.2v1.6h0c0.1-0.2,0.2-0.5,0.4-0.7
				c0.2-0.2,0.4-0.4,0.6-0.6s0.5-0.3,0.8-0.4c0.3-0.1,0.7-0.2,1-0.2c0.3,0,0.7,0,0.9,0.1l-0.2,1.2c-0.2-0.1-0.4-0.1-0.7-0.1
				c-0.5,0-0.9,0.1-1.2,0.3c-0.3,0.2-0.6,0.4-0.8,0.7s-0.4,0.6-0.5,0.9s-0.2,0.6-0.2,0.9v5h-1.2V315.8z"/>
			<path class="st1" d="M681.3,313.1l2,7.2h0l2.3-7.2h1.3l2.3,7.2h0l2-7.2h1.5l-2.8,8.8h-1.4l-2.3-7.2h0l-2.3,7.2h-1.4l-2.8-8.8
				H681.3z"/>
			<path class="st1" d="M696.4,317.8c0,0.4,0.1,0.9,0.3,1.2c0.2,0.4,0.4,0.7,0.7,1s0.6,0.5,1,0.7c0.4,0.2,0.8,0.2,1.2,0.2
				c0.7,0,1.2-0.2,1.7-0.5c0.5-0.3,0.8-0.7,1.1-1.1l1,0.8c-0.5,0.7-1.1,1.1-1.7,1.4c-0.6,0.3-1.3,0.4-2,0.4c-0.6,0-1.2-0.1-1.8-0.3
				c-0.6-0.2-1-0.6-1.4-1c-0.4-0.4-0.7-0.9-0.9-1.5c-0.2-0.6-0.3-1.2-0.3-1.8c0-0.7,0.1-1.3,0.3-1.8s0.5-1.1,0.9-1.5
				c0.4-0.4,0.9-0.7,1.4-1c0.5-0.2,1.1-0.3,1.7-0.3c0.7,0,1.3,0.1,1.8,0.4c0.5,0.2,1,0.6,1.3,1c0.4,0.4,0.6,0.9,0.8,1.4
				c0.2,0.5,0.3,1.1,0.3,1.7v0.6H696.4z M702.3,316.8c0-0.8-0.2-1.5-0.7-2c-0.5-0.5-1.2-0.8-2.1-0.8c-0.4,0-0.8,0.1-1.2,0.2
				c-0.4,0.2-0.7,0.4-1,0.6c-0.3,0.3-0.5,0.6-0.7,0.9c-0.2,0.3-0.3,0.7-0.3,1.1H702.3z"/>
		</g>
		<g>
			<path class="st0" d="M748.7,298.3h-28.2v-5.2l17.7-18.1c0.7-0.7,1.3-1.4,2-2.1c0.7-0.8,1.3-1.6,1.8-2.4c0.5-0.8,1-1.7,1.3-2.7
				c0.3-0.9,0.5-1.9,0.5-2.9c0-1.2-0.2-2.3-0.7-3.3c-0.4-1-1.1-1.8-1.8-2.5c-0.8-0.7-1.7-1.2-2.8-1.5c-1-0.4-2.1-0.5-3.3-0.5
				c-2.3,0-4.2,0.6-5.8,1.9c-1.6,1.3-2.6,3-3.1,5.1l-4.8-0.5c0.6-3.3,2.1-5.9,4.5-7.8c2.4-1.9,5.3-2.8,8.7-2.8
				c1.8,0,3.5,0.2,5.1,0.7c1.6,0.5,3,1.2,4.3,2.2s2.2,2.2,2.9,3.6c0.7,1.5,1.1,3.1,1.1,5.1c0,1.7-0.3,3.3-0.8,4.7
				c-0.5,1.4-1.2,2.8-2,4s-1.8,2.5-2.8,3.6s-2.2,2.3-3.3,3.3l-14,14h23.3V298.3z"/>
		</g>
		<g>
			<path class="st0" d="M767.5,274.5c-1-0.3-1.8-0.8-2.7-1.5c-0.8-0.7-1.5-1.4-2.1-2.3c-0.6-0.9-1-1.9-1.4-2.9s-0.5-2.1-0.5-3.3
				c0-1.8,0.3-3.4,1-4.8c0.7-1.5,1.6-2.7,2.7-3.7s2.4-1.8,3.9-2.3c1.5-0.5,3.1-0.8,4.8-0.8s3.3,0.3,4.8,0.8c1.5,0.5,2.8,1.3,3.9,2.3
				c1.1,1,2,2.2,2.7,3.7c0.7,1.5,1,3.1,1,4.8c0,1.1-0.2,2.2-0.5,3.3s-0.8,2-1.4,2.9c-0.6,0.9-1.3,1.7-2.1,2.3
				c-0.8,0.7-1.7,1.1-2.7,1.5v0.1c2.5,0.7,4.5,2.1,6,4.2c1.5,2.1,2.3,4.6,2.3,7.6c0,1.9-0.4,3.7-1.2,5.2c-0.8,1.6-1.8,2.9-3.1,4
				c-1.3,1.1-2.8,2-4.4,2.6c-1.7,0.6-3.5,0.9-5.4,0.9c-1.9,0-3.7-0.3-5.4-0.9c-1.7-0.6-3.2-1.4-4.4-2.6c-1.3-1.1-2.3-2.5-3.1-4
				c-0.8-1.6-1.2-3.3-1.2-5.2c0-2.9,0.8-5.5,2.3-7.6c1.5-2.1,3.5-3.5,6-4.2V274.5z M782.7,285.8c0-1.3-0.2-2.5-0.7-3.6
				c-0.5-1.1-1.1-2.1-1.9-2.9s-1.8-1.5-3-1.9c-1.2-0.5-2.5-0.7-3.9-0.7c-1.5,0-2.8,0.2-3.9,0.7c-1.2,0.5-2.2,1.1-3,1.9
				c-0.8,0.8-1.4,1.8-1.9,2.9c-0.5,1.1-0.7,2.3-0.7,3.6s0.2,2.5,0.7,3.6c0.5,1.1,1.1,2.1,1.9,2.9c0.8,0.8,1.8,1.5,3,1.9
				c1.2,0.5,2.5,0.7,3.9,0.7c1.4,0,2.7-0.2,3.9-0.7c1.2-0.5,2.2-1.1,3-1.9c0.8-0.8,1.4-1.8,1.9-2.9
				C782.5,288.3,782.7,287.1,782.7,285.8z M781.1,264.9c0-1.1-0.2-2.2-0.6-3.2c-0.4-1-0.9-1.8-1.7-2.5c-0.7-0.7-1.5-1.2-2.5-1.6
				c-1-0.4-2-0.6-3.1-0.6s-2.2,0.2-3.1,0.6c-1,0.4-1.8,0.9-2.5,1.6c-0.7,0.7-1.3,1.5-1.7,2.5c-0.4,1-0.6,2-0.6,3.2
				c0,1.1,0.2,2.2,0.6,3.2s0.9,1.8,1.7,2.5c0.7,0.7,1.5,1.2,2.5,1.6c1,0.4,2,0.6,3.1,0.6s2.2-0.2,3.1-0.6c1-0.4,1.8-0.9,2.5-1.6
				c0.7-0.7,1.3-1.5,1.7-2.5S781.1,266.1,781.1,264.9z"/>
		</g>
		<g>
			<path class="st4" d="M711.1,319.3c0.1-1.6,0.8-2.8,2.1-3.6c0.3-0.2,0.8-0.3,1.2-0.4c0.5,0,0.8,0.1,1.1,0.5
				c0.1,0.2,0.1,0.5-0.1,0.7c-0.2,0.2-0.5,0.2-0.7,0c0,0-0.1-0.1-0.1-0.1c-0.1,0-0.1,0-0.2,0c-0.4,0-0.8,0.2-1.1,0.4
				c-0.7,0.6-1.1,1.3-1.2,2.2c0,0.6,0.3,0.9,0.9,1c0.6,0.1,1.1,0,1.5-0.1c1.7-0.7,3.3-1.6,4.8-2.7c0.6-0.4,1.1-0.7,1.7-1.1
				c0.2-0.2,0.4-0.3,0.7-0.4c0.4,0.1,0.5,0.3,0.4,0.7c-0.1,0.2-0.2,0.3-0.4,0.4c-0.5,0.4-1,0.8-1.5,1.1c-1.1,0.8-2.3,1.6-3.6,2.3
				c-0.7,0.4-1.5,0.7-2.5,1c-0.9,0.3-1.8,0.2-2.5-0.3C711.4,320.4,711.2,319.9,711.1,319.3z"/>
			<path class="st4" d="M720.8,319.5c0.3-1.1,0.6-2.2,1-3.3c0.1-0.2,0.1-0.4,0.2-0.6c0.1-0.2,0.2-0.3,0.5-0.3c0.5,0,0.5,0.7,0,2.1
				c-0.1,0.2,0.2,0,0.8-0.6c0.5-0.6,1.1-1,1.9-1.3c0.4-0.1,0.9-0.1,1.3,0c0.7,0.3,1.4,0.7,2.1,0.9c0.6,0.1,1,0,1.5-0.4
				c0.6-0.3,1-0.4,1.2-0.2c0.2,0.2,0.1,0.5-0.3,1c-1.2,1-2.5,1.1-3.8,0.4c-0.9-0.7-1.7-0.7-2.5,0c-1,0.9-1.9,2-2.7,3.3
				c-0.2,0.4-0.4,0.7-0.7,1c-0.3,0.2-0.5,0.2-0.6-0.1C720.4,320.8,720.5,320.2,720.8,319.5z"/>
			<path class="st4" d="M738.9,316.8c0.8-0.6,1.4-0.9,1.7-1.1c0.4-0.1,0.5,0,0.5,0.3c0,0.2-0.4,0.7-1.3,1.4c-0.8,0.7-1.8,1.3-2.9,2
				c-1.1,0.7-2,1.1-2.9,1.4c-1.7,0.6-2.9,0.6-3.6,0c-1.1-1.2-0.9-2.7,0.6-4.5c0.3-0.4,0.9-0.8,1.6-1.1c0.7-0.3,1.2-0.1,1.5,0.7
				c0.1,0.6-0.1,1.1-0.6,1.6c-0.5,0.6-1.1,0.9-1.9,1.1c-0.5,0-0.8,0.2-0.7,0.5c0,0.6,0.3,1,0.9,1.1
				C733.5,320.1,735.8,319,738.9,316.8z M732.8,316.3c-0.3,0-0.7,0.4-1.2,1.1c0,0.1,0.1,0.2,0.4,0.1c0.2-0.1,0.5-0.2,0.7-0.4
				c0.2-0.2,0.4-0.4,0.4-0.6C733,316.4,733,316.3,732.8,316.3z"/>
			<path class="st4" d="M749.5,316.3c0,0.1-0.1,0.3-0.3,0.7c-0.3,0.3-0.8,0.9-1.6,1.6c-0.5,0.6-1.1,1.1-1.8,1.7
				c-0.6,0.6-1.4,0.9-2.1,1.1c-0.7,0.2-1.4,0-1.9-0.5c-0.3-0.5-0.5-1.1-0.4-1.7l0.1-0.9l-1.1,1.2c-0.5,0.6-1,1.1-1.6,1.5
				c-0.3,0.2-0.6,0.3-1,0.3c-0.4,0-0.6-0.1-0.8-0.5c-0.2-0.5-0.2-1.1,0-1.6c0.5-1.2,1.3-2.2,2.4-2.9c0.6-0.4,1.3-0.7,2-0.7
				c0.6-0.1,1,0.1,1.5,0.4c0.2,0.1,0.2,0.2,0.2,0.4s-0.1,0.6-0.2,1.1c-0.2,0.6-0.3,1.2-0.3,1.8c-0.2,0.7,0.1,1.1,0.8,1.1
				c0.7-0.2,1.3-0.5,1.8-1.1c0.6-0.5,1.1-1,1.7-1.5c0.7-0.7,1.2-1.2,1.6-1.5c0.3-0.3,0.6-0.4,0.7-0.4
				C749.3,315.9,749.5,316.1,749.5,316.3z M739.2,319c0.7-0.7,1.2-1.3,1.6-1.8c0.4-0.5,0.6-0.7,0.5-0.7c-0.4,0-1,0.4-1.8,1.1
				c-0.8,0.8-1.3,1.5-1.5,2.1c-0.1,0.2-0.1,0.3,0,0.3c0.1,0,0.2-0.1,0.4-0.2C738.6,319.6,738.8,319.4,739.2,319z"/>
			<path class="st4" d="M747.8,319.6c-0.1-0.8,0-1.7,0.3-2.5c0.2-0.8,0.5-1.6,0.7-2.4c0.7-2.1,1.4-4.2,2.2-6.3l0.4-1h-3.1
				c-1.6,0-2.5,0-2.9-0.1s-0.5-0.2-0.5-0.5c0-0.4,0.4-0.6,1.2-0.5c0.5,0.1,1.6,0.1,3.2,0l2.6-0.1l0.3-0.7c0.7-1.5,1.2-2.2,1.5-2.2
				c0.7,0,0.9,0.7,0.5,2c-0.1,0.5-0.2,0.7-0.2,0.8c0,0,0.2,0.1,0.6,0.1c0.3,0,0.8,0,1.4,0c0.6,0,1.2,0,1.9,0c2.7,0,4.6,0.1,5.5,0.2
				s1.3,0.3,1.2,0.7c0.1,0.2-0.2,0.3-0.8,0.3s-1.8,0-3.6,0c-2.4,0-4.2,0-5.2,0l-1.4,0l-0.4,0.9c-0.3,0.8-0.9,2.1-1.8,4.1
				c-1.5,2.9-2.3,4.9-2.4,6.2c-0.1,1,0.1,1.5,0.6,1.6c0.8,0,2.5-1.1,4.9-3.5c0.6-0.6,1-0.9,1.3-1c0.3-0.1,0.5,0,0.6,0.2
				c0.1,0.2,0,0.5-0.2,0.8c-0.3,0.4-0.9,1-1.8,1.8c-1.1,1.1-2.3,2-3.7,2.6c-0.7,0.3-1.3,0.2-1.9-0.1
				C748.2,320.8,747.9,320.3,747.8,319.6z"/>
			<path class="st4" d="M763.8,316.8c0.8-0.6,1.4-0.9,1.7-1.1c0.4-0.1,0.5,0,0.5,0.3c0,0.2-0.4,0.7-1.3,1.4s-1.8,1.3-2.9,2
				c-1.1,0.7-2,1.1-2.9,1.4c-1.7,0.6-2.9,0.6-3.6,0c-1.1-1.2-0.9-2.7,0.6-4.5c0.3-0.4,0.9-0.8,1.6-1.1c0.7-0.3,1.2-0.1,1.5,0.7
				c0.1,0.6-0.1,1.1-0.6,1.6c-0.5,0.6-1.1,0.9-1.9,1.1c-0.5,0-0.8,0.2-0.7,0.5c0,0.6,0.3,1,0.9,1.1
				C758.4,320.1,760.7,319,763.8,316.8z M757.7,316.3c-0.3,0-0.7,0.4-1.2,1.1c0,0.1,0.1,0.2,0.4,0.1c0.2-0.1,0.5-0.2,0.7-0.4
				c0.2-0.2,0.4-0.4,0.4-0.6C758,316.4,757.9,316.3,757.7,316.3z"/>
		</g>
		<g>
			<path class="st1" d="M810.6,305.1h5.4v0.9h-6.5v-10.2h6.3v0.9h-5.3v3.5h4.9v0.9h-4.9V305.1z"/>
		</g>
		<g>
			<path class="st1" d="M819.9,305.1h4.7v0.9h-5.8v-10.2h1V305.1z"/>
		</g>
		<g>
			<path class="st1" d="M836,297.6c-0.4-0.7-1.1-1-2-1c-0.3,0-0.5,0-0.8,0.1c-0.3,0.1-0.5,0.2-0.7,0.3c-0.2,0.1-0.4,0.3-0.5,0.6
				s-0.2,0.5-0.2,0.8c0,0.5,0.1,0.8,0.4,1.1c0.3,0.3,0.6,0.5,1,0.6c0.4,0.2,0.8,0.3,1.3,0.4s0.9,0.3,1.3,0.5c0.4,0.2,0.7,0.5,1,0.9
				c0.3,0.4,0.4,0.8,0.4,1.4c0,0.5-0.1,0.9-0.3,1.2c-0.2,0.4-0.5,0.7-0.8,0.9c-0.3,0.2-0.7,0.4-1.1,0.6s-0.8,0.2-1.2,0.2
				c-0.6,0-1.2-0.1-1.8-0.4c-0.6-0.2-1-0.6-1.4-1.2l0.9-0.7c0.2,0.4,0.5,0.7,0.9,0.9c0.4,0.2,0.9,0.3,1.4,0.3c0.3,0,0.5,0,0.8-0.1
				c0.3-0.1,0.5-0.2,0.7-0.4c0.2-0.2,0.4-0.4,0.5-0.6c0.1-0.2,0.2-0.5,0.2-0.8c0-0.4-0.1-0.6-0.2-0.9c-0.1-0.2-0.3-0.4-0.6-0.6
				c-0.2-0.2-0.5-0.3-0.8-0.4c-0.3-0.1-0.6-0.2-1-0.3c-0.3-0.1-0.7-0.2-1-0.4c-0.3-0.1-0.6-0.3-0.8-0.5c-0.2-0.2-0.4-0.5-0.6-0.8
				s-0.2-0.7-0.2-1.2c0-0.5,0.1-0.9,0.3-1.3s0.4-0.7,0.7-0.9c0.3-0.2,0.7-0.4,1.1-0.5c0.4-0.1,0.8-0.2,1.2-0.2
				c0.6,0,1.1,0.1,1.6,0.3c0.5,0.2,0.9,0.5,1.3,1L836,297.6z"/>
		</g>
		<g>
			<path class="st1" d="M839.6,306.1h-1.2l4.4-10.2h1l4.4,10.2h-1.2l-1.1-2.7h-5.2L839.6,306.1z M841.1,302.5h4.4l-2.2-5.3
				L841.1,302.5z"/>
		</g>
		<g>
			<path class="st1" d="M851.5,305.1h4.7v0.9h-5.8v-10.2h1V305.1z"/>
		</g>
		<g>
			<path class="st1" d="M860.2,304.5L860.2,304.5l3.4-8.6h1.1l-4,10.2h-1l-3.9-10.2h1.1L860.2,304.5z"/>
		</g>
		<g>
			<path class="st1" d="M866.1,306.1h-1.2l4.4-10.2h1l4.4,10.2h-1.2l-1.1-2.7h-5.2L866.1,306.1z M867.6,302.5h4.4l-2.2-5.3
				L867.6,302.5z"/>
			<path class="st1" d="M876.7,295.9h3.4c0.6,0,1.3,0.1,1.9,0.3s1.2,0.5,1.7,1c0.5,0.4,0.9,1,1.2,1.6c0.3,0.6,0.5,1.4,0.5,2.2
				c0,0.9-0.2,1.6-0.5,2.2c-0.3,0.6-0.7,1.2-1.2,1.6c-0.5,0.4-1.1,0.7-1.7,1s-1.3,0.3-1.9,0.3h-3.4V295.9z M877.8,305.1h2
				c0.8,0,1.4-0.1,2-0.4c0.6-0.2,1-0.5,1.4-0.9c0.4-0.4,0.7-0.8,0.8-1.3c0.2-0.5,0.3-1,0.3-1.5c0-0.5-0.1-1-0.3-1.5
				c-0.2-0.5-0.5-0.9-0.8-1.3c-0.4-0.4-0.9-0.7-1.4-0.9c-0.6-0.2-1.2-0.4-2-0.4h-2V305.1z"/>
		</g>
		<g>
			<path class="st1" d="M898.2,301c0,0.8-0.1,1.5-0.4,2.1c-0.3,0.7-0.6,1.2-1.1,1.7c-0.5,0.5-1,0.8-1.7,1.1s-1.3,0.4-2.1,0.4
				c-0.8,0-1.5-0.1-2.1-0.4c-0.6-0.3-1.2-0.6-1.7-1.1c-0.5-0.5-0.8-1-1.1-1.7c-0.3-0.6-0.4-1.4-0.4-2.1s0.1-1.5,0.4-2.1
				c0.3-0.6,0.6-1.2,1.1-1.7c0.5-0.5,1-0.8,1.7-1.1c0.6-0.3,1.3-0.4,2.1-0.4c0.8,0,1.5,0.1,2.1,0.4s1.2,0.6,1.7,1.1
				c0.5,0.5,0.8,1,1.1,1.7C898.1,299.5,898.2,300.2,898.2,301z M897.1,301c0-0.6-0.1-1.1-0.3-1.7c-0.2-0.5-0.5-1-0.8-1.4
				s-0.8-0.7-1.3-1c-0.5-0.2-1.1-0.4-1.7-0.4c-0.7,0-1.2,0.1-1.8,0.4c-0.5,0.2-1,0.6-1.3,1c-0.4,0.4-0.6,0.9-0.8,1.4
				c-0.2,0.5-0.3,1.1-0.3,1.7c0,0.6,0.1,1.1,0.3,1.7c0.2,0.5,0.5,1,0.8,1.4c0.4,0.4,0.8,0.7,1.3,1c0.5,0.2,1.1,0.4,1.8,0.4
				c0.6,0,1.2-0.1,1.7-0.4c0.5-0.2,1-0.6,1.3-1s0.6-0.9,0.8-1.4C897,302.2,897.1,301.6,897.1,301z"/>
		</g>
		<g>
			<path class="st1" d="M902.1,306.1h-1v-10.2h3.1c1,0,1.8,0.2,2.4,0.7s0.9,1.1,0.9,2c0,0.7-0.2,1.3-0.7,1.8
				c-0.4,0.5-1.1,0.8-1.9,0.8l2.9,4.8h-1.3l-2.8-4.7h-1.7V306.1z M902.1,300.4h1.8c0.5,0,0.8,0,1.2-0.1c0.3-0.1,0.6-0.2,0.8-0.4
				c0.2-0.2,0.3-0.3,0.4-0.6c0.1-0.2,0.1-0.4,0.1-0.7c0-0.2,0-0.5-0.1-0.7c-0.1-0.2-0.2-0.4-0.4-0.6c-0.2-0.2-0.4-0.3-0.8-0.4
				c-0.3-0.1-0.7-0.1-1.2-0.1h-1.8V300.4z"/>
		</g>
		<g>
			<path class="st1" d="M920.9,306.1h-6.5v-1.2l4-4.1c0.2-0.2,0.3-0.3,0.5-0.5s0.3-0.4,0.4-0.5s0.2-0.4,0.3-0.6
				c0.1-0.2,0.1-0.4,0.1-0.7c0-0.3-0.1-0.5-0.2-0.7c-0.1-0.2-0.2-0.4-0.4-0.6c-0.2-0.2-0.4-0.3-0.6-0.4s-0.5-0.1-0.8-0.1
				c-0.5,0-1,0.1-1.3,0.4c-0.4,0.3-0.6,0.7-0.7,1.2l-1.1-0.1c0.1-0.8,0.5-1.3,1-1.8c0.5-0.4,1.2-0.6,2-0.6c0.4,0,0.8,0.1,1.2,0.2
				c0.4,0.1,0.7,0.3,1,0.5s0.5,0.5,0.7,0.8c0.2,0.3,0.3,0.7,0.3,1.2c0,0.4-0.1,0.8-0.2,1.1c-0.1,0.3-0.3,0.6-0.5,0.9
				s-0.4,0.6-0.7,0.8c-0.2,0.3-0.5,0.5-0.8,0.8l-3.2,3.2h5.3V306.1z"/>
		</g>
		<g>
			<path class="st1" d="M926.5,295.8c0.7,0,1.3,0.2,1.8,0.5c0.4,0.3,0.8,0.8,1,1.3c0.2,0.5,0.4,1.1,0.5,1.7c0.1,0.6,0.1,1.2,0.1,1.8
				c0,0.6,0,1.2-0.1,1.8s-0.3,1.2-0.5,1.7c-0.2,0.5-0.6,0.9-1,1.3c-0.4,0.3-1,0.5-1.8,0.5c-0.7,0-1.3-0.2-1.8-0.5
				c-0.4-0.3-0.8-0.8-1-1.3c-0.2-0.5-0.4-1.1-0.5-1.7s-0.1-1.2-0.1-1.8c0-0.6,0-1.2,0.1-1.8c0.1-0.6,0.3-1.2,0.5-1.7
				c0.2-0.5,0.6-0.9,1-1.3C925.2,295.9,925.8,295.8,926.5,295.8z M926.5,296.7c-0.6,0-1,0.1-1.3,0.4c-0.3,0.3-0.6,0.7-0.7,1.1
				c-0.2,0.4-0.3,0.9-0.3,1.4c0,0.5-0.1,0.9-0.1,1.3c0,0.4,0,0.9,0.1,1.3c0,0.5,0.1,1,0.3,1.4c0.2,0.4,0.4,0.8,0.7,1.1
				c0.3,0.3,0.8,0.4,1.3,0.4c0.6,0,1-0.1,1.3-0.4c0.3-0.3,0.6-0.7,0.7-1.1c0.2-0.4,0.3-0.9,0.3-1.4s0.1-0.9,0.1-1.3
				c0-0.4,0-0.9-0.1-1.3s-0.1-1-0.3-1.4c-0.2-0.4-0.4-0.8-0.7-1.1C927.5,296.9,927.1,296.7,926.5,296.7z"/>
		</g>
		<g>
			<path class="st1" d="M938.4,306.1H932v-1.2l4-4.1c0.2-0.2,0.3-0.3,0.5-0.5s0.3-0.4,0.4-0.5s0.2-0.4,0.3-0.6
				c0.1-0.2,0.1-0.4,0.1-0.7c0-0.3-0.1-0.5-0.2-0.7c-0.1-0.2-0.2-0.4-0.4-0.6c-0.2-0.2-0.4-0.3-0.6-0.4s-0.5-0.1-0.8-0.1
				c-0.5,0-1,0.1-1.3,0.4c-0.4,0.3-0.6,0.7-0.7,1.2l-1.1-0.1c0.1-0.8,0.5-1.3,1-1.8c0.5-0.4,1.2-0.6,2-0.6c0.4,0,0.8,0.1,1.2,0.2
				c0.4,0.1,0.7,0.3,1,0.5s0.5,0.5,0.7,0.8c0.2,0.3,0.3,0.7,0.3,1.2c0,0.4-0.1,0.8-0.2,1.1c-0.1,0.3-0.3,0.6-0.5,0.9
				s-0.4,0.6-0.7,0.8c-0.2,0.3-0.5,0.5-0.8,0.8l-3.2,3.2h5.3V306.1z"/>
		</g>
		<g>
			<path class="st1" d="M945.9,302.7h1.5v0.9h-1.5v2.4h-1v-2.4h-4.4v-1.2l4.1-6.6h1.3V302.7z M944.8,297L944.8,297l-3.5,5.8h3.5V297
				z"/>
		</g>
		<g>
			<path class="st1" d="M809.5,313.1h3.4c0.6,0,1.3,0.1,1.9,0.3s1.2,0.5,1.7,1c0.5,0.4,0.9,1,1.2,1.6c0.3,0.6,0.5,1.4,0.5,2.2
				c0,0.9-0.2,1.6-0.5,2.2c-0.3,0.6-0.7,1.2-1.2,1.6c-0.5,0.4-1.1,0.7-1.7,1s-1.3,0.3-1.9,0.3h-3.4V313.1z M810.5,322.3h2
				c0.8,0,1.4-0.1,2-0.4c0.6-0.2,1-0.5,1.4-0.9c0.4-0.4,0.7-0.8,0.8-1.3c0.2-0.5,0.3-1,0.3-1.5c0-0.5-0.1-1-0.3-1.5
				c-0.2-0.5-0.5-0.9-0.8-1.3c-0.4-0.4-0.9-0.7-1.4-0.9c-0.6-0.2-1.2-0.4-2-0.4h-2V322.3z"/>
		</g>
		<g>
			<path class="st1" d="M825.4,319.9h1.5v0.9h-1.5v2.4h-1v-2.4H820v-1.2l4.1-6.6h1.3V319.9z M824.4,314.2L824.4,314.2l-3.5,5.8h3.5
				V314.2z"/>
		</g>
		<g>
			<path class="st1" d="M835.2,323.3h-6.5v-1.2l4-4.1c0.2-0.2,0.3-0.3,0.5-0.5s0.3-0.4,0.4-0.5s0.2-0.4,0.3-0.6
				c0.1-0.2,0.1-0.4,0.1-0.7c0-0.3-0.1-0.5-0.2-0.7c-0.1-0.2-0.2-0.4-0.4-0.6c-0.2-0.2-0.4-0.3-0.6-0.4s-0.5-0.1-0.8-0.1
				c-0.5,0-1,0.1-1.3,0.4c-0.4,0.3-0.6,0.7-0.7,1.2l-1.1-0.1c0.1-0.8,0.5-1.3,1-1.8c0.5-0.4,1.2-0.6,2-0.6c0.4,0,0.8,0.1,1.2,0.2
				c0.4,0.1,0.7,0.3,1,0.5s0.5,0.5,0.7,0.8c0.2,0.3,0.3,0.7,0.3,1.2c0,0.4-0.1,0.8-0.2,1.1c-0.1,0.3-0.3,0.6-0.5,0.9
				s-0.4,0.6-0.7,0.8c-0.2,0.3-0.5,0.5-0.8,0.8l-3.2,3.2h5.3V323.3z"/>
		</g>
		<g>
			<path class="st1" d="M842.6,319.9h1.5v0.9h-1.5v2.4h-1v-2.4h-4.4v-1.2l4.1-6.6h1.3V319.9z M841.6,314.2L841.6,314.2l-3.5,5.8h3.5
				V314.2z"/>
			<path class="st1" d="M849.4,313c0.7,0,1.3,0.2,1.8,0.5c0.4,0.3,0.8,0.8,1,1.3c0.2,0.5,0.4,1.1,0.5,1.7c0.1,0.6,0.1,1.2,0.1,1.8
				c0,0.6,0,1.2-0.1,1.8s-0.3,1.2-0.5,1.7c-0.2,0.5-0.6,0.9-1,1.3c-0.4,0.3-1,0.5-1.8,0.5c-0.7,0-1.3-0.2-1.8-0.5
				c-0.4-0.3-0.8-0.8-1-1.3c-0.2-0.5-0.4-1.1-0.5-1.7s-0.1-1.2-0.1-1.8c0-0.6,0-1.2,0.1-1.8c0.1-0.6,0.3-1.2,0.5-1.7
				c0.2-0.5,0.6-0.9,1-1.3C848.1,313.1,848.7,313,849.4,313z M849.4,313.9c-0.6,0-1,0.1-1.3,0.4c-0.3,0.3-0.6,0.7-0.7,1.1
				c-0.2,0.4-0.3,0.9-0.3,1.4c0,0.5-0.1,0.9-0.1,1.3c0,0.4,0,0.9,0.1,1.3c0,0.5,0.1,1,0.3,1.4c0.2,0.4,0.4,0.8,0.7,1.1
				c0.3,0.3,0.8,0.4,1.3,0.4c0.6,0,1-0.1,1.3-0.4c0.3-0.3,0.6-0.7,0.7-1.1c0.2-0.4,0.3-0.9,0.3-1.4s0.1-0.9,0.1-1.3
				c0-0.4,0-0.9-0.1-1.3s-0.1-1-0.3-1.4c-0.2-0.4-0.4-0.8-0.7-1.1C850.4,314.1,850,313.9,849.4,313.9z"/>
		</g>
		<g>
			<path class="st1" d="M864.5,313.1h3.4c0.6,0,1.3,0.1,1.9,0.3s1.2,0.5,1.7,1c0.5,0.4,0.9,1,1.2,1.6c0.3,0.6,0.5,1.4,0.5,2.2
				c0,0.9-0.2,1.6-0.5,2.2c-0.3,0.6-0.7,1.2-1.2,1.6c-0.5,0.4-1.1,0.7-1.7,1s-1.3,0.3-1.9,0.3h-3.4V313.1z M865.5,322.3h2
				c0.8,0,1.4-0.1,2-0.4c0.6-0.2,1-0.5,1.4-0.9c0.4-0.4,0.7-0.8,0.8-1.3c0.2-0.5,0.3-1,0.3-1.5c0-0.5-0.1-1-0.3-1.5
				c-0.2-0.5-0.5-0.9-0.8-1.3c-0.4-0.4-0.9-0.7-1.4-0.9c-0.6-0.2-1.2-0.4-2-0.4h-2V322.3z"/>
			<path class="st1" d="M880.4,319.9h1.5v0.9h-1.5v2.4h-1v-2.4H875v-1.2l4.1-6.6h1.3V319.9z M879.4,314.2L879.4,314.2l-3.5,5.8h3.5
				V314.2z"/>
			<path class="st1" d="M890.1,323.3h-6.5v-1.2l4-4.1c0.2-0.2,0.3-0.3,0.5-0.5s0.3-0.4,0.4-0.5s0.2-0.4,0.3-0.6
				c0.1-0.2,0.1-0.4,0.1-0.7c0-0.3-0.1-0.5-0.2-0.7c-0.1-0.2-0.2-0.4-0.4-0.6c-0.2-0.2-0.4-0.3-0.6-0.4s-0.5-0.1-0.8-0.1
				c-0.5,0-1,0.1-1.3,0.4c-0.4,0.3-0.6,0.7-0.7,1.2l-1.1-0.1c0.1-0.8,0.5-1.3,1-1.8c0.5-0.4,1.2-0.6,2-0.6c0.4,0,0.8,0.1,1.2,0.2
				c0.4,0.1,0.7,0.3,1,0.5s0.5,0.5,0.7,0.8c0.2,0.3,0.3,0.7,0.3,1.2c0,0.4-0.1,0.8-0.2,1.1c-0.1,0.3-0.3,0.6-0.5,0.9
				s-0.4,0.6-0.7,0.8c-0.2,0.3-0.5,0.5-0.8,0.8l-3.2,3.2h5.3V323.3z"/>
			<path class="st1" d="M898.1,314.1H894l-0.1,3.1c0.2-0.1,0.4-0.1,0.7-0.2s0.5-0.1,0.7-0.1c0.5,0,0.9,0.1,1.3,0.2
				c0.4,0.2,0.7,0.4,1,0.7c0.3,0.3,0.5,0.6,0.7,1c0.2,0.4,0.2,0.8,0.2,1.3c0,0.5-0.1,0.9-0.3,1.3c-0.2,0.4-0.4,0.8-0.7,1
				s-0.7,0.5-1.1,0.7c-0.4,0.2-0.9,0.2-1.4,0.2c-0.6,0-1.2-0.2-1.7-0.5c-0.5-0.3-0.9-0.8-1.2-1.3l1-0.4c0.2,0.4,0.5,0.7,0.8,1
				s0.7,0.4,1.2,0.4c0.3,0,0.6-0.1,0.9-0.2c0.3-0.1,0.5-0.3,0.7-0.5c0.2-0.2,0.4-0.4,0.5-0.7s0.2-0.6,0.2-0.9c0-0.4-0.1-0.7-0.2-1
				c-0.1-0.3-0.3-0.6-0.5-0.8c-0.2-0.2-0.5-0.4-0.8-0.5c-0.3-0.1-0.6-0.2-1-0.2s-0.7,0-1.1,0.2c-0.4,0.1-0.7,0.2-1,0.4l0.1-5.3h5.2
				V314.1z"/>
			<path class="st1" d="M904,313c0.7,0,1.3,0.2,1.8,0.5c0.4,0.3,0.8,0.8,1,1.3c0.2,0.5,0.4,1.1,0.5,1.7c0.1,0.6,0.1,1.2,0.1,1.8
				c0,0.6,0,1.2-0.1,1.8s-0.3,1.2-0.5,1.7c-0.2,0.5-0.6,0.9-1,1.3c-0.4,0.3-1,0.5-1.8,0.5c-0.7,0-1.3-0.2-1.8-0.5
				c-0.4-0.3-0.8-0.8-1-1.3c-0.2-0.5-0.4-1.1-0.5-1.7s-0.1-1.2-0.1-1.8c0-0.6,0-1.2,0.1-1.8c0.1-0.6,0.3-1.2,0.5-1.7
				c0.2-0.5,0.6-0.9,1-1.3C902.7,313.1,903.2,313,904,313z M904,313.9c-0.6,0-1,0.1-1.3,0.4c-0.3,0.3-0.6,0.7-0.7,1.1
				c-0.2,0.4-0.3,0.9-0.3,1.4c0,0.5-0.1,0.9-0.1,1.3c0,0.4,0,0.9,0.1,1.3c0,0.5,0.1,1,0.3,1.4c0.2,0.4,0.4,0.8,0.7,1.1
				c0.3,0.3,0.8,0.4,1.3,0.4c0.6,0,1-0.1,1.3-0.4c0.3-0.3,0.6-0.7,0.7-1.1c0.2-0.4,0.3-0.9,0.3-1.4s0.1-0.9,0.1-1.3
				c0-0.4,0-0.9-0.1-1.3s-0.1-1-0.3-1.4c-0.2-0.4-0.4-0.8-0.7-1.1C905,314.1,904.5,313.9,904,313.9z"/>
		</g>
		<line class="st3" x1="798.7" y1="257.4" x2="798.7" y2="326"/>
	</g>
	<g>
		<g>
			<path class="st1" d="M865.4,319.1h-3.7v-0.9h3.7V319.1z"/>
		</g>
	</g>
</g>
<g>
	<g>
		<path class="st0" d="M1145.6,210.8h10.3v2h-12.6v-22.2h2.3V210.8z"/>
		<path class="st0" d="M1161,212.8h-2.5l9.6-22.2h2.2l9.5,22.2h-2.5l-2.4-5.8h-11.5L1161,212.8z M1164.2,204.9h9.8l-4.9-11.8
			L1164.2,204.9z"/>
	</g>
	<g>
		<path class="st0" d="M1178.8,239.1l-10.8,1.6c0-3.8-1.9-8.3-7.1-8.3c-4.9,0-8.6,4.3-8.6,11.2c0,7.9,4.9,11.2,10,11.2
			c5.3,0,8.6-3.8,9.8-5.5l6.9,7.3c-2.4,3.3-7.8,8.4-17.1,8.4c-13,0-21.5-8.3-21.5-21.3c0-13.1,8.5-21.3,20.3-21.3
			C1174,222.3,1178.8,231.3,1178.8,239.1"/>
		<path class="st0" d="M1227.2,243.6c0,13.1-8.5,21.3-20.9,21.3c-12.3,0-20.9-8.2-20.9-21.3c0-13,8.5-21.2,20.9-21.2
			C1218.7,222.3,1227.2,230.5,1227.2,243.6 M1215.3,243.6c0-7.2-3.8-11.1-8.9-11.1c-5.1,0-8.9,3.9-8.9,11.1c0,7.2,3.8,11.2,8.9,11.2
			C1211.5,254.7,1215.3,250.8,1215.3,243.6"/>
		<path class="st0" d="M1274.9,264.4h-10.5l-10.6-14.7c-1.7-2.4-3.6-5.2-5.2-7.7l-0.4,0.2c0.3,1.3,0.3,4.2,0.3,7.6v14.7h-11.3v-41.6
			h9.3l11.9,16.3c1.8,2.5,4.3,6.7,5.2,8.2l0.4-0.2c-0.3-1.3-0.3-4.6-0.3-8v-16.3h11.3V264.4z"/>
		<polygon class="st0" points="1297.3,232.4 1297.3,239.9 1311.9,239.9 1311.9,249.1 1297.3,249.1 1297.3,264.4 1285.5,264.4 
			1285.5,222.8 1314.1,222.8 1314.1,232.4 		"/>
		<polygon class="st0" points="1334.4,232.4 1334.4,239.2 1349,239.2 1349,248.1 1334.4,248.1 1334.4,254.8 1351.8,254.8 
			1351.8,264.4 1322.6,264.4 1322.6,222.8 1351.8,222.8 1351.8,232.4 		"/>
	</g>
	<g>
		<path class="st1" d="M1146.5,282.6h-2.7v5.5c0,0.3,0,0.6,0.1,0.9c0.1,0.2,0.2,0.4,0.3,0.5c0.1,0.1,0.3,0.2,0.5,0.3
			s0.4,0.1,0.6,0.1c0.2,0,0.4,0,0.6-0.1c0.2-0.1,0.4-0.1,0.6-0.2l0.1,1.2c-0.2,0.1-0.5,0.2-0.8,0.2c-0.3,0-0.5,0.1-0.9,0.1
			c-0.3,0-0.5,0-0.8-0.1c-0.3-0.1-0.5-0.2-0.8-0.4s-0.4-0.4-0.6-0.8c-0.2-0.3-0.2-0.7-0.2-1.3v-5.9h-1.9v-1.1h1.9v-2.7h1.4v2.7h2.7
			V282.6z"/>
		<path class="st1" d="M1159.1,286.2c0,0.7-0.1,1.4-0.4,2c-0.2,0.6-0.6,1.1-1,1.6c-0.4,0.4-1,0.8-1.6,1c-0.6,0.2-1.3,0.4-2,0.4
			c-0.7,0-1.4-0.1-2-0.4c-0.6-0.2-1.1-0.6-1.6-1c-0.4-0.4-0.8-1-1-1.6c-0.2-0.6-0.4-1.3-0.4-2c0-0.7,0.1-1.4,0.4-2
			c0.2-0.6,0.6-1.1,1-1.6c0.4-0.4,1-0.8,1.6-1c0.6-0.2,1.3-0.4,2-0.4c0.7,0,1.4,0.1,2,0.4c0.6,0.2,1.1,0.6,1.6,1
			c0.4,0.4,0.8,1,1,1.6C1158.9,284.8,1159.1,285.5,1159.1,286.2z M1157.6,286.2c0-0.5-0.1-1-0.3-1.5c-0.2-0.5-0.4-0.9-0.7-1.2
			c-0.3-0.3-0.7-0.6-1.1-0.8c-0.4-0.2-0.9-0.3-1.5-0.3s-1,0.1-1.5,0.3c-0.4,0.2-0.8,0.5-1.1,0.8c-0.3,0.3-0.5,0.7-0.7,1.2
			c-0.2,0.5-0.3,1-0.3,1.5c0,0.5,0.1,1,0.3,1.5c0.2,0.5,0.4,0.9,0.7,1.2c0.3,0.3,0.7,0.6,1.1,0.8c0.4,0.2,0.9,0.3,1.5,0.3
			s1-0.1,1.5-0.3c0.4-0.2,0.8-0.5,1.1-0.8c0.3-0.3,0.5-0.7,0.7-1.2C1157.5,287.2,1157.6,286.7,1157.6,286.2z"/>
		<path class="st1" d="M1163.6,292.8c0.4,0.5,0.9,0.9,1.5,1.2c0.6,0.3,1.3,0.5,2.1,0.5c0.7,0,1.2-0.1,1.7-0.3
			c0.5-0.2,0.8-0.5,1.1-0.8c0.3-0.3,0.5-0.7,0.6-1.2c0.1-0.4,0.2-0.9,0.2-1.4V289h0c-0.4,0.6-0.9,1-1.5,1.4c-0.7,0.3-1.3,0.5-2,0.5
			c-0.7,0-1.4-0.1-2-0.4s-1.1-0.6-1.5-1c-0.4-0.4-0.8-0.9-1-1.5s-0.4-1.2-0.4-1.9c0-0.7,0.1-1.3,0.4-1.9s0.6-1.1,1-1.5
			c0.4-0.4,0.9-0.8,1.5-1s1.3-0.4,2-0.4c0.7,0,1.4,0.2,2,0.5c0.7,0.3,1.2,0.8,1.5,1.4h0v-1.6h1.4v9.3c0,0.5-0.1,1.1-0.2,1.6
			s-0.4,1.1-0.8,1.6c-0.4,0.5-0.9,0.9-1.6,1.2c-0.7,0.3-1.5,0.5-2.5,0.5c-0.9,0-1.7-0.2-2.5-0.5c-0.8-0.3-1.5-0.8-2-1.4
			L1163.6,292.8z M1163.9,286.1c0,0.5,0.1,1,0.2,1.4c0.2,0.4,0.4,0.8,0.7,1.2c0.3,0.3,0.7,0.6,1.1,0.8c0.4,0.2,0.9,0.3,1.5,0.3
			c0.5,0,1-0.1,1.4-0.3c0.4-0.2,0.8-0.4,1.1-0.7s0.6-0.7,0.8-1.2s0.3-0.9,0.3-1.5c0-0.5-0.1-1-0.3-1.4s-0.4-0.8-0.8-1.2
			s-0.7-0.6-1.1-0.8c-0.4-0.2-0.9-0.3-1.4-0.3c-0.6,0-1.1,0.1-1.5,0.3c-0.4,0.2-0.8,0.5-1.1,0.8c-0.3,0.3-0.5,0.7-0.7,1.2
			C1163.9,285.1,1163.9,285.6,1163.9,286.1z"/>
		<path class="st1" d="M1185.4,285.9c0,0.1,0,0.2,0,0.3c0,0.1,0,0.2,0,0.3h-7.8c0,0.5,0.1,0.9,0.3,1.3c0.2,0.4,0.4,0.8,0.7,1.1
			c0.3,0.3,0.7,0.6,1.1,0.7c0.4,0.2,0.9,0.3,1.3,0.3c0.7,0,1.3-0.2,1.8-0.5c0.5-0.3,0.9-0.7,1.2-1.1l1,0.8c-0.6,0.7-1.2,1.2-1.9,1.5
			s-1.4,0.5-2.2,0.5c-0.7,0-1.3-0.1-1.9-0.4c-0.6-0.2-1.1-0.6-1.5-1c-0.4-0.4-0.8-1-1-1.6c-0.2-0.6-0.4-1.3-0.4-2
			c0-0.7,0.1-1.4,0.4-2s0.6-1.1,1-1.6c0.4-0.4,0.9-0.8,1.5-1c0.6-0.2,1.2-0.4,1.9-0.4c0.7,0,1.4,0.1,1.9,0.4c0.6,0.2,1,0.6,1.4,1
			c0.4,0.4,0.7,0.9,0.9,1.5C1185.3,284.7,1185.4,285.3,1185.4,285.9z M1184.1,285.5c0-0.9-0.3-1.6-0.9-2.2c-0.5-0.6-1.3-0.9-2.3-0.9
			c-0.5,0-0.9,0.1-1.3,0.3c-0.4,0.2-0.7,0.4-1,0.7c-0.3,0.3-0.5,0.6-0.7,1c-0.2,0.4-0.3,0.8-0.3,1.2H1184.1z"/>
		<path class="st1" d="M1193.7,282.6h-2.7v5.5c0,0.3,0,0.6,0.1,0.9c0.1,0.2,0.2,0.4,0.3,0.5s0.3,0.2,0.5,0.3s0.4,0.1,0.6,0.1
			c0.2,0,0.4,0,0.6-0.1c0.2-0.1,0.4-0.1,0.6-0.2l0.1,1.2c-0.2,0.1-0.5,0.2-0.8,0.2s-0.5,0.1-0.9,0.1c-0.3,0-0.5,0-0.8-0.1
			c-0.3-0.1-0.5-0.2-0.8-0.4c-0.2-0.2-0.4-0.4-0.6-0.8c-0.2-0.3-0.2-0.7-0.2-1.3v-5.9h-1.9v-1.1h1.9v-2.7h1.4v2.7h2.7V282.6z"/>
		<path class="st1" d="M1198.4,283c0.3-0.5,0.7-1,1.3-1.3s1.2-0.5,1.9-0.5c1.2,0,2.1,0.4,2.7,1.1s0.9,1.6,0.9,2.8v5.8h-1.4v-5.2
			c0-0.5,0-0.9-0.1-1.3c-0.1-0.4-0.2-0.7-0.4-1c-0.2-0.3-0.5-0.5-0.8-0.7c-0.3-0.2-0.7-0.2-1.2-0.2c-0.4,0-0.7,0.1-1.1,0.2
			c-0.3,0.1-0.6,0.4-0.9,0.7c-0.3,0.3-0.5,0.7-0.6,1.1c-0.2,0.5-0.2,1-0.2,1.6v4.8h-1.4v-15.2h1.4L1198.4,283L1198.4,283z"/>
		<path class="st1" d="M1218.3,285.9c0,0.1,0,0.2,0,0.3c0,0.1,0,0.2,0,0.3h-7.8c0,0.5,0.1,0.9,0.3,1.3c0.2,0.4,0.4,0.8,0.7,1.1
			c0.3,0.3,0.7,0.6,1.1,0.7s0.9,0.3,1.3,0.3c0.7,0,1.3-0.2,1.8-0.5c0.5-0.3,0.9-0.7,1.2-1.1l1,0.8c-0.6,0.7-1.2,1.2-1.9,1.5
			s-1.4,0.5-2.2,0.5c-0.7,0-1.3-0.1-1.9-0.4c-0.6-0.2-1.1-0.6-1.5-1c-0.4-0.4-0.8-1-1-1.6c-0.2-0.6-0.4-1.3-0.4-2
			c0-0.7,0.1-1.4,0.4-2c0.2-0.6,0.6-1.1,1-1.6c0.4-0.4,0.9-0.8,1.5-1c0.6-0.2,1.2-0.4,1.9-0.4c0.7,0,1.4,0.1,1.9,0.4
			c0.6,0.2,1,0.6,1.4,1c0.4,0.4,0.7,0.9,0.9,1.5C1218.2,284.7,1218.3,285.3,1218.3,285.9z M1216.9,285.5c0-0.9-0.3-1.6-0.9-2.2
			c-0.5-0.6-1.3-0.9-2.3-0.9c-0.5,0-0.9,0.1-1.3,0.3c-0.4,0.2-0.7,0.4-1,0.7c-0.3,0.3-0.5,0.6-0.7,1c-0.2,0.4-0.3,0.8-0.3,1.2
			H1216.9z"/>
		<path class="st1" d="M1222.3,282.6c0-0.4,0-0.8-0.1-1.1h1.3c0,0.3,0,0.5,0.1,0.8c0,0.3,0,0.6,0,0.8h0c0.3-0.5,0.7-1,1.2-1.3
			c0.5-0.3,1.1-0.5,1.8-0.5c0.2,0,0.3,0,0.5,0s0.3,0,0.4,0.1l-0.2,1.3c-0.1,0-0.2-0.1-0.4-0.1c-0.2,0-0.4,0-0.6,0
			c-0.4,0-0.7,0.1-1,0.2c-0.3,0.1-0.6,0.3-0.9,0.6c-0.2,0.3-0.4,0.7-0.6,1.1c-0.2,0.4-0.2,1-0.2,1.6v4.8h-1.4v-7.3
			C1222.3,283.3,1222.3,283,1222.3,282.6z"/>
		<path class="st1" d="M1237,281.5l2.3,7.6h0l2.5-7.6h1.3l2.6,7.6h0l2.2-7.6h1.4l-3,9.4h-1.5l-2.5-7.6h0l-2.5,7.6h-1.5l-3-9.4H1237z
			"/>
		<path class="st1" d="M1261.4,285.9c0,0.1,0,0.2,0,0.3c0,0.1,0,0.2,0,0.3h-7.8c0,0.5,0.1,0.9,0.3,1.3c0.2,0.4,0.4,0.8,0.7,1.1
			c0.3,0.3,0.7,0.6,1.1,0.7s0.9,0.3,1.3,0.3c0.7,0,1.3-0.2,1.8-0.5c0.5-0.3,0.9-0.7,1.2-1.1l1,0.8c-0.6,0.7-1.2,1.2-1.9,1.5
			s-1.4,0.5-2.2,0.5c-0.7,0-1.3-0.1-1.9-0.4c-0.6-0.2-1.1-0.6-1.5-1c-0.4-0.4-0.8-1-1-1.6c-0.2-0.6-0.4-1.3-0.4-2
			c0-0.7,0.1-1.4,0.4-2c0.2-0.6,0.6-1.1,1-1.6c0.4-0.4,0.9-0.8,1.5-1c0.6-0.2,1.2-0.4,1.9-0.4c0.7,0,1.4,0.1,1.9,0.4
			c0.6,0.2,1,0.6,1.4,1c0.4,0.4,0.7,0.9,0.9,1.5C1261.3,284.7,1261.4,285.3,1261.4,285.9z M1260,285.5c0-0.9-0.3-1.6-0.9-2.2
			c-0.5-0.6-1.3-0.9-2.3-0.9c-0.5,0-0.9,0.1-1.3,0.3c-0.4,0.2-0.7,0.4-1,0.7c-0.3,0.3-0.5,0.6-0.7,1c-0.2,0.4-0.3,0.8-0.3,1.2H1260z
			"/>
	</g>
	<g>
		<path class="st0" d="M1394.9,264.9h-31.1v-5.2l19.9-20.1c0.7-0.7,1.5-1.5,2.2-2.4c0.7-0.8,1.3-1.7,1.9-2.6c0.5-0.9,1-1.9,1.3-2.9
			c0.3-1,0.5-2.1,0.5-3.2c0-1.4-0.3-2.7-0.8-3.9c-0.5-1.1-1.2-2.1-2.1-2.9c-0.9-0.8-1.9-1.4-3.1-1.9c-1.2-0.4-2.4-0.7-3.7-0.7
			c-2.6,0-4.8,0.8-6.6,2.4c-1.8,1.6-2.9,3.7-3.4,6.2l-4.9-1c0.3-1.7,0.9-3.3,1.8-4.7c0.9-1.5,2-2.7,3.3-3.8c1.3-1.1,2.8-1.9,4.4-2.5
			c1.6-0.6,3.4-0.9,5.4-0.9c2,0,3.8,0.3,5.6,0.9c1.8,0.6,3.3,1.4,4.6,2.5c1.3,1.1,2.4,2.5,3.2,4.2c0.8,1.7,1.2,3.6,1.2,5.8
			c0,1.6-0.2,3-0.7,4.3c-0.4,1.3-1,2.6-1.7,3.8c-0.7,1.2-1.5,2.3-2.5,3.4c-1,1.1-2,2.1-3,3.2l-17.5,17.4h25.8V264.9z"/>
		<path class="st0" d="M1430.3,239.2c2.7,0.8,4.9,2.3,6.6,4.6c1.7,2.3,2.6,5.1,2.6,8.4c0,2.2-0.4,4.1-1.3,5.8
			c-0.8,1.7-2,3.2-3.4,4.4c-1.4,1.2-3.1,2.2-5,2.8c-1.9,0.7-3.9,1-5.9,1s-4-0.3-5.9-1c-1.9-0.7-3.6-1.6-5-2.8
			c-1.4-1.2-2.6-2.7-3.4-4.4c-0.8-1.7-1.3-3.7-1.3-5.8c0-1.6,0.2-3.2,0.7-4.6c0.5-1.4,1.1-2.7,1.9-3.8c0.8-1.1,1.8-2.1,2.9-2.9
			c1.1-0.8,2.3-1.4,3.7-1.8V239c-1.1-0.4-2.1-0.9-3-1.6c-0.9-0.7-1.7-1.6-2.3-2.5c-0.6-1-1.1-2.1-1.5-3.2c-0.4-1.2-0.5-2.4-0.5-3.6
			c0-2,0.4-3.8,1.1-5.4c0.7-1.6,1.7-3,3-4.1c1.3-1.1,2.7-2,4.4-2.6c1.6-0.6,3.4-0.9,5.3-0.9c1.8,0,3.6,0.3,5.3,0.9
			c1.7,0.6,3.1,1.5,4.4,2.6c1.3,1.1,2.3,2.5,3,4.1c0.7,1.6,1.1,3.4,1.1,5.4c0,1.2-0.2,2.4-0.5,3.6c-0.4,1.2-0.9,2.2-1.5,3.2
			c-0.6,1-1.4,1.8-2.3,2.5c-0.9,0.7-1.9,1.2-3,1.6V239.2z M1413.3,251.6c0,1.5,0.3,2.8,0.8,4.1c0.5,1.3,1.2,2.4,2.2,3.3
			c0.9,0.9,2.1,1.6,3.4,2.2c1.3,0.5,2.8,0.8,4.4,0.8s3.1-0.3,4.4-0.8c1.3-0.5,2.4-1.2,3.4-2.2c0.9-0.9,1.7-2,2.2-3.3
			c0.5-1.3,0.8-2.7,0.8-4.1c0-1.5-0.3-2.8-0.8-4.1c-0.5-1.2-1.2-2.3-2.2-3.2c-0.9-0.9-2.1-1.6-3.4-2.1c-1.3-0.5-2.8-0.8-4.4-0.8
			s-3.1,0.3-4.4,0.8c-1.3,0.5-2.4,1.2-3.4,2.1c-0.9,0.9-1.7,2-2.2,3.2C1413.5,248.8,1413.3,250.1,1413.3,251.6z M1415,228.3
			c0,1.3,0.2,2.5,0.7,3.5c0.5,1.1,1.1,2,1.9,2.8c0.8,0.8,1.8,1.4,2.9,1.8c1.1,0.4,2.2,0.7,3.5,0.7s2.4-0.2,3.5-0.7
			c1.1-0.4,2-1,2.9-1.8c0.8-0.8,1.5-1.7,1.9-2.8c0.5-1.1,0.7-2.2,0.7-3.5c0-1.3-0.2-2.5-0.7-3.6c-0.5-1.1-1.1-2.1-1.9-2.9
			c-0.8-0.8-1.7-1.4-2.8-1.9c-1.1-0.5-2.3-0.7-3.5-0.7s-2.5,0.2-3.5,0.7c-1.1,0.5-2,1.1-2.8,1.9c-0.8,0.8-1.4,1.8-1.9,2.9
			C1415.2,225.8,1415,227,1415,228.3z"/>
	</g>
	<g>
		<path class="st5" d="M1270.6,288.5c0.1-0.9,0.3-1.7,0.6-2.4c0.4-0.9,0.8-1.2,1.2-0.8c0.2,0.1,0.2,0.3,0,0.7
			c-0.4,1.2-0.7,2.3-0.8,3.2c0,0.7,0.3,1,0.7,1c0.5,0,0.9-0.1,1.4-0.3c0.9-0.4,2.2-1.4,3.9-3c0.5-0.5,1.1-1,1.7-1.3
			c0.3-0.1,0.4,0,0.5,0.2c0,0.3,0,0.5-0.1,0.7c-0.4,0.5-0.8,0.9-1.3,1.3c-1.1,1-2.3,2-3.5,2.8c-1,0.7-2,0.9-3.1,0.7
			c-0.3-0.1-0.5-0.2-0.7-0.4C1270.6,290.2,1270.4,289.4,1270.6,288.5z M1273.4,281c0.2-0.3,0.4-0.4,0.6-0.2c0.4,0.2,0.4,0.7,0,1.5
			c-0.5,0.8-0.9,1-1.2,0.5C1272.7,282.3,1272.9,281.7,1273.4,281z"/>
		<path class="st5" d="M1283.8,289.2c0.1-0.6,0.1-1.2,0.2-1.7c0-0.2,0-0.4,0-0.5s0-0.2-0.1-0.2c-0.5,0-1.5,0.8-3.2,2.4
			c-0.7,0.7-1.2,1.1-1.5,1.4s-0.5,0.4-0.7,0.3c-0.4,0-0.5-0.2-0.5-0.5s0.2-1.1,0.5-2.3c0.4-1.4,0.7-2.3,0.9-2.7s0.5-0.4,0.7-0.1
			c0.1,0.1,0.1,0.3,0.1,0.5s-0.1,0.7-0.3,1.3l-0.4,1.5l1.1-1c1.5-1.4,2.6-2,3.4-2c1.2,0,1.5,1,1,2.9c-0.2,1.3,0,1.8,0.6,1.5
			c1.2-0.4,2.7-1.4,4.7-3.2c1-1,1.6-1.2,1.9-0.7c0.1,0.2,0.1,0.4,0,0.6c-0.2,0.2-0.6,0.7-1.2,1.2c-3.3,3-5.6,4-6.8,2.9
			C1283.9,290.4,1283.7,289.9,1283.8,289.2z"/>
		<path class="st5" d="M1290.6,291.5l0.8-0.5l0-2.2c-0.2-1.1,0-2.1,0.4-3c0.2-0.3,0.5-0.6,1-0.9c0.5-0.3,0.9-0.3,1.2,0
			c0.2,0.2,0.2,0.4,0,0.6c-0.2,0.2-0.4,0.3-0.6,0.4c-0.5,0.4-0.8,1-0.8,1.7c0,0.7,0,1.4,0.1,2l0.1,0.7l0.6-0.4
			c2.1-1.2,4.5-2.4,7.1-3.6c0.9-0.4,1.5-0.6,1.8-0.7c0.4-0.1,0.6,0,0.7,0.2c0.3,0.4-0.1,0.8-1,1.1c-4.4,2-7.8,3.9-10.3,5.7
			c-0.7,0.7-1.3,0.9-1.8,0.6C1289.4,292.8,1289.6,292.2,1290.6,291.5z"/>
		<path class="st5" d="M1314.6,285c0.4-0.1,0.5,0.1,0.5,0.5c0,0.4-0.3,0.6-0.8,0.6c-2.2,0.5-4,1.1-5.6,1.6c-0.9,0.2-1.5,0.7-1.8,1.5
			c-0.9,1.6-1.8,2.7-2.5,3.3c-0.6,0.3-1.1,0.4-1.5,0.2c-0.4-0.2-0.6-0.6-0.6-1.2c0-1.1,1.1-2.3,3.4-3.7c0.5-0.3,0.7-0.5,0.8-0.8
			c0.1-0.2,0.1-0.5,0.1-0.9c0-0.3-0.2-0.5-0.5-0.5c-0.4,0.1-0.7,0.3-1,0.6c-0.6,0.6-1.1,1.2-1.5,1.9c-0.8,1.1-1.4,2.3-2,3.5
			c-0.6,1.1-1.2,2.9-1.8,5.5c-0.2,0.7-0.3,1.3-0.5,1.8c-0.1,0.5-0.3,0.8-0.3,0.9c-0.3,0.3-0.6,0.3-0.9,0c-0.1-0.2-0.2-0.4-0.2-0.6
			c0-0.2,0.1-0.5,0.2-1.1s0.3-1.3,0.6-2.2c0.2-0.8,0.5-1.7,0.9-2.7c0.4-1.4,0.8-2.6,1.1-3.7c0.6-2.2,1-3.6,1.4-4.3
			c0.3-0.4,0.6-0.5,0.9-0.1c0.1,0.1,0.1,0.3,0.1,0.5c0,0.2-0.2,0.8-0.6,1.6c0.8-1,1.4-1.6,2-2c0.6-0.4,1-0.6,1.3-0.7
			c1.4-0.2,2.1,0.4,2.1,1.7v0.6l1.8-0.6C1312.2,285.4,1313.9,285,1314.6,285z M1305.2,289.8c0.1-0.2-0.1-0.1-0.5,0.2
			c-0.3,0.2-0.6,0.5-0.9,0.9c-0.3,0.4-0.5,0.6-0.5,0.7c0,0.1,0.1,0.1,0.3-0.1c0.2-0.1,0.5-0.4,0.8-0.8
			C1304.9,290.3,1305.2,289.9,1305.2,289.8z"/>
		<path class="st5" d="M1313.7,288.5c0.1-0.9,0.3-1.7,0.6-2.4c0.4-0.9,0.8-1.2,1.2-0.8c0.2,0.1,0.2,0.3,0,0.7
			c-0.4,1.2-0.7,2.3-0.8,3.2c0,0.7,0.3,1,0.7,1c0.5,0,0.9-0.1,1.4-0.3c0.9-0.4,2.2-1.4,3.9-3c0.5-0.5,1.1-1,1.7-1.3
			c0.3-0.1,0.4,0,0.5,0.2c0,0.3,0,0.5-0.1,0.7c-0.4,0.5-0.8,0.9-1.3,1.3c-1.1,1-2.3,2-3.5,2.8c-1,0.7-2,0.9-3.1,0.7
			c-0.3-0.1-0.5-0.2-0.7-0.4C1313.7,290.2,1313.5,289.4,1313.7,288.5z M1316.5,281c0.2-0.3,0.4-0.4,0.6-0.2c0.4,0.2,0.4,0.7,0,1.5
			c-0.5,0.8-0.9,1-1.2,0.5C1315.8,282.3,1316,281.7,1316.5,281z"/>
		<path class="st5" d="M1321.2,289.5c0.3-1.2,0.7-2.3,1.1-3.5c0.1-0.2,0.1-0.4,0.2-0.6c0.1-0.2,0.3-0.3,0.5-0.3
			c0.5,0,0.5,0.8,0.1,2.3c-0.1,0.2,0.2,0,0.8-0.6c0.6-0.6,1.2-1.1,2-1.4c0.5-0.1,0.9-0.1,1.4,0c0.8,0.4,1.5,0.7,2.3,1
			c0.6,0.1,1.1,0,1.6-0.4c0.6-0.4,1.1-0.4,1.3-0.2c0.3,0.2,0.1,0.6-0.3,1c-1.3,1.1-2.7,1.2-4.1,0.4c-1-0.7-1.9-0.7-2.6,0
			c-1.1,1-2.1,2.2-2.9,3.5c-0.2,0.4-0.4,0.8-0.7,1.1c-0.3,0.2-0.6,0.2-0.7-0.1C1320.9,290.9,1320.9,290.2,1321.2,289.5z"/>
		<path class="st5" d="M1340.7,286.7c0.9-0.6,1.5-1,1.9-1.1c0.4-0.1,0.6,0,0.6,0.3c0,0.3-0.5,0.7-1.4,1.4c-0.9,0.7-1.9,1.4-3.1,2.1
			c-1.2,0.7-2.2,1.2-3.1,1.5c-1.8,0.6-3.1,0.6-3.9,0c-1.2-1.2-1-2.8,0.6-4.8c0.4-0.4,0.9-0.8,1.7-1.1c0.8-0.3,1.3-0.1,1.6,0.7
			c0.1,0.6-0.1,1.2-0.6,1.7c-0.5,0.6-1.2,1-2,1.1c-0.6,0-0.8,0.2-0.8,0.5c0,0.6,0.3,1,1,1.2C1334.8,290.2,1337.3,289,1340.7,286.7z
			 M1334.1,286.1c-0.3,0-0.7,0.4-1.3,1.1c0,0.1,0.1,0.2,0.4,0.1c0.3-0.1,0.5-0.2,0.7-0.4c0.3-0.3,0.4-0.5,0.4-0.6
			C1334.4,286.2,1334.3,286.1,1334.1,286.1z"/>
	</g>
</g>
<g>
	<g>
		<text transform="matrix(0.9445 0 0 1 1670.9075 257.0244)"><tspan x="0" y="0" class="st0" style="font-family:'AvenirNext-Regular'; font-size:41.4275px;">LA</tspan><tspan x="50.1" y="0" class="st0" style="font-family:'AvenirNext-Regular'; font-size:40.5511px;"> </tspan><tspan x="60.3" y="0" class="st0" style="font-family:'LemonMilkbold'; font-size:40.5511px; letter-spacing:3.2;">CONFE </tspan><tspan x="242" y="0" class="st0" style="font-family:'AvenirNext-Regular'; font-size:45.3113px;">28</tspan></text>
	</g>
	<g>
		<g>
			
				<text transform="matrix(0.9445 0 0 1 1707.2034 283.9722)" class="st1" style="font-family:'AvenirNext-Regular'; font-size:23.303px; letter-spacing:1.1;">together we </text>
		</g>
		
			<text transform="matrix(0.9445 0 0 1 1846.8079 294.1751)" class="st2" style="font-family:'ManlySignature'; font-size:49.1952px;">lead</text>
	</g>
</g>
</svg>
