<?xml version="1.0" encoding="UTF-8"?><svg id="Layer_1" xmlns="http://www.w3.org/2000/svg" viewBox="0 0 750 750"><defs><style>.cls-1{stroke:#fff;}.cls-1,.cls-2,.cls-3{stroke-width:.86px;}.cls-1,.cls-2,.cls-3,.cls-4{fill:none;stroke-miterlimit:10;}.cls-2,.cls-4{stroke:#223147;}.cls-3{stroke:#81450f;}.cls-5,.cls-6,.cls-7{fill:#fb6c6b;}.cls-8,.cls-9{fill:#f29031;}.cls-10{fill:#fff;}.cls-11{fill:#fdb747;}.cls-12,.cls-13{fill:#81450f;}.cls-14{fill:#c5bbd1;}.cls-15,.cls-16{fill:#223147;}.cls-17{fill:#135995;}.cls-18{fill:#1982a5;}.cls-19{fill:#06a28a;}.cls-20{fill:#62cde6;}.cls-4{stroke-width:.65px;}.cls-13{opacity:.33;}.cls-6{opacity:.17;}.cls-21{opacity:.49;}.cls-7{opacity:.57;}.cls-16{opacity:.31;}.cls-9{opacity:.43;}</style></defs><rect class="cls-14" x="-5.46" width="760.91" height="760.91"/><g><ellipse class="cls-6" cx="171.76" cy="652.19" rx="99.29" ry="18.66"/><g><path class="cls-12" d="M252.5,312.01s-2.65-5.88,4.26-11.02l3.67,4.26-7.94,6.76Z"/><path class="cls-15" d="M163.52,389.28s-25.29,17.04-22.12,47.2c0,0,34.77,2.59,53.55,13.06,0,0,26.95-11.19,33.59-11.4l-2.06-18.38s-56.42-33.63-62.96-30.47Z"/><path class="cls-15" d="M222.73,509.54s-29.76,.91-74.4,61.69l8.79,11.3s87.96-43.46,90.91-58.36c2.94-14.9-25.3-14.64-25.3-14.64Z"/><path class="cls-15" d="M228.77,438.53s25.59,57.54,22.44,75.47c-3.14,17.93-12.63,23.09-19.95,26.57-7.31,3.47-39.43-96-39.43-96,0,0,28.39-17.92,36.93-6.04Z"/><path class="cls-8" d="M189.21,617.25s-12.92,9.52-7.76,16.16c5.16,6.64,16.97,5.9,18.44,18.44,1.48,12.54,19.92,16.23,27.29,10.33,0,0-.74,.74-10.33-11.8-9.59-12.54-13.55-30.62-13.55-30.62l-14.1-2.5Z"/><path class="cls-15" d="M219.61,653.91c-1.4,.08-2.88-.33-4.19-1.44-10.93-9.23-19.61-20.52-28.6-31.56-.27-.34-.49-.68-.67-1.03-3.45,3.3-8.16,9.07-4.69,13.53,5.16,6.64,16.97,5.9,18.44,18.44,1.48,12.54,19.92,16.23,27.29,10.33,0,0-.61,.56-7.58-8.26Z"/><path class="cls-8" d="M152.09,569.11s-15.38-4.6-17.58,3.52c-2.2,8.12,5.48,17.11-3.65,25.82-9.13,8.72-1,25.67,8.15,28.02,0,0-1.03-.15,3.22-15.35,4.26-15.2,16.33-29.24,16.33-29.24l-6.47-12.77Z"/><path class="cls-15" d="M141.87,612.46c-3.1-.38-5.95-3-4.82-6.86,3.7-12.62,9.57-24.44,14.17-36.72-3.26-.82-14.81-3.21-16.7,3.75-2.2,8.12,5.48,17.11-3.65,25.82-9.13,8.72-1,25.67,8.15,28.02,0,0-.95-.18,2.86-14.01Z"/><path class="cls-18" d="M243.41,325.5s-20.37-14.11-22.61-14.78c-2.24-.67-20.7,22.06-24.9,52.45l-32.38,26.12s29.12,33.76,60.1,33.52l18.51-21.25s21.22-5.84,21.23-28.72l15.7-16.73-17.38-12.73s-14.03-.29-18.28-17.87Z"/><path class="cls-8" d="M224.97,345s13.28,2.21,14.01,20.65c0,0,14.82-4.09,24.38,7.18l15.7-16.73-17.38-12.73s-13.85,.16-17.54-20.49l-23.35-12.16,4.17,34.28Z"/><path class="cls-8" d="M192.75,322.13s-49.42,6.64-50.97,15.49c-1.54,8.85,6.95,20.65,57.14,6.64,0,0,14.67-14.01-6.18-22.13Z"/><path class="cls-8" d="M148.76,332.46s-15.12-1.6-27.06,62.27l11.14,5.59s53.32-61.47,15.92-67.86Z"/><path class="cls-8" d="M271.87,385.98s26.86,42.01,35.54,39.68c8.68-2.33,15.8-15.01-18.08-54.61,0,0-18.89-7.39-17.46,14.93Z"/><path class="cls-8" d="M299.78,421.52s4.93,14.38,67.87-1.73l.37-12.46s-73.61-12.47-68.24,14.18Z"/><path class="cls-8" d="M132.85,400.32s-6.72,14.75-11.88,15.49c-5.16,.74-17.7-7.38-17.7-7.38,0,0-7.38-14.75-5.16-16.97,2.21-2.21,7.38,11.06,11.06,11.8,3.69,.74,12.54-3.06,12.54-8.54,0,0,9.74,1.9,11.14,5.59Z"/><path class="cls-8" d="M368.03,407.33s11.11-9.22,18.48-8.49c7.38,.74,18.44,5.9,18.44,5.9,0,0-1.48,5.9-5.9,5.16-4.43-.74-13.28-2.95-16.23,.74-2.95,3.69-13.36,8.69-15.16,9.14s.37-12.46,.37-12.46Z"/><path class="cls-8" d="M367.66,419.79s25.49-.29,21.06-3.98c-4.43-3.69-9.59-2.95-9.59-2.95,0,0-11.89-.89-11.48,6.93Z"/><path class="cls-8" d="M255.95,308.3l-15.52,18.31s.44,13.93,15.92,19.63l20.44-15.36s-7.66-38.48-20.84-22.57Z"/><path class="cls-13" d="M256.78,329.55c-2.5,5.04-2.97,10.37-2.58,15.78,.69,.32,1.38,.63,2.14,.91l20.44-15.36s-2.39-11.99-6.79-19.82c-5.18,5.58-9.81,11.63-13.21,18.5Z"/><path class="cls-8" d="M313.41,269.52c-12.56-10.08-30.92-8.07-41,4.49-6.17,7.69-7.79,17.55-5.25,26.35-7.11,7.36-12.21,16.68-7.39,26.39,0,0,21.92,34.39,58.18-16.27h0c10.05-12.56,8.03-30.89-4.52-40.96Z"/><path class="cls-8" d="M271.03,298.33c-1.64,6.52-6.33,10.96-10.48,9.91-4.15-1.04-6.18-7.17-4.54-13.69,1.64-6.52,6.33-10.96,10.48-9.91,4.15,1.04,6.18,7.17,4.54,13.69Z"/><path class="cls-13" d="M268.31,297.65c-1.05,4.16-4.04,6.98-6.68,6.32-2.64-.67-3.94-4.57-2.9-8.73s4.04-6.98,6.68-6.32c2.64,.67,3.94,4.57,2.9,8.73Z"/><path class="cls-12" d="M266.49,284.64s11.81,6.59,2.39,22c0,0-.86,8.56,3.42,3.42,4.28-5.14,10.27-9.42,11.99-17.12,1.71-7.71,14.55-10.27,17.12-5.99,2.57,4.28,14.55,31.68,29.11,23.12,0,0,9.42-37.67-23.97-49.66,0,0-29.62-12.32-40.07,24.23Z"/><path class="cls-12" d="M291.14,259.55s1.71-19.69-22.26-19.69-43.66,7.71-45.38-17.98c-1.71-25.68-23.12,37.67,5.14,43.66,28.25,5.99,41.09-12.84,47.94,5.14,0,0,17.98,1.71,14.55-11.13Z"/><circle class="cls-18" cx="216.12" cy="324.35" r="22.87" transform="translate(-107.67 107.39) rotate(-22.5)"/><path class="cls-18" d="M194.73,317.71l-7.38,1.48s-.74,19.92,9.59,30.98l11.06-3.69s-11.8-15.49-13.28-28.77Z"/><path class="cls-18" d="M263,355.54c-6.82,7.45-5.97,19.35,1.91,26.56s19.8,7.02,26.63-.43c6.82-7.45,5.97-19.35-1.91-26.56s-19.8-7.02-26.63,.43Z"/><path class="cls-18" d="M295.5,373.42l4.36,5.18s-10.6,14.3-24.04,16.2l-5.72-8.8s16.95-4.15,25.4-12.58Z"/><path class="cls-15" d="M141.72,423.19s-14.17,41.78,56.31,100.05c0,0,27.93,19.78,33.7-7.71,0,0-36.25-72.65-44.81-86.4-8.55-13.75-34.76-25.46-45.21-5.94Z"/><path class="cls-15" d="M203.14,521.6s-21.49,20.61-13.94,95.64l14.1,2.5s36.22-91.18,28.42-104.22c-7.79-13.04-28.59,6.07-28.59,6.07Z"/><path class="cls-18" d="M171.05,384.2s-11.84,4.93-21.7,4.93-13.81,14.79,1.97,20.71c15.78,5.92,7.89,19.72,22.68,24.66,14.79,4.93,15.78-7.89,26.63,0,10.85,7.89,37.48,15.78,38.46,7.89s-2.96-17.75-9.86-25.64c0,0-34.52,0-58.19-32.55Z"/><g class="cls-21"><path class="cls-20" d="M197.52,520.19c-.52,1.29-12.58,31.87-9.53,46.63l1.64-.34c-2.95-14.26,9.32-45.35,9.44-45.67l-1.55-.62Z"/><path class="cls-20" d="M231.01,511.27c-1.8-9-27.15-53.95-32.62-63.58,5.61,.18,11.05,.79,13.69,2.29l.79-1.39c-3.04-1.74-9.26-2.38-15.41-2.53l-.07-.13-.21,.12c-7.97-.19-15.76,.42-16.33,.47l.13,1.59c.13-.01,7.71-.6,15.54-.47,4.07,7.16,31.13,54.99,32.92,63.94,1.94,9.7,1.01,15.35-1.97,30.26l1.57,.31c2.9-14.49,3.99-20.78,1.97-30.89Z"/></g><path class="cls-10" d="M262.7,306.41c0,2.29-1.86,4.16-4.16,4.16s-4.16-1.86-4.16-4.16,1.86-4.16,4.16-4.16,4.16,1.86,4.16,4.16Z"/><path class="cls-8" d="M108.09,404.85s-9.47-14.41-7-14.82c2.47-.41,9.47,14,9.47,14,0,0-1.24,2.47-2.47,.82Z"/><path class="cls-8" d="M110.15,405.57s-6.91-15.8-4.4-15.79c2.5,.01,6.98,15.4,6.98,15.4,0,0-1.63,2.23-2.57,.4Z"/><path class="cls-12" d="M108.66,404.54c-.42,0-.83-.05-1.24-.16-2.38-.65-5.78-8.29-6.44-9.82l1.1-.48c1.54,3.57,4.32,8.77,5.66,9.14,1.95,.54,4.56-.93,4.59-.95l.6,1.04c-.1,.06-2.17,1.22-4.26,1.22Z"/><path class="cls-12" d="M109.83,403.47c-2.13-1.71-3.95-7.31-4.03-7.54l1.14-.37c.49,1.52,2.1,5.74,3.64,6.97l-.75,.94Z"/><path class="cls-12" d="M160.67,350.8c-.77-1.81-2.77-4.34-3.72-5.56-.19-.24-.34-.44-.44-.57l.96-.72c.1,.13,.24,.31,.42,.55,.99,1.26,3.04,3.87,3.88,5.83l-1.1,.47Z"/><path class="cls-12" d="M310.24,414.52l-1.2-.06c.21-4.18,3.02-8.03,3.14-8.19l.97,.71s-2.72,3.72-2.91,7.54Z"/><path class="cls-12" d="M402.47,408.45c-10.8-4.77-17.52-3.73-17.59-3.72l-.2-1.18c.28-.05,7.1-1.13,18.27,3.8l-.48,1.1Z"/><path class="cls-12" d="M403.52,406.51c-5.16-3.76-17.8-5.08-17.92-5.09l.12-1.19c.53,.05,13.09,1.36,18.51,5.32l-.71,.97Z"/><g><path class="cls-15" d="M229.55,415.61c-14.5,.3-28.67-7.45-39.49-15.58,.04,0,.08,0,.12,0,.3,0,.59-.03,.87-.08,1.6-.32,2.61-1.5,2.85-3.32,.19-1.4-.38-2.14-.88-2.51-1.14-.83-3.15-.57-4.96-.07,.82-1.05,1.36-2.25,1.41-3.38,.06-1.63-.85-2.89-2.57-3.55-1.32-.51-2.17-.13-2.64,.27-1.57,1.33-1.32,4.98-1.01,7.14-7.7-6.66-12.51-12.35-12.63-12.49-.28-.34-.79-.39-1.13-.1-.34,.28-.39,.79-.1,1.13,.11,.14,4.71,5.57,12.11,12.06-.95,.26-2.07,.78-3.34,1.73-2.95,2.21-11.6,4.43-15.88,2.79-1.4-.53-2.2-1.4-2.45-2.64-.09-.43-.51-.71-.94-.63-.43,.09-.71,.51-.63,.94,.36,1.77,1.55,3.1,3.45,3.82,5.22,1.99,14.42-.76,17.42-3.01,1.77-1.33,3.09-1.65,3.96-1.65,.23,.19,.45,.39,.68,.58-.79,3.04-3.61,11.79-10.96,18.09-.34,.29-.38,.79-.09,1.13,.16,.19,.38,.28,.61,.28,.18,0,.37-.06,.52-.19,7.25-6.22,10.24-14.49,11.28-18.19,11.19,9.13,27.11,19.02,43.61,19.02,.28,0,.56,0,.84,0,.44,0,.79-.37,.78-.82,0-.44-.37-.79-.82-.78Zm-37.47-20.19c.08,.06,.34,.25,.24,1-.15,1.14-.67,1.78-1.58,1.96-1.41,.29-3.49-.62-4.68-1.93,2.18-.9,5.12-1.7,6.02-1.04Zm-6.78-6.8s.16-.14,.41-.14c.15,0,.35,.04,.62,.14,1.07,.41,1.58,1.06,1.54,2-.05,1.44-1.42,3.25-2.97,4.1-.36-2.33-.46-5.38,.39-6.1Z"/><path class="cls-15" d="M200.24,347.82c.17,0,.34-.05,.48-.16,.35-.27,.42-.77,.15-1.12-6.06-7.98-5.36-28.59-5.35-28.8,.02-.44-.33-.81-.77-.83-.46-.05-.81,.33-.83,.77-.03,.87-.74,21.39,5.67,29.83,.16,.21,.4,.32,.64,.32Z"/><path class="cls-15" d="M295.97,372.77c-.36-.26-.86-.18-1.12,.18-4.89,6.78-24.76,12.22-24.96,12.27-.43,.11-.68,.56-.56,.98,.1,.36,.42,.59,.77,.59,.07,0,.14,0,.21-.03,.84-.23,20.61-5.65,25.84-12.88,.26-.36,.18-.86-.18-1.12Z"/></g><path class="cls-10" d="M205.22,312.15c0,.92-.74,1.66-1.66,1.66s-1.66-.74-1.66-1.66,.74-1.66,1.66-1.66,1.66,.74,1.66,1.66Z"/><path class="cls-10" d="M218.51,310.48c0,.92-.74,1.66-1.66,1.66s-1.66-.74-1.66-1.66,.74-1.66,1.66-1.66,1.66,.74,1.66,1.66Z"/><path class="cls-10" d="M212.2,324.1c0,.92-.74,1.66-1.66,1.66s-1.66-.74-1.66-1.66,.74-1.66,1.66-1.66,1.66,.74,1.66,1.66Z"/><path class="cls-10" d="M218.18,348.35c0,.92-.74,1.66-1.66,1.66s-1.66-.74-1.66-1.66,.74-1.66,1.66-1.66,1.66,.74,1.66,1.66Z"/><path class="cls-10" d="M215.85,375.92c0,.92-.74,1.66-1.66,1.66s-1.66-.74-1.66-1.66,.74-1.66,1.66-1.66,1.66,.74,1.66,1.66Z"/><path class="cls-10" d="M229.8,362.63c0,.92-.74,1.66-1.66,1.66s-1.66-.74-1.66-1.66,.74-1.66,1.66-1.66,1.66,.74,1.66,1.66Z"/><path class="cls-10" d="M249.07,373.93c0,.92-.74,1.66-1.66,1.66s-1.66-.74-1.66-1.66,.74-1.66,1.66-1.66,1.66,.74,1.66,1.66Z"/><path class="cls-10" d="M234.45,385.55c0,.92-.74,1.66-1.66,1.66s-1.66-.74-1.66-1.66,.74-1.66,1.66-1.66,1.66,.74,1.66,1.66Z"/><path class="cls-10" d="M252.39,387.88c0,.92-.74,1.66-1.66,1.66s-1.66-.74-1.66-1.66,.74-1.66,1.66-1.66,1.66,.74,1.66,1.66Z"/><path class="cls-10" d="M268.33,364.63c0,.92-.74,1.66-1.66,1.66s-1.66-.74-1.66-1.66,.74-1.66,1.66-1.66,1.66,.74,1.66,1.66Z"/><path class="cls-10" d="M233.79,403.16c0,.92-.74,1.66-1.66,1.66s-1.66-.74-1.66-1.66,.74-1.66,1.66-1.66,1.66,.74,1.66,1.66Z"/><path class="cls-10" d="M199.24,379.57c0,.92-.74,1.66-1.66,1.66s-1.66-.74-1.66-1.66,.74-1.66,1.66-1.66,1.66,.74,1.66,1.66Z"/><path class="cls-10" d="M186.29,379.24c0,.92-.74,1.66-1.66,1.66s-1.66-.74-1.66-1.66,.74-1.66,1.66-1.66,1.66,.74,1.66,1.66Z"/><path class="cls-10" d="M201.24,399.17c0,.92-.74,1.66-1.66,1.66s-1.66-.74-1.66-1.66,.74-1.66,1.66-1.66,1.66,.74,1.66,1.66Z"/><path class="cls-10" d="M214.52,391.53c0,.92-.74,1.66-1.66,1.66s-1.66-.74-1.66-1.66,.74-1.66,1.66-1.66,1.66,.74,1.66,1.66Z"/><path class="cls-10" d="M221.83,407.81c0,.92-.74,1.66-1.66,1.66s-1.66-.74-1.66-1.66,.74-1.66,1.66-1.66,1.66,.74,1.66,1.66Z"/><path class="cls-10" d="M229.8,436.37c0,.92-.74,1.66-1.66,1.66s-1.66-.74-1.66-1.66,.74-1.66,1.66-1.66,1.66,.74,1.66,1.66Z"/><path class="cls-10" d="M212.53,430.4c0,.92-.74,1.66-1.66,1.66s-1.66-.74-1.66-1.66,.74-1.66,1.66-1.66,1.66,.74,1.66,1.66Z"/><path class="cls-10" d="M227.48,423.09c0,.92-.74,1.66-1.66,1.66s-1.66-.74-1.66-1.66,.74-1.66,1.66-1.66,1.66,.74,1.66,1.66Z"/><path class="cls-10" d="M198.91,414.78c0,.92-.74,1.66-1.66,1.66s-1.66-.74-1.66-1.66,.74-1.66,1.66-1.66,1.66,.74,1.66,1.66Z"/><path class="cls-10" d="M181.31,428.07c0,.92-.74,1.66-1.66,1.66s-1.66-.74-1.66-1.66,.74-1.66,1.66-1.66,1.66,.74,1.66,1.66Z"/><path class="cls-10" d="M167.36,413.46c0,.92-.74,1.66-1.66,1.66s-1.66-.74-1.66-1.66,.74-1.66,1.66-1.66,1.66,.74,1.66,1.66Z"/><path class="cls-10" d="M186.62,419.1c0,.92-.74,1.66-1.66,1.66s-1.66-.74-1.66-1.66,.74-1.66,1.66-1.66,1.66,.74,1.66,1.66Z"/><path class="cls-10" d="M171.67,389.87c0,.92-.74,1.66-1.66,1.66s-1.66-.74-1.66-1.66,.74-1.66,1.66-1.66,1.66,.74,1.66,1.66Z"/><path class="cls-10" d="M152.08,398.84c0,.92-.74,1.66-1.66,1.66s-1.66-.74-1.66-1.66,.74-1.66,1.66-1.66,1.66,.74,1.66,1.66Z"/><path class="cls-10" d="M280.62,357.32c0,.92-.74,1.66-1.66,1.66s-1.66-.74-1.66-1.66,.74-1.66,1.66-1.66,1.66,.74,1.66,1.66Z"/><path class="cls-10" d="M291.58,367.28c0,.92-.74,1.66-1.66,1.66s-1.66-.74-1.66-1.66,.74-1.66,1.66-1.66,1.66,.74,1.66,1.66Z"/><path class="cls-10" d="M279.29,373.93c0,.92-.74,1.66-1.66,1.66s-1.66-.74-1.66-1.66,.74-1.66,1.66-1.66,1.66,.74,1.66,1.66Z"/><path class="cls-10" d="M230.47,318.79c0,.92-.74,1.66-1.66,1.66s-1.66-.74-1.66-1.66,.74-1.66,1.66-1.66,1.66,.74,1.66,1.66Z"/><path class="cls-10" d="M227.14,332.08c0,.92-.74,1.66-1.66,1.66s-1.66-.74-1.66-1.66,.74-1.66,1.66-1.66,1.66,.74,1.66,1.66Z"/><path class="cls-10" d="M205.55,361.31c0,.92-.74,1.66-1.66,1.66s-1.66-.74-1.66-1.66,.74-1.66,1.66-1.66,1.66,.74,1.66,1.66Z"/><path class="cls-10" d="M207.88,339.38c0,.92-.74,1.66-1.66,1.66s-1.66-.74-1.66-1.66,.74-1.66,1.66-1.66,1.66,.74,1.66,1.66Z"/><path class="cls-12" d="M303.47,317.65c-.41,.45-.78,.93-1.14,1.41-.71,.97-1.37,1.97-1.98,2.99-.61,1.02-1.18,2.07-1.71,3.13-.41,.82-.79,1.66-1.16,2.5-1.52-.83-3.06-1.63-4.71-2.26,1.44,1.5,3.03,2.77,4.64,4.01l.67,.51,.47-.82c.59-1.02,1.16-2.06,1.7-3.1,.54-1.05,1.08-2.1,1.58-3.16,.51-1.06,1-2.13,1.48-3.21,.52-1.05,.85-2.22,1.57-3.15-.59,.22-1,.73-1.42,1.16Z"/><path class="cls-12" d="M297.9,315.47c1.39-5.68-1.93-5.55-6.32-4.6,.07-1.24,.16-2.47,.34-3.7,.17,1.11,.25,2.21,.32,3.32l-.41-.31c4.61-1.73,8.82-.08,6.07,5.29h0Z"/><path class="cls-12" d="M304.98,320.65c1.16-1.56,3.59-2.33,3.42,.46-.04,.53-.16,1.03-.3,1.52l-.38-.49c1.06,.05,2.13,.15,3.19,.39-1.06,.24-2.13,.34-3.19,.39l-.46,.02c.08-.62,.25-1.3,.3-1.9,.27-1.94-1.35-.91-2.57-.4h0Z"/><path class="cls-12" d="M303.54,308.16c-2.92-3.23-6.21-7.1-10.96-6.64,4.69-1.8,9.15,2.69,10.96,6.64h0Z"/><path class="cls-12" d="M310.19,314.47c1.35-.59,3.47,.36,3.32,1.99-1.01-1.01-2.06-1.28-3.32-1.99h0Z"/><path class="cls-7" d="M293.86,316.05c-.32,.56-1.68,.37-3.03-.4-1.35-.78-2.18-1.86-1.86-2.42s1.68-.37,3.03,.4,2.18,1.86,1.86,2.42Z"/><path class="cls-7" d="M306.08,325.14c-.36,.62-1.36,.71-2.25,.2-.88-.51-1.31-1.43-.95-2.05,.36-.62,1.36-.71,2.25-.2,.88,.51,1.31,1.43,.95,2.05Z"/><g><path class="cls-5" d="M292.37,331.49s-.52,1.93-1.83,1.29c0,0-1.25,2.31-2.46,1.8-1.21-.51-3.62-4.73-2.27-6.92,0,0,7.23,2.41,6.55,3.82Z"/><path class="cls-12" d="M286.28,329.2c1.59,1.93,3.98,3.63,4.13,3.74l.26-.3c-.06-.04-5.55-3.94-5.4-6.52l-.37,.05c-.05,.95,.56,2.02,1.39,3.04Z"/></g></g></g><g><ellipse class="cls-6" cx="519.64" cy="652.19" rx="112.72" ry="18.66"/><g><g><path class="cls-15" d="M468.12,597.96s4.15,11.86-4.74,15.42c-8.9,3.56-27.87,13.64-27.87,13.64,0,0-4.15,9.49,2.97,10.67,7.12,1.19,32.02,3.56,51-8.9,0,0,4.74-4.15,1.78-16.01l-2.37-21.35s-22.54-2.37-20.76,6.52Z"/><path class="cls-15" d="M566.28,600.35s5.93,7.12,7.12,14.83c1.19,7.71,3.56,34.99,2.97,39.73-.59,4.74,19.57,7.71,21.94,.59,2.37-7.12,.59-33.8-.59-37.36-1.19-3.56-7.71-22.54-7.71-22.54,0,0-23.13-2.37-23.72,4.74Z"/><path class="cls-17" d="M480.69,379.99s-52.19,97.85-50.41,107.34c1.78,9.49,33.21,119.2,33.21,119.2,0,0,22.54,1.19,30.24-3.56,0,0-16.6-109.12-17.79-112.68,0,0,45.66-61.08,48.04-66.42,2.37-5.34,13.64-27.87,11.27-32.62-2.37-4.74-49.81-18.38-54.56-11.27Z"/><path class="cls-17" d="M523.98,423.87s-10.08,57.52-10.08,67.01,50.41,118.01,50.41,118.01c0,0,27.28-2.37,30.84-6.52,3.56-4.15-30.24-102-29.06-103.78,1.19-1.78,35.03-82.41,26.12-115.33,0,0-70.59-15.13-68.22,40.61Z"/><path class="cls-10" d="M445.75,619.55s9.55-3.18,14.32,14.32l33.41-11.93v7.96s-47.73,27.84-60.46,4.77c0,0-3.98-11.93,12.73-15.12Z"/><path class="cls-10" d="M575.42,642.62s-7.16,23.07,13.52,22.28c20.68-.8,14.32-36.6,11.93-45.35l-3.17-1.41s1.58,18.12-.01,27.67c-1.59,9.55-18.3-11.93-22.28-3.18Z"/><path class="cls-10" d="M489.28,614c0,1.68-1.36,3.03-3.03,3.03s-3.03-1.36-3.03-3.03,1.36-3.03,3.03-3.03,3.03,1.36,3.03,3.03Z"/><path class="cls-10" d="M593.85,615.66c0,1.68-1.36,3.03-3.03,3.03s-3.03-1.36-3.03-3.03,1.36-3.03,3.03-3.03,3.03,1.36,3.03,3.03Z"/><path class="cls-1" d="M467.77,610.97s5.52-.55,8.28,6.07"/><path class="cls-1" d="M573.82,621.67s4.16-3.66,10.26,.12"/><path class="cls-1" d="M575.03,626.3s4.16-3.66,10.26,.12"/><path class="cls-1" d="M575.58,632.37s4.16-3.66,10.26,.12"/><path class="cls-1" d="M464.45,613.72s5.52-.55,8.28,6.07"/><path class="cls-1" d="M459.49,615.93s5.52-.55,8.28,6.07"/><path class="cls-2" d="M461.7,485.71s11.95,.33,14.25,4.58"/><path class="cls-2" d="M549.98,496.19s13.72,.08,16.11,2.4"/><path class="cls-2" d="M505.84,419.5s20.97,3.31,33.66,12.14"/><path class="cls-2" d="M583.09,401.84s-22.07,83.32-24.83,93.8c-2.76,10.48,33.66,106.5,33.66,106.5"/><polyline class="cls-2" points="513.01 422.25 468.87 486.26 485.42 603.79"/><polyline class="cls-2" points="470.52 401.29 485.97 405.7 494.25 395.77"/><polyline class="cls-2" points="558.26 408.46 556.05 422.25 574.81 432.19"/><polyline class="cls-2" points="524.6 406.25 521.84 418.94 527.91 420.05"/><polyline class="cls-2" points="588.05 400.18 581.99 436.6 585.3 443.22"/><path class="cls-2" d="M446.8,524.34s6.01,17.8,17.11,22.62"/><path class="cls-2" d="M536.74,526.54s15.45,23.73,26.49,28.69"/><line class="cls-2" x1="462.8" y1="601.03" x2="493.15" y2="598.27"/><line class="cls-2" x1="562.12" y1="602.69" x2="594.12" y2="595.52"/></g><g><path class="cls-11" d="M594.28,384.24c4.27-12.42-.99-134.76-.99-134.76l-31.54-10.88s-17.06,10.88-30.83,4.35c0,0-28.99,6.53-32.26,7.61-3.26,1.09,3.26,43.5,1.09,65.26-1.76,17.65-14.98,45.31-19.91,57.45-6.57,6.44-3.2,10.96-3.2,10.96,61.34,45.42,118.02,12.81,119.19,8.54,1.16-4.27-1.55-8.54-1.55-8.54Z"/><path class="cls-9" d="M594.28,384.24c2.38-6.91,1.8-47.86,.82-82.82-.11,3.25-.25,6.44-.39,9.53-.75,16.68-2.75,33.62-11.35,48.3-8.27,14.14-22.04,24.64-37.62,29.52-21.94,6.87-50.3,4.52-69.82-9.08-.56,2.83,.72,4.55,.72,4.55,61.34,45.42,118.02,12.81,119.19,8.54,1.16-4.27-1.55-8.54-1.55-8.54Z"/><path class="cls-12" d="M689.38,251.39c.36-.74-.25-1.41-.25-1.41-1.36-1.43-6.24,5.56-6.92,6.54-.14-.14-.29-.29-.44-.44,2.23-3.19,6.46-9.27,6.82-10.01,.49-1.01-.25-1.75-.25-1.75-1.63-1.52-7.96,8.12-8.98,9.71-.28-.22-.56-.43-.85-.64,2.16-3.58,6.8-11.33,7.17-12.21,.49-1.16-.3-1.83-.3-1.83-1.9-1.51-9.31,12-9.31,12-.05,.09-.09,.18-.13,.27-.33-.22-.64-.42-.94-.61,1.61-3.43,4.92-10.5,5.15-11.31,.31-1.08-.54-1.68-.54-1.68-2.03-1.33-7.3,11.34-7.3,11.34l-5.26,6.14c-.59-.32-1.01-1.14-.96-2.85,.09-3.32-.55-3.5-.55-3.5-3.06-.62-2.68,4.96-3.27,9.87-.44,3.68,1.18,6.73,2.02,8.03,.24,.46,.47,.67,.47,.67l-2.31,4.14,8.39,6.41,5.65-7.27,7.26-11.97c1.46-1.92,5.34-7.05,5.63-7.64Z"/><path class="cls-12" d="M403.14,225.6c-.2-.79,.54-1.33,.54-1.33,1.63-1.12,4.94,6.75,5.39,7.85,.17-.11,.34-.22,.52-.33-1.51-3.59-4.37-10.42-4.56-11.22-.27-1.09,.61-1.65,.61-1.65,1.91-1.15,6.07,9.61,6.74,11.39,.32-.15,.64-.3,.97-.44-1.35-3.95-4.27-12.51-4.45-13.45-.23-1.23,.68-1.73,.68-1.73,2.18-1.08,6.57,13.69,6.57,13.69,.03,.1,.05,.2,.07,.29,.36-.14,.72-.28,1.05-.4-.86-3.69-2.6-11.3-2.66-12.14-.08-1.12,.88-1.53,.88-1.53,2.27-.88,4.75,12.63,4.75,12.63l3.85,7.11c.64-.19,1.23-.9,1.54-2.58,.61-3.27,1.27-3.3,1.27-3.3,3.12,.04,1.57,5.41,1.12,10.34-.34,3.7-2.57,6.33-3.67,7.42-.34,.4-.6,.55-.6,.55l1.39,4.53-9.55,4.5-3.99-8.29-4.58-13.23c-1.02-2.19-3.74-8.01-3.9-8.66Z"/><path class="cls-11" d="M598.29,251.23s32.85,63.36,25.85,75.73c-7.01,12.38-24.68,17.05-51.29-56.04,0,0,1.44-33.29,25.44-19.69Z"/><path class="cls-11" d="M612.63,334.59s20.45,4.57,62.96-57.41l-13.28-7.81s-83.96,53.63-49.68,65.23Z"/><path class="cls-11" d="M498.67,250.57s-54.61,49.99-52.02,63.97c2.59,13.98,17.78,24.16,66.75-36.27,0,0,12.4-32.74-14.72-27.7Z"/><path class="cls-11" d="M455.64,324.83s-20.9-1.41-44.11-72.9l14.95-3.73s65.33,75.22,29.16,76.63Z"/><path class="cls-8" d="M535.1,260.62s-31.56-25.64-6.9-29.59c24.66-3.95,41.42-5.92,48.33-.99,6.9,4.93-16.77,22.68-41.42,30.57Z"/><path class="cls-11" d="M535.1,260.62s40.41-14.97,42.24-28.51c0,0-1.83-5.12-19.03-4.76l-1.1-2.2s14.28-1.46,22.33,3.29c8.05,4.76,7.32,8.05,7.32,11.71s3.29,5.49,2.56,7.69c-.73,2.2-37.25,19.68-54.31,12.77Z"/><path class="cls-11" d="M535.1,260.62s-15.23-13.5-15.6-21.19c-.37-7.69,7.69-8.05,11.71-8.42,4.03-.37,.73-1.83,.73-1.83,0,0-10.61-1.46-14.64,5.49-4.03,6.95-2.56,4.39-1.83,6.59,.73,2.2-4.39,2.2-2.56,4.76,1.83,2.56,9.96,16.76,22.18,14.6Z"/><path class="cls-11" d="M410.03,253.13s-.68,.95,.09,3.88c.77,2.93-1.67,5.01,.36,5.51,2.03,.5,20.21-5.61,22.15-9,1.94-3.39,1.44-4.69-.05-5.28-1.49-.59-2.12-4.38-3.07-5.05-.95-.68-21.12,6.87-19.49,9.94Z"/><path class="cls-11" d="M659.88,267.23s-1.16-.03-3.16,2.25c-2,2.28-5.08,1.43-4.36,3.39,.73,1.96,15.97,13.61,19.86,13.32,3.89-.29,4.7-1.43,4.35-3-.35-1.56,2.44-4.21,2.47-5.37,.03-1.16-17.52-13.65-19.15-10.58Z"/><path class="cls-3" d="M536.74,264.99s45.21-5.6,52.68-17.15"/><path class="cls-3" d="M512.46,247.89s16.55,16,20.42,16.55"/><path class="cls-3" d="M559.91,254.51s24.08-6.08,26.94-14.35"/><path class="cls-3" d="M531.22,260.03s-5.52-1.1-3.86,14.35,1.66,20.42-1.1,24.83"/><path class="cls-3" d="M544.46,259.48s3.86,1.66,2.21,12.69c-1.66,11.04-2.76,23.73,.55,28.14"/><path class="cls-3" d="M499.77,273.82c.55,1.66,1.1,17.11,.55,21.52"/><path class="cls-3" d="M479.85,373.28s57.2,46.34,114.43,10.96"/><path class="cls-3" d="M589.16,277.13s7.17,36.42,6.62,45.25"/><path class="cls-3" d="M410.13,257.01s18.87-7.26,20.67-8.02"/><line class="cls-3" x1="417" y1="262.79" x2="432.45" y2="256.72"/><path class="cls-3" d="M458.94,292.03s2.44,11.65,1.1,16.55"/><path class="cls-3" d="M621.71,300.86s-5.2,11.65-3.86,16.55"/><path class="cls-3" d="M656.71,269.48s18.52,10.97,20.73,11.52"/><line class="cls-3" x1="654.27" y1="275.48" x2="668.62" y2="285.96"/><path class="cls-3" d="M488.18,378.66s20.42-5.52,23.73-19.86c0,0,36.42-7.17,52.42,4.41,0,0-.55,27.04,14.9,28.14"/></g><path class="cls-15" d="M556.11,218.57s7.32-3.29,2.56-19.4c-4.76-16.11-14.28,6.59-2.56,19.4Z"/><path class="cls-12" d="M523.77,149.24c15.91-2.55,30.87,8.27,33.42,24.18,1.56,9.74-1.9,19.11-8.46,25.51,2.54,9.91,2.36,20.54-6.62,26.59,0,0-36.06,19.06-42.53-42.9h0c-2.52-15.89,8.29-30.82,24.18-33.37Z"/><path class="cls-12" d="M560.67,195.62c-1.66,5.94-5.77,9.98-9.18,9.03-3.41-.95-4.83-6.54-3.17-12.48,1.66-5.94,5.77-9.98,9.18-9.03,3.41,.95,4.83,6.54,3.17,12.48Z"/><path class="cls-16" d="M557.25,194.66c-.74,2.65-2.58,4.46-4.1,4.03-1.52-.43-2.16-2.92-1.42-5.57,.74-2.65,2.58-4.46,4.1-4.03,1.52,.43,2.16,2.92,1.42,5.57Z"/><path class="cls-15" d="M500.47,170.62s3.91-10.56,6.45-7c2.54,3.56,6.36,11.19,16.28,2.54s18.57-1.78,20.61,8.14c2.04,9.92-1.27,20.35,1.27,23.91,2.54,3.56,4.24,3.69,3.65,.7-.59-2.99,.17-19.27,9.58-15.46,0,0,2.04,2.04,2.54,3.82,.51,1.78,7.38-23.15-9.16-31.8,0,0-20.1-19.59-45.79,.51,0,0-7.47,10.56-5.44,14.63Z"/><path class="cls-15" d="M551.64,155.74c-.1-3.14,.77-4.46,3.65-5.73,2.09-.92,4.26-1.34,6.07-2.81,3.86-3.15,4.33-8.16,4.23-12.81-.11-5.14-8.12-5.16-8.01,0,.07,3.1,.27,5.82-2.76,7.27-2.1,1.01-4.31,1.59-6.27,2.92-3.95,2.68-5.06,6.55-4.92,11.16,.16,5.14,8.17,5.16,8.01,0h0Z"/><path class="cls-15" d="M554.2,160.04c1.57-3.11,6.14-1.7,8.93-1.63,2.24,.06,4.56-.15,6.62-1.09,4.31-1.96,6.18-6.04,7.72-10.26,1.78-4.84-5.96-6.93-7.72-2.13-.87,2.38-1.78,4.97-4.61,5.46-2.48,.42-5.16-.4-7.66-.3-4.29,.16-8.2,1.98-10.19,5.91-2.32,4.59,4.58,8.64,6.91,4.04h0Z"/><path class="cls-15" d="M554.3,163.87c4.17-.66,5.27,2.79,7.93,4.92,2.05,1.64,4.59,2.5,7.23,2.41,5.6-.18,9.45-4.4,11.15-9.38,1.67-4.88-6.06-6.98-7.72-2.13-.87,2.55-3.23,4.46-5.74,2.71-1.56-1.09-2.45-2.98-4.06-4.12-3.31-2.34-7-2.75-10.92-2.14-5.07,.8-2.92,8.51,2.13,7.72h0Z"/><path class="cls-15" d="M548.5,151.45c-.15-10.61-3.11-24.64-16.42-24.74-5.15-.04-5.16,7.97,0,8.01,8.13,.06,8.33,10.97,8.42,16.73,.07,5.15,8.08,5.16,8.01,0h0Z"/><path class="cls-12" d="M555.01,201c-11.6-16.17-28.06,12.59-28.06,12.59l3.98,29.37s1.24,13.64,4.17,17.66c0,0,23.15-14.42,26.65-22.01-2.98-5.44-6.74-37.61-6.74-37.61Z"/><path class="cls-16" d="M534,258.49c5.23-11.01,8.3-22.63,8.94-34.7-3.8,3.02-8.39,4.9-13.55,4.96-.13,0-.25-.01-.39-.01l1.93,14.22s.93,10.17,3.07,15.54Z"/><path class="cls-2" d="M513.82,204.34l-5.5-2.6s2.31-10.42,2.31-14.76"/><path class="cls-15" d="M519.61,181.78s5.21-4.92,12.44,2.03l-.87,1.74s-4.05-4.92-11-1.74c0,0-1.74-1.16-.58-2.03Z"/><path class="cls-15" d="M506.48,182.93s-2.66-2.48-6.81-1.4c0,.84,.01,1.68,.02,2.51,1.68-.32,3.76-.22,6.21,.91,0,0,1.74-1.16,.58-2.03Z"/><path class="cls-2" d="M520.76,194.8s-.58-6.65,3.18-6.37c3.76,.29,3.76,6.65,3.76,6.65"/><path class="cls-4" d="M502.61,195s-1.05-6.58,1.15-6.53c2.2,.05,2.89,6.38,2.89,6.38"/><path class="cls-4" d="M513.24,213.31s9.26,.58,10.71-3.47"/></g></g><g><polygon class="cls-5" points="111.98 154.26 122.43 139.33 137.36 154.26 125.42 166.21 111.98 154.26"/><polygon class="cls-5" points="424.03 121.42 434.48 106.49 449.41 121.42 437.46 133.36 424.03 121.42"/><polygon class="cls-5" points="661.67 460.14 670.82 475.9 651 483.17 645.18 467.31 661.67 460.14"/><polygon class="cls-18" points="312.05 206.52 322.5 191.59 337.43 206.52 325.49 218.46 312.05 206.52"/><polygon class="cls-11" points="235.9 61.7 250.83 60.2 244.86 91.56 232.92 91.56 235.9 61.7"/><polygon class="cls-11" points="85.11 464.82 100.04 463.32 94.07 494.68 82.12 494.68 85.11 464.82"/><polygon class="cls-11" points="662.91 352.84 677.84 351.34 671.87 382.7 659.93 382.7 662.91 352.84"/><polygon class="cls-18" points="126.38 277.22 124.7 288.34 103.02 278.2 105.23 269.52 126.38 277.22"/><polygon class="cls-19" points="344.75 515.96 340.75 505.44 364.62 503.63 366.96 512.28 344.75 515.96"/><polygon class="cls-19" points="329.82 133.74 325.82 123.23 349.69 121.41 352.03 130.06 329.82 133.74"/><polygon class="cls-19" points="632.91 184.51 628.91 173.99 652.78 172.17 655.11 180.82 632.91 184.51"/></g></svg>