<?xml version="1.0" encoding="UTF-8"?><svg xmlns="http://www.w3.org/2000/svg" viewBox="0 0 750 750"><defs><style>.cls-1{fill:#ed7534;}.cls-2,.cls-3{fill:#fff;}.cls-4{fill:#d9d9d9;}.cls-5{fill:#c6c6c5;mix-blend-mode:multiply;}.cls-3{mix-blend-mode:soft-light;}.cls-6{isolation:isolate;}</style></defs><g class="cls-6"><g id="Layer_1"><rect class="cls-1" x="-5.46" y="-5.85" width="760.91" height="760.91"/><g><path class="cls-4" d="M290.76,245.8c-.01-.13-13.03-157.59-13.03-157.59,0,0-.24-3.99-3.09-3.99,0,0-3.65,0-3.53,4.82l-.2,155.93c-.17,5.99-5.17,6.2-5.17,6.2-4.56-.55-5.24-4.97-5.24-4.97l-7.88-157.71c-.46-4.15-3.31-3.73-3.31-3.73-3.2,.13-3.31,3.17-3.31,3.17l-1.11,158.7c.73,5.48-5.09,5.3-5.09,5.3-5.38-.21-5.09-5.3-5.09-5.3l-1.12-158.7s-.11-3.04-3.31-3.17c0,0-2.85-.42-3.3,3.73l-7.87,157.71s-.68,4.42-5.25,4.97c0,0-4.99-.21-5.16-6.2l-.2-155.93c.11-4.82-3.54-4.82-3.54-4.82-2.85,0-3.08,3.99-3.08,3.99l-13.03,157.59c-.69,10.32,1.53,21.26,5.1,30.87,2.87,7.72,6.31,15.05,12.23,20.89,5.34,5.27,12.01,9.53,15.94,16.11,4.95,8.28,6.78,18.25,6.93,27.8h-.16s2.99,51.8-8.07,253.59c0,0-9.95,75.06,18.86,88.2v.55c.4-.08,.79-.17,1.18-.26,.39,.09,.78,.19,1.17,.26v-.55c26.88-8.59,16.93-89.03,16.93-89.03-9.56-181.39-6.79-241.97-6.21-251.4h.14c0-19.43,6.75-30.39,19.8-43.97,6.3-6.56,10.22-14.35,13.19-22.89,3.29-9.45,5.71-20.07,4.88-30.17Z"/><path class="cls-4" d="M386.53,76.87V350.74s-14.33,7.5-16.38,71.65c0,0-.37,128.22,12.51,185.64,0,0,5.33,51.21-22.4,75.78,0,0-32.42-15.71-25.6-75.78,0,0,17.06-137.17,13.65-211.57,0,0,1.35-24.57-20.49-36.86,0,0-2.68-248.42,58.71-282.73Z"/><path class="cls-4" d="M561.28,185.6c0-60.05-30.88-108.73-68.97-108.73s-68.97,48.68-68.97,108.73c0,23.07,1.28,47.97,10.01,69.65,8.56,21.26,30.31,29.85,41.25,48.65,4.95,8.5,6.78,18.73,6.93,28.53h-.16s2.99,53.16-8.07,260.28c0,0-9.95,77.05,18.86,90.53v.56c.41-.08,.8-.18,1.19-.27,.38,.09,.77,.19,1.17,.27v-.56c26.87-8.81,16.92-91.38,16.92-91.38-9.56-186.18-6.78-248.36-6.21-258.04h.14c0-19.95,6.75-31.19,19.79-45.12,1.81-1.93,3.4-3.97,4.85-6.1,18.82-14.49,31.25-43.97,31.25-97Z"/><path class="cls-3" d="M477.1,229.05c21.66,28.48,61.48,21.67,69.86-13.54,2.65-11.15,2.29-22.66,2.29-34.03,0-35.33-13.68-65.61-33.15-78.43,1.67,1.1,3.27,6.46,4.1,8.14,8.42,17.12,15.72,35.92,18.77,54.8,2.51,15.55,3.32,33.61-2.87,48.4-4.64,11.07-15.3,19.18-26.93,21.55-8.49,1.73-26.12,.92-32.06-6.89Z"/><path class="cls-5" d="M533.28,267.13c-25.38,12.76-54.13-1.27-68.56-23.85-17.69-27.69-18.89-65.3-10.14-96.25,4.93-17.45,13.18-35.36,26.57-47.96,6.63-6.25,14.93-12.04,23.92-14.22,3.78-.92,7.56-1.18,11.35-1.14-7.51-4.41-15.62-6.83-24.1-6.83-38.09,0-68.97,48.68-68.97,108.73,0,23.07,1.28,47.97,10.01,69.65,8.56,21.26,30.31,29.85,41.25,48.65,4.95,8.5,6.78,18.73,6.93,28.53h-.16s2.99,53.16-8.07,260.28c0,0-9.95,77.05,18.86,90.53v.56c.41-.08,.8-.18,1.19-.27,.38,.09,.77,.19,1.17,.27v-.56c5.26-1.73,9.1-6.27,11.89-12.46-32.62-5.79-24.67-50.4-24.67-50.4l5.23-273.45c1.25-21.55,11.39-22.01,18.68-19.43,1.33-16.13,7.94-26.41,19.52-38.79,1.81-1.93,3.4-3.97,4.85-6.1,8.26-6.36,15.29-15.61,20.57-28.47-5.13,5.18-10.85,9.74-17.33,13Z"/><path class="cls-2" d="M499.2,331.5s.28,20.9,.71,52.24c.26,15.67,.56,33.95,.88,53.54,.18,9.79,.38,19.91,.57,30.2,.28,10.28,.57,20.72,.85,31.17,.18,10.45,.72,20.88,1.06,31.16,.22,5.14,.32,10.24,.64,15.27,.32,5.03,.63,9.99,.94,14.88,.15,2.44,.31,4.86,.46,7.26,.08,1.2,.15,2.39,.23,3.58,.09,1.14,.25,2.36,.36,3.52,.49,4.7,.87,9.3,1.22,13.78,.66,8.97,1.07,17.46,1.18,25.31,.11,3.92,.04,7.68,0,11.26-.15,3.58-.18,6.97-.45,10.15-.11,1.59-.22,3.13-.32,4.62-.17,1.48-.32,2.91-.48,4.28-.25,2.75-.71,5.24-1.1,7.5-.32,2.27-.87,4.24-1.31,5.96-.22,.86-.42,1.66-.6,2.39-.22,.72-.49,1.35-.69,1.93-.85,2.3-1.31,3.52-1.31,3.52,0,0,.43-1.23,1.24-3.54,.19-.58,.45-1.21,.66-1.94,.17-.73,.36-1.53,.56-2.39,.4-1.73,.91-3.7,1.19-5.97,.35-2.26,.76-4.75,.96-7.5,.13-1.37,.26-2.79,.39-4.27,.07-1.48,.15-3.02,.23-4.61,.32-6.35,.32-13.53,.12-21.35-.2-7.82-.69-16.29-1.45-25.23-.4-4.47-.82-9.05-1.36-13.73-.13-1.18-.3-2.31-.41-3.54-.08-1.19-.16-2.39-.24-3.59-.16-2.4-.32-4.83-.49-7.27-.33-4.89-.66-9.87-1-14.9-.34-5.03-.45-10.14-.7-15.28-.37-10.28-.96-20.72-1.17-31.17-.25-10.45-.5-20.9-.74-31.18-.16-10.29-.31-20.41-.46-30.21-.19-9.8-.2-19.27-.26-28.25-.04-8.98-.08-17.47-.12-25.31-.04-15.68,.05-28.74,.1-37.88,.06-9.14,.1-14.37,.1-14.37Z"/><path class="cls-5" d="M345.43,609.02c5.3-50.28,11.74-197.17,11.74-197.17-1.83-25.9,9.09-31.56,17.24-32.27,4.92-25.04,12.12-28.83,12.12-28.83v-2.6c-9.81-1.15-19.36-5.23-26.52-11.85-27.53-25.47-20.95-72.79-16.18-105.74,2.27-15.65,4.43-31.41,7.5-46.93,6.24-31.61,16.22-64.73,35.21-91.36v-15.39c-61.4,34.31-58.71,282.73-58.71,282.73,21.84,12.29,20.49,36.86,20.49,36.86,3.41,74.4-13.65,211.57-13.65,211.57-6.82,60.06,25.6,75.78,25.6,75.78,7.36-6.52,12.38-14.92,15.8-23.75-37.39-3.65-30.63-51.04-30.63-51.04Z"/><path class="cls-2" d="M366.53,393.99s-.39,4.01-.86,11.04c-.29,3.51-.44,7.79-.68,12.68-.11,2.45-.24,5.06-.37,7.8-.07,2.75-.14,5.64-.22,8.66-.08,3.02-.16,6.16-.24,9.41-.04,1.63-.08,3.28-.13,4.96,0,1.68,.02,3.38,.02,5.11,.02,6.91,.05,14.21,.08,21.75,.25,7.54,.52,15.33,.78,23.24,.18,3.95,.18,7.95,.52,11.95,.3,3.99,.59,8.01,.89,12.02,.28,4.01,.56,8.03,.84,12.02,.31,3.99,.45,7.99,.98,11.91,.9,7.87,1.78,15.61,2.64,23.11,.42,3.75,.84,7.43,1.25,11.04,.64,3.52,1.23,7.08,1.7,10.5,.97,6.87,1.63,13.39,1.99,19.44,.38,6.04,.45,11.6,.18,16.51-.07,1.23-.1,2.42-.19,3.56-.12,1.14-.23,2.25-.33,3.3-.15,2.12-.58,4.04-.85,5.78-.23,1.75-.76,3.25-1.06,4.59-.18,.66-.31,1.28-.49,1.83-.21,.54-.39,1.04-.56,1.48-.67,1.77-1.03,2.71-1.03,2.71,0,0,.33-.95,.96-2.73,.16-.44,.33-.94,.52-1.49,.17-.55,.29-1.18,.45-1.84,.27-1.34,.76-2.84,.94-4.6,.22-1.75,.6-3.66,.7-5.78,.08-1.06,.16-2.15,.25-3.29,.07-1.14,.07-2.33,.1-3.55,.14-4.89-.07-10.42-.51-16.43-.44-6.01-1.18-12.5-2.25-19.32-.52-3.43-1.14-6.87-1.85-10.49-.43-3.61-.88-7.3-1.33-11.05-.89-7.5-1.81-15.26-2.75-23.13-.55-3.93-.71-7.93-1.04-11.93-.29-4-.59-8.02-.89-12.04-.28-4.02-.56-8.04-.84-12.04-.33-4-.3-8.01-.47-11.97-.23-7.93-.46-15.73-.68-23.29,.05-7.55,.1-14.86,.15-21.78,.02-1.73,.03-3.44,.05-5.12,.07-1.68,.13-3.34,.19-4.96,.13-3.25,.25-6.4,.37-9.42,.12-3.02,.24-5.91,.36-8.66,.2-2.75,.38-5.35,.56-7.8,.36-4.9,.61-9.17,.99-12.67,.64-7.02,1.13-11.02,1.13-11.02Z"/><path class="cls-5" d="M282.03,279.4c-9.63,11.66-24.9,15.7-39.46,12.25-16.09-3.81-31.26-15.61-34.01-32.69-1.12-6.93-.76-13.8,.13-20.66l-.19-149.26c.11-4.82-3.54-4.82-3.54-4.82-2.85,0-3.08,3.99-3.08,3.99l-13.03,157.59c-.69,10.32,1.53,21.26,5.1,30.87,2.87,7.72,6.31,15.05,12.23,20.89,5.34,5.27,12.01,9.53,15.94,16.11,4.95,8.28,6.78,18.25,6.93,27.8h-.16s2.99,51.8-8.07,253.59c0,0-9.95,75.06,18.86,88.2v.55c.4-.08,.79-.17,1.18-.26,.39,.09,.78,.19,1.17,.26v-.55c5.29-1.69,9.14-6.16,11.93-12.23-30.25-8.83-22.95-66.88-22.95-66.88l7.06-228.82c-4.82-41.26,8.21-45.9,16-45.2,2.45-12.15,8.71-20.95,18.62-31.26,6.3-6.56,10.22-14.35,13.19-22.89,.56-1.59,1.07-3.23,1.57-4.89-1.52,2.95-3.3,5.75-5.42,8.32Z"/><path class="cls-2" d="M246.43,344.49s-.04,4.86-.11,13.38c0,8.51-.01,20.67-.02,35.27,.04,7.3,.07,15.2,.11,23.56,.08,8.36,.17,17.17,.26,26.29,.14,9.12,.24,18.54,.47,28.11,.17,9.57,.48,19.29,.76,29.02,.33,9.72,.58,19.45,1.04,29.01,.22,4.78,.43,9.53,.64,14.21,.26,4.69,.52,9.31,.78,13.86,.58,9.1,1.14,17.91,1.67,26.25,.36,8.37,.49,16.28,.47,23.58-.04,14.61-.91,26.78-2.18,35.21-.63,4.22-1.36,7.49-1.98,9.68-.3,1.1-.57,1.93-.77,2.49l-.29,.85s.09-.29,.27-.85c.19-.56,.45-1.39,.72-2.5,.57-2.2,1.24-5.48,1.78-9.7,1.14-8.43,1.64-20.6,1.54-35.17-.06-7.29-.28-15.19-.74-23.52-.52-8.31-1.39-17.12-1.9-26.23-.27-4.55-.55-9.19-.83-13.87-.23-4.69-.46-9.44-.69-14.22-.49-9.57-.78-19.3-1.14-29.02-.24-9.73-.51-19.46-.65-29.04-.2-9.58-.26-19.01-.37-28.13-.13-18.25,0-35.28,.12-49.87,.15-14.6,.46-26.76,.66-35.27,.24-8.51,.38-13.37,.38-13.37Z"/><path class="cls-2" d="M230.75,91.33l.37,19.68,.22,19.68c.17,13.12,.13,26.24,.2,39.35l-.02,19.68-.07,19.68-.18,19.68c-.06,6.56-.14,13.12-.28,19.68v-.02c.23,1.99,.97,3.99,2.19,5.63,.6,.83,1.33,1.57,2.18,2.16,.41,.32,.86,.57,1.32,.81,.45,.25,.95,.41,1.42,.62-.48-.19-.99-.33-1.45-.56-.47-.23-.93-.46-1.36-.77-.87-.57-1.65-1.29-2.29-2.11-1.31-1.64-2.15-3.63-2.47-5.73h0v-.02c-.14-6.56-.23-13.12-.28-19.68l-.18-19.68-.07-19.68-.02-19.68c.07-13.12,.03-26.24,.2-39.35l.22-19.68,.37-19.68Z"/><path class="cls-2" d="M250.23,91.33s.17,2.67,.46,7.34c.29,4.67,.69,11.35,1.18,19.36,.43,8.01,.93,17.37,1.47,27.38,.48,10.02,.99,20.71,1.51,31.4,.44,10.69,.89,21.38,1.3,31.41,.44,10.02,.69,19.39,.99,27.41,.13,4.01,.24,7.69,.34,10.95,.04,1.63,.08,3.16,.12,4.57-.05,1.42,.23,2.64,.79,3.65,1.14,2.04,3.09,2.68,4.27,2.91,.61,.14,1.09,.16,1.41,.18,.32,.02,.49,.04,.49,.04,0,0-.17,0-.49-.01-.32-.01-.81,0-1.43-.12-1.19-.18-3.22-.72-4.53-2.83-.63-1.01-1-2.39-1-3.79-.09-1.41-.18-2.93-.29-4.56-.19-3.25-.4-6.93-.63-10.93-.42-8.02-1-17.36-1.45-27.39-.48-10.02-.99-20.71-1.5-31.4-.44-10.69-.88-21.39-1.29-31.41-.36-10.03-.69-19.39-.97-27.41-.23-8.03-.41-14.71-.55-19.39-.12-4.68-.19-7.36-.19-7.36Z"/><path class="cls-2" d="M275.38,86.73s1.05,12.36,2.63,30.91c.73,9.28,1.57,20.1,2.48,31.7,.85,11.6,1.76,23.97,2.66,36.34,.83,12.38,1.67,24.76,2.45,36.36,.37,5.8,.73,11.41,1.07,16.73,.47,5.31,.38,10.45-.21,15.09-.56,4.65-1.64,8.85-3.06,12.39-1.42,3.53-3.16,6.4-4.9,8.51-1.73,2.11-3.37,3.51-4.53,4.38-1.18,.85-1.84,1.26-1.84,1.26,0,0,.65-.43,1.8-1.32,1.13-.9,2.72-2.35,4.36-4.49,1.65-2.14,3.27-5.02,4.56-8.55,1.27-3.53,2.2-7.69,2.7-12.28,.5-4.6,.49-9.6-.07-14.9-.41-5.32-.84-10.92-1.28-16.72-.85-11.6-1.76-23.97-2.66-36.34-.83-12.38-1.67-24.76-2.45-36.36-.73-11.61-1.4-22.44-1.98-31.73-1.03-18.58-1.72-30.97-1.72-30.97Z"/></g></g></g></svg>