<?xml version="1.0" encoding="UTF-8"?><svg id="Layer_1" xmlns="http://www.w3.org/2000/svg" viewBox="0 0 750 750"><defs><style>.cls-1{fill:#ebedee;}.cls-2{fill:#e9ba46;}.cls-3{fill:#ffd158;}.cls-4{fill:#bd4431;}.cls-5{fill:#c4c4c4;}.cls-6{fill:#d55339;}.cls-7{fill:#d9dadb;}.cls-8{fill:#4cadbd;}</style></defs><rect class="cls-8" x="-5.46" width="760.91" height="760.91"/><g><path class="cls-6" d="M282.92,504.26l80.92-37.06c12.68,24.57-9.1,35.58-.9,66.91,3.23,11.78,11.76,7.29,18.65,19.95l5.35,32.46,29.72,18.14c5.1,9.89-6.28,23.49-6.28,23.49,0,0-24.38,35.7-44.98,34.82-28.91-.85-82.48-158.7-82.48-158.7Z"/><path class="cls-4" d="M362.93,534c-7.61-30.07,11.09-41.03,2.26-63.09l-50.82,18.93-31.33,14.41s1.45,4.58,4.65,12.49l77.7,21.83c-1.14-1.19-1.74-2.44-2.45-4.57Z"/><path class="cls-6" d="M151.67,374.86l43.46-22c2.83,19.26,14.67,51.35,32.52,86.25,17.79,34.46,37.45,62.6,52.17,75.95l-43.46,22c-29.6,14.97-72.27-9.32-95.65-54.05-23.53-45.05-18.53-93.19,10.96-108.14Z"/><path class="cls-1" d="M457.07,322.16c-48.75-93.87-71.72-180.86-56.16-207.27-2.29,2.94-4.82,6.69-7.68,12.25-24.95,48.95-63.97,152.38-231.51,236.85l.05,.44c-10.22,5.14,1.11,47.38,25.13,93.7,24.07,46.75,51.84,80.42,62.16,75.15,167.54-84.47,276.02-53.83,331.13-45.37,17.38,2.61,26.02-4.56,26.02-4.56-26.59,14.26-94.82-57.15-149.15-161.18Z"/><path class="cls-7" d="M397.9,157.57c1.01-26.71,1.67-32.11,2.41-40.4l.27-1.36c-1.86,2.89-4.44,6.2-6.9,11.38-25.4,48.9-64.42,152.32-231.96,236.79l.05,.44c-4.04,2.27-4.82,10.24-2.52,21.69l13.66-6.01c154.37-77.18,199.03-170.9,224.97-222.52Z"/><path class="cls-7" d="M413.06,100.31c-32.39,16.64-15.28,116.21,38.39,222.1,53.24,105.95,122.93,178.5,155.27,161.42,32.39-16.64,15.28-116.21-38.39-222.1-53.67-105.89-123.32-178.01-155.27-161.42Z"/><path class="cls-5" d="M499.33,360.12c-53.24-105.95-70.45-205.5-38.39-222.1,6.98-3.52,15.33-3.23,24.91,.79-29.19-31.72-56.02-47.11-72.79-38.5-32.39,16.64-15.28,116.21,38.39,222.1,42.28,83.71,94.46,146.25,130.23,160.54-27.08-28.99-56.45-71.98-82.36-122.83Z"/><path class="cls-3" d="M435.93,278.48c-1.69,.65-2.89,1.69-4.04,2.27,5.58,13.71,12.14,27.3,19.13,41.72,10.41,20.53,21.59,40.08,32.87,57.85,1.25-.6,2.51-1.2,3.33-1.74,27.48-14.26,38.58-47.98,24.59-75.94-14.25-27.37-47.97-38.47-75.88-24.16Z"/><path class="cls-2" d="M499.33,360.12c-15.5-30.31-27.52-60.28-36.6-87.96-8.78-.24-18.06,1.8-26.68,6.41-1.69,.65-2.89,1.69-4.04,2.27,5.58,13.71,12.14,27.3,19.13,41.72,10.41,20.53,21.59,40.08,32.87,57.85,1.25-.6,2.51-1.2,3.33-1.74,6.17-2.98,11.31-7.05,15.57-12.01-1.25-2.06-2.4-4.13-3.58-6.54Z"/></g></svg>