<?xml version="1.0" encoding="UTF-8"?><svg id="Layer_1" xmlns="http://www.w3.org/2000/svg" viewBox="0 0 750 750"><defs><style>.cls-1{fill:none;}.cls-2{fill:#f3a833;}.cls-3{fill:#f8f8ee;}.cls-4{fill:#fff;}.cls-5{fill:#ed1c24;}.cls-6{fill:#ffac79;}.cls-7{fill:#c1272d;}.cls-8{fill:#d4145a;}.cls-9{fill:#17488d;}.cls-10{fill:#141c34;}.cls-11{fill:#3a011f;}.cls-12{fill:#ff755f;opacity:.57;}.cls-13{fill:#e55a5a;opacity:.59;}</style></defs><rect class="cls-9" x="-5.46" width="760.91" height="760.91"/><g><g><path class="cls-2" d="M506.69,469.55c37.17,37.17,97.44,37.17,134.62,0,37.17-37.17,37.17-97.44,0-134.62-37.17-37.17-97.44-37.17-134.62,0-37.17,37.17-37.17,97.44,0,134.62Zm117.63-117.63c27.79,27.79,27.79,72.86,0,100.65-27.79,27.79-72.86,27.79-100.65,0s-27.79-72.86,0-100.65c27.79-27.79,72.86-27.79,100.65,0Z"/><path class="cls-2" d="M633.18,354.05c-2.82,0-5.63-1.07-7.78-3.22-4.3-4.3-4.3-11.26,0-15.56l45.22-45.22c4.3-4.29,11.26-4.3,15.56,0,4.3,4.3,4.3,11.26,0,15.56l-45.22,45.22c-2.15,2.15-4.96,3.22-7.78,3.22Z"/><path class="cls-2" d="M682.17,334.37c-2.82,0-5.63-1.07-7.78-3.22l-29.3-29.3c-4.3-4.3-4.3-11.26,0-15.56s11.26-4.3,15.56,0l29.3,29.3c4.3,4.3,4.3,11.26,0,15.56-2.15,2.15-4.96,3.22-7.78,3.22Z"/></g><g><path class="cls-2" d="M90.63,406.88c0,52.57,42.62,95.19,95.19,95.19s95.19-42.62,95.19-95.19-42.62-95.19-95.19-95.19-95.19,42.62-95.19,95.19Zm166.36,0c0,39.31-31.86,71.17-71.17,71.17s-71.17-31.86-71.17-71.17,31.86-71.17,71.17-71.17,71.17,31.86,71.17,71.17Z"/><rect class="cls-2" x="86.69" y="281.18" width="19" height="81.43" transform="translate(-207.69 178.64) rotate(-48.12)"/><path class="cls-2" d="M63.34,322.13c-.09,0-.18,0-.27,0-3.59-.15-6.37-3.18-6.23-6.76l.88-21.32c.14-3.4,2.69-6.2,6.05-6.67l22.42-3.16c3.56-.5,6.84,1.97,7.34,5.53,.5,3.55-1.97,6.84-5.53,7.34l-17.5,2.47-.68,16.35c-.14,3.5-3.02,6.23-6.49,6.23Zm2.25-21.89h0Z"/></g></g><rect class="cls-4" x="253.41" y="367.19" width="71.65" height="205.16"/><path class="cls-11" d="M325.51,228.58c-5.24-6.15-12.5-10.5-20.74-12.04-3.74-3.42-8.58-5.57-13.7-6.26-21.47-2.86-27.45,11.44-41.93,20.98-20.14,13.27-10.43,33.55-3.21,40.61l.08,6.12c.15,11.05,9.23,19.89,20.29,19.74l53.58-.73c8.19-.11,14.73-6.84,14.62-15.02l-.15-11,8.05-15.01c3.8-12.59-4.47-25.27-16.9-27.39Z"/><path class="cls-6" d="M347.44,292.84c-.07-6.88-5.71-12.41-12.59-12.34l-4.75,.05-.37,.69s1.64-31.24-10.22-37c0,0-5.33,16.92-47.59,13.51-6.45-.52-12.93,1.74-17.43,6.39-1.17,1.2-2.46,3.41-3.35,5.44v11.76l-4.55,.05c-6.88,.07-12.41,5.71-12.34,12.59l.03,2.93c.07,6.88,5.71,12.41,12.59,12.34l5.06-.05,.04,3.58c.11,10.65,4.97,20.11,12.52,26.46v25.36c0,13.94,11.3,25.25,25.25,25.25h2.25c13.94,0,25.25-11.3,25.25-25.25v-25.02c8.03-6.5,13.14-16.45,13.03-27.58l-.04-3.58,4.9-.05c6.88-.07,12.41-5.71,12.34-12.59l-.03-2.93Z"/><g><path class="cls-10" d="M299.85,396.61l8.91-22.7-45.29-5.27,10.16,27.67c1,2.73,2.65,4.85,4.65,6.36l-10.14,70.29,17.95,33.79,16.89-32.38-8.43-71.16c2.26-1.48,4.15-3.68,5.3-6.61Z"/><g><path class="cls-3" d="M256.78,350.43l-2.2,16.1,12.44,21.12c1.16,1.96,3.89,2.22,5.4,.51l14.32-16.33-24.07-23.43c-2.05-2-5.5-.81-5.88,2.03Z"/><path class="cls-3" d="M314.34,347.37l-27.6,24.47,15.28,16.73c1.45,1.59,3.97,1.49,5.3-.19l16.69-21.17-6.96-19.16c-.41-1.12-1.81-1.48-2.71-.69Z"/></g></g><g><g><path class="cls-8" d="M409.73,450.45c5.13-27.53-8.12-55.09-32.54-68.43v-.51l-57.85-27.16,4.66,12.86-4.8,6.23-.3,147.94-.81-.22-14.01-3.75-57.93-15.52-16.84,39.99c-.98,2.43,.23,5.18,2.67,6.12l26.41,10.13,38.13,14.62,.08,.03h87.46c2.97-4.43,5.13-9.55,6.16-15.2l19.52-107.14Z"/><path class="cls-8" d="M257.05,572.77l1.35-14.62-26.41-10.13c-2.44-.94-3.64-3.69-2.67-6.12l16.84-39.99,57.93,15.52,.15-20.74c.02-2.53-2.23-4.48-4.73-4.1l-40.25,6.08h-.07l.07-69.01,.05-54.62v-.43l-4.72-8.05,1.95-14.04-43.54,13.79c-14.31,4.68-25.38,16.12-29.59,30.58l-31.09,106.72c-8.42,25.93,10,52.81,37.22,54.32l22.33-1.79h.17l-2.26,16.69h47.27v-.03Z"/></g><g><polygon class="cls-13" points="226.31 423.93 228.11 423.4 227.25 429.85 213.06 501.9 206.81 503.66 226.36 424 226.31 423.93"/><polygon class="cls-13" points="237.76 501.9 229.73 498.81 259.19 495.35 259.19 498.67 237.76 501.9"/></g><g><polygon class="cls-1" points="259.19 498.67 259.26 498.66 259.26 429.65 259.19 498.67"/><g><path class="cls-13" d="M354.89,436.21l-13.46,58.21h-7.05s18.91-57.78,20.49-63.23l.06,2.45-.05,2.57Z"/><polygon class="cls-13" points="304.28 522.68 242.3 501.22 250.5 499.98 304.28 519.61 304.28 522.68"/></g><g><path class="cls-13" d="M304.05,522.6s27.82,3.39,36.17,15.34c2.85,4.08,6.01,7.06,8.93,5.27,6.27-3.84,8.33-11.97,5.26-18.65-4.87-10.59-13.72-26.7-22.28-26.01-12.72,1.02,5.48,1.66,5.48,1.66l2.94-12.71-9.23,2.56c-3.06,.85-6,2.08-8.75,3.67l-2.36,1.36-15.94,1.14-.22,26.38Z"/><path class="cls-6" d="M304.05,522.6s34.53,2.54,38.86,14.45c1.7,4.68,6.01,7.06,8.93,5.27,6.27-3.84,8.33-11.97,5.26-18.65-4.87-10.59-13.72-26.7-22.28-26.01-12.72,1.02,5.48,1.66,5.48,1.66l2.94-12.71-9.23,2.56c-3.06,.85-6,2.08-8.75,3.67l-2.36,1.36-18.62,2.03-.22,26.38Z"/><path class="cls-12" d="M351.5,542.06c.56,0,1.01-.44,1.02-1,0-.27,.03-6.8-5.6-13.91-.35-.44-.99-.51-1.43-.17-.44,.35-.51,.99-.16,1.43,5.15,6.5,5.16,12.56,5.16,12.62,0,.56,.44,1.02,1,1.03h.01Z"/><path class="cls-12" d="M356.87,536.28c.56,0,1.01-.44,1.02-1,0-.27,.03-6.81-5.6-13.91-.35-.44-.99-.51-1.43-.17-.44,.35-.51,.99-.16,1.43,5.15,6.5,5.15,12.56,5.15,12.62,0,.56,.44,1.02,1,1.03h.01Z"/></g><g><path class="cls-13" d="M244.66,552.87l-12.68-4.86c-2.44-.94-3.64-3.69-2.67-6.12l2.55-6.34-.35-.48c-.13,.16-.25,.22-.33,.16-1.44-1.08-18.75-36.78-35.34-28.49-2.58,1.29-3.84,1.61-4.07,1.28-2.54,2.27-2.4,3.3,2.47,.87,14.7-7.35,29.96,19.84,34.25,26.88l-2.58,6.62c-.9,2.32,.14,4.94,2.39,6l10.65,5.03-27.08,2.67-.5,4.96,35.75-3.17,10.8,5.49,.48-5.24-13.74-5.27Z"/><path class="cls-6" d="M195.83,506.74c16.59-8.29,33.9,27.41,35.34,28.49,.09,.07,.2,0,.33-.16,2.06-2.53,9.18-30.71,9.52-31.73,.36-1.08-11.3-4.53-11.3-4.53-10.35-13.2-39.21,7.45-37.97,9.22,.23,.33,1.48,0,4.07-1.28Z"/></g></g></g><g><path class="cls-11" d="M580.74,378.77c-2.11-4.86-2.21-10.36-.29-15.29,3.41-8.76,2.14-18.64-3.35-26.26l-2.44-3.39c-3.71-5.15-5.44-11.46-4.87-17.78h0c.05-.56,.09-1.12,.11-1.68,.27-6.17-1.3-11.98-4.21-16.98-.26-14.05-5.82-52.46-59.04-50.9-27.08,.79-38.19,17.19-42.69,29.07-3.97,3.78-7,8.62-8.55,14.26-.15,.54-.28,1.08-.41,1.63h0c-1.4,6.19-4.98,11.67-10.1,15.43l-3.36,2.47c-7.57,5.57-11.8,14.59-11.25,23.97h0c.31,5.29-1.48,10.49-4.97,14.46h0c-6.38,7.25-5.26,18.39,2.42,24.24l21.54,16.38c10.4,7.91,25.44,1.38,26.77-11.61l.38-3.68c.51-4.97,3.52-9.33,7.98-11.57,6.5-4.23,10.49-11.2,10.74-18.92,.23-7,.53-36.04,3.19-42.75,.61-1.55,2.43-7.77,4.11-13.69,4.93,3.7,12.44,7.18,23.86,8.88-.24,6.54-.46,13.92-.34,15.71,.48,7.2-8.15,34.93-10.09,41.66-2.13,7.42-.48,15.28,4.41,21.3,3.56,3.5,5.08,8.58,4.04,13.46l-.77,3.61c-2.72,12.77,9.6,23.6,21.92,19.27l25.52-8.97c9.11-3.2,13.59-13.46,9.75-22.32h0Z"/><g><path class="cls-10" d="M574.24,543.14c-6.55-9.53-13.16-18.9-18.51-28.93l-51.39,2.31-51.01-6.03-5.52,6.43-7.69,8.96-8.06,9.39c-9.58,11.17-16.28,23.93-19.8,37.43h175.7c-2.76-10.33-7.36-20.31-13.72-29.56Z"/><g><polygon class="cls-10" points="461.73 375.2 484.96 375.21 503.31 389.67 531.8 375.22 542.33 375.23 502.32 482.88 461.73 375.2"/><g><path class="cls-7" d="M542.33,375.22h-.27c.09,0,.18,0,.27,.01h0Z"/><path class="cls-7" d="M461.3,375.2h0c.14,0,.28,0,.42,0h-.42Z"/><path class="cls-7" d="M621.95,455.85l-8.24-10.77-37.3-49.88c-11.48-13.07-16.98-19.56-34.08-19.97-.09,0-.18,0-.27-.01-.12,0-.23-.01-.35-.01h0l-15.07,37.89-.27,.69-21.47,53.95-6.49-.37-10.83-27.21-10.76-27.05-15.08-37.89h0c-.14,0-.28,0-.42,0h-.1c-28.64,.5-52.36,22.44-55.42,50.92l-3.07,28.65h-.12l-.31,3.96h0l-3.79,48.55c.46,21.78,21.41,36.7,42.79,31.64l67.74-12.41c1-.18,1.81-.76,2.33-1.52,8.1-.71,16.12-2.39,23.89-5.08l13.2-4.57,1.1,.15,30.64,4.09c7.67,1.02,15.55,.3,22.68-2.69,25.9-10.87,31.19-42.51,19.08-61.05Z"/><path class="cls-7" d="M488.85,459.34l-34.06-36.26c-.56-.59-.75-1.41-.52-2.19,.23-.78,.83-1.36,1.62-1.56l9.92-2.52-23.33-20.42c-.92-.8-1.3-1.99-1.01-3.18,.29-1.19,1.16-2.08,2.35-2.38l16.16-4.09,.24,.97-16.16,4.08c-.82,.21-1.42,.82-1.62,1.64-.2,.82,.06,1.64,.7,2.2l24.76,21.67-11.76,2.99c-.44,.11-.78,.44-.91,.88-.13,.44-.02,.89,.29,1.22l34.06,36.26-.73,.69Z"/><path class="cls-7" d="M515.66,460.34l-.73-.69,34.06-36.26c.31-.33,.42-.79,.29-1.22-.13-.44-.47-.76-.91-.88l-11.76-2.99,24.76-21.67c.63-.56,.9-1.38,.7-2.2-.2-.82-.8-1.43-1.62-1.64l-16.16-4.08,.24-.97,16.16,4.09c1.19,.3,2.06,1.19,2.35,2.38,.29,1.19-.09,2.38-1.01,3.18l-23.33,20.42,9.92,2.52c.79,.2,1.39,.79,1.62,1.56,.23,.78,.03,1.6-.53,2.19l-34.06,36.26Z"/></g><g><path class="cls-5" d="M482.84,503.79l-1.14-7.92-.66-.19-1.14,7.48c0,3.24,2.46,5.94,5.68,6.25l63.98,6.1h0l-63.43-8.47c-1.7-.23-3.04-1.55-3.28-3.25Z"/><polygon class="cls-5" points="441.21 440.27 438.43 476.57 470.31 467.85 442.26 471.97 441.21 440.27"/><polygon class="cls-5" points="540.72 469.78 504.89 467.73 506.36 464.04 540.72 469.78"/><path class="cls-5" d="M477.64,467.23h0c0-2.79,3.59-4.94,7.64-4.57l11.71,1.14,1.42,3.56-20.76-.13Z"/><polygon class="cls-5" points="558.35 445.52 580.62 471.5 576.07 471.8 558.91 450.3 558.35 445.52"/><g><path class="cls-1" d="M574.69,471.72l2.2,.13-.1-.11c-.69-.07-1.4-.07-2.11-.01Z"/><path class="cls-6" d="M576.8,471.73l-10.51-12.31c-4.55-1.69-9.11-1.85-12.7,1.18-5.06,1.12-8.9,4.77-10.51,9.31l31.61,1.81c.71-.06,1.41-.05,2.11,.01Z"/></g><g><path class="cls-6" d="M436.37,491.87l-.3-.62c-.97-2.01-.14-4.43,1.87-5.4l4.3-2.09-3.17,1.54c-1.75,.85-3.91,.25-4.86-1.44-1.3-2.32-.43-5.24,1.89-6.46,2.55-1.34,6.07-2.9,9.73-3.61,4.72-.91,13.2-3.11,18.32-4.46,2.91-.77,5.86-1.32,8.86-1.65l4.62-.5,4.78,32.9-26.52,3.08c-2.46,1.19-5.43,.15-6.6-2.34-.32-.69,0-1.52,.69-1.85l1.22-.59-3.18,1.54c-2.24,1.09-4.94,.15-6.03-2.09l-.23-.47c-.8-1.65-.11-3.64,1.54-4.45l4.39-2.13-6.04,2.93c-1.97,.96-4.35,.13-5.3-1.84Z"/><path class="cls-12" d="M444.11,483.9c.42-.22,.58-.74,.38-1.16-.21-.44-.74-.62-1.18-.4l-5.73,2.8c-.44,.16-.62,.74-.4,1.18,.21,.44,.74,.62,1.18,.4l5.73-2.8h.03Z"/><path class="cls-12" d="M442.22,494.59h.01l7.05-3.9c.43-.24,.58-.77,.34-1.19-.23-.43-.76-.52-1.19-.34l-7.05,3.9c-.43,.24-.58,.77-.34,1.19,.23,.42,.76,.58,1.18,.35Z"/><path class="cls-12" d="M454.82,497.33c.42-.22,.58-.74,.38-1.16-.21-.44-.74-.62-1.18-.4l-5.38,2.64c-.44,.18-.61,.74-.4,1.18,.21,.44,.74,.62,1.18,.4l5.38-2.64h.03Z"/></g></g></g></g></g><g><path class="cls-6" d="M556.43,322.99c.69-6.47-3.99-12.27-10.45-12.96l-1.11-.12h0l-3.16-.34c-2.76-5.62-1-12.11-1-12.11-.31-.13-.62-.26-.94-.4-10.16-4.24-18.83-11.09-25.38-19.69-8.08,6.93-17.83,11.78-28.49,13.85-.33,.06-.67,.13-1,.2,0,0,.41,6.74-3.46,11.69l-7.04-.75h0l-2.9-.31c-3.67-.39-7.12,.95-9.55,3.36-1.85,1.84-3.11,4.3-3.41,7.09-.33,3.08,.57,6,2.29,8.3,1.89,2.53,4.78,4.3,8.17,4.67l1.05,.11,1.85,.2-.64,6.01c-1.2,11.23,2.99,21.8,10.49,29.13l-.85,7.97c-1.05,9.84,7.97,18.96,20.05,20.25,12.08,1.29,22.83-5.7,23.88-15.54l.89-8.27c8.67-5.6,14.83-14.92,16.01-25.99l.64-6.01,1.11,.12c2.22,.24,4.35-.17,6.23-1.05,3.61-1.69,6.27-5.15,6.73-9.4Z"/><path class="cls-3" d="M473.82,365.83l-2.9,15.99,11.5,21.64c1.07,2.01,3.79,2.39,5.37,.74l15.02-15.68-23.02-24.46c-1.96-2.08-5.46-1.05-5.97,1.77Z"/><path class="cls-3" d="M532.99,372.11l-.39,16.25-15.63,18.88c-1.45,1.75-4.2,1.57-5.41-.36l-11.55-18.39,27.49-19.31c2.34-1.64,5.56,.08,5.49,2.94Z"/></g></svg>