<?xml version="1.0" encoding="UTF-8"?><svg xmlns="http://www.w3.org/2000/svg" viewBox="0 0 750 750"><defs><style>.cls-1{letter-spacing:-.01em;}.cls-2{font-family:Montserrat-Medium, Montserrat;font-size:36.28px;}.cls-2,.cls-3{fill:#eebe74;}.cls-4{fill:#e7e9ef;}.cls-5{fill:#9c9c9c;}.cls-6{fill:#b9d9ee;}.cls-7{fill:#0f7ab6;}.cls-8{fill:#1b3b57;}.cls-9{fill:#1b3b6c;}.cls-10{opacity:.3;}.cls-10,.cls-11{fill:#fff;mix-blend-mode:soft-light;}.cls-12{fill:#d6d6d6;mix-blend-mode:multiply;}.cls-13{letter-spacing:-.05em;}.cls-14{isolation:isolate;}</style></defs><g class="cls-14"><g id="Layer_1"><rect class="cls-6" x="-5.46" y="-5.85" width="760.91" height="760.91"/><g><g><path class="cls-4" d="M634.22,331.66l-358.49,229.08c-5.27,3.37-12.27,1.83-15.64-3.44l-92.5-144.75c-3.37-5.27-1.83-12.27,3.44-15.64l358.49-229.08c5.27-3.37,12.27-1.83,15.64,3.44l92.5,144.75c3.37,5.27,1.83,12.27-3.44,15.64Z"/><rect class="cls-7" x="146.69" y="326.84" width="351.01" height="3.42" transform="translate(-126.21 225.19) rotate(-32.58)"/><rect class="cls-7" x="151.06" y="333.67" width="351.01" height="3.42" transform="translate(-129.21 228.61) rotate(-32.58)"/><rect class="cls-7" x="223.26" y="432.47" width="448.08" height="3.42" transform="translate(-163.41 309.17) rotate(-32.58)"/><path class="cls-7" d="M541.58,218.78l.27-1.21c.37-1.7-.7-3.37-2.39-3.74h0c-1.07-.24-2.13,.11-2.87,.82l-7.09-5.87c3.29-16.26-1.3-20.62-3.53-21.11-2.23-.49-8.23,1.53-12.07,17.67l-8.9,2.35c-.37-.95-1.19-1.71-2.26-1.95h0c-1.7-.37-3.37,.7-3.74,2.39l-.27,1.21-10.17,2.68c-.78,.21-1.46,.7-1.91,1.37l-3.22,4.91c-.35,.54,.05,1.24,.69,1.21l27.38-1.41c-1.64,10.49-3.01,23.05-3.41,32.22l-4.64,1.99c-.63,.27-1.14,.77-1.42,1.4l-1.28,2.88c-.4,.91,.38,1.9,1.36,1.71l5.89-1.13c.11,3.49,.53,5.69,1.35,5.87s2.13-1.64,3.69-4.76l4.87,3.51c.81,.58,1.94,.01,1.96-.98l.05-3.15c.01-.69-.24-1.36-.7-1.87l-3.37-3.76c3.5-8.49,7.53-20.47,10.45-30.67l24.25,12.79c.57,.3,1.23-.17,1.14-.81l-.86-5.81c-.12-.8-.53-1.53-1.15-2.05l-8.1-6.71Z"/><g><rect class="cls-7" x="422.89" y="283.23" width="2.74" height="4.11" transform="translate(-86.85 273.32) rotate(-32.58)"/><path class="cls-7" d="M488.05,382.56l-2.31,1.48-4.39-6.88,2.31-1.48,4.39,6.88Zm-8.79-13.76l-2.31,1.48-4.39-6.88,2.31-1.48,4.39,6.88Zm-8.79-13.76l-2.31,1.48-4.39-6.88,2.31-1.48,4.39,6.88Zm-8.79-13.76l-2.31,1.48-4.4-6.88,2.31-1.47,4.39,6.88Zm-8.79-13.76l-2.31,1.48-4.39-6.88,2.31-1.48,4.39,6.88Zm-8.79-13.75l-2.31,1.48-4.4-6.88,2.31-1.47,4.39,6.88Zm-8.79-13.76l-2.31,1.48-4.39-6.88,2.31-1.47,4.4,6.88Z"/><rect class="cls-7" x="491.03" y="389.85" width="2.74" height="4.11" transform="translate(-133.54 326.78) rotate(-32.58)"/></g><g><rect class="cls-5" x="209.36" y="390.96" width="158.94" height="10.76" transform="translate(-167.96 217.89) rotate(-32.58)"/><rect class="cls-5" x="219.89" y="407.44" width="158.94" height="10.76" transform="translate(-175.18 226.15) rotate(-32.58)"/><rect class="cls-5" x="247.23" y="462.78" width="72.92" height="10.76" transform="translate(-207.45 226.42) rotate(-32.58)"/><rect class="cls-5" x="319.71" y="416.46" width="72.92" height="10.76" transform="translate(-171.1 258.16) rotate(-32.58)"/><rect class="cls-5" x="258.78" y="480.86" width="72.92" height="10.76" transform="translate(-215.37 235.48) rotate(-32.58)"/><rect class="cls-5" x="331.26" y="434.54" width="72.92" height="10.76" transform="translate(-179.02 267.23) rotate(-32.58)"/></g><g><path class="cls-7" d="M495.81,337.78c1.47,2.31,.57,4.75-2.83,6.92l-6.42,4.1-8.6-13.46,6.04-3.86c3.09-1.98,5.66-1.78,7.05,.4,.93,1.46,.83,2.96,.11,4.15,1.79-.55,3.51-.05,4.66,1.74Zm-14.93-2.1l2.75,4.31,3.94-2.52c1.96-1.25,2.61-2.7,1.7-4.12-.91-1.42-2.49-1.44-4.45-.19l-3.94,2.52Zm12.89,3.19c-1-1.56-2.59-1.51-4.72-.15l-4.42,2.83,2.86,4.48,4.42-2.83c2.13-1.36,2.86-2.77,1.86-4.33Z"/><path class="cls-7" d="M495.72,333.48c-2.52-3.94-1.36-8.82,2.77-11.46,4.09-2.62,9-1.63,11.53,2.32,2.53,3.96,1.36,8.82-2.73,11.44-4.13,2.64-9.05,1.64-11.57-2.3Zm12.38-7.91c-1.9-2.98-5.53-3.75-8.51-1.84-3.02,1.93-3.85,5.54-1.94,8.52,1.9,2.98,5.53,3.75,8.55,1.82,2.98-1.9,3.81-5.52,1.91-8.5Z"/><path class="cls-7" d="M523.48,320.47l-7.15,4.57,.67,4.31-1.98,1.27-2.5-17.35,1.9-1.22,14.71,9.55-2.02,1.29-3.63-2.42Zm-1.66-1.11l-7.12-4.74,1.31,8.45,5.8-3.71Z"/><path class="cls-7" d="M540.12,314.58l-5.54-2.28c-.26,.19-.53,.39-.82,.58l-3.33,2.13,2.62,4.09-1.92,1.23-8.6-13.46,5.25-3.35c3.5-2.24,6.74-1.82,8.61,1.1,1.33,2.08,1.21,4.26-.25,6.14l6.08,2.48-2.09,1.34Zm-5.66-8.73c-1.23-1.92-3.22-2.19-5.68-.62l-3.27,2.09,3.87,6.05,3.27-2.09c2.46-1.57,3.04-3.51,1.81-5.43Z"/><path class="cls-7" d="M536.5,297.94l5.67-3.62c4.33-2.76,9.01-1.91,11.57,2.08,2.55,4,1.36,8.61-2.97,11.37l-5.67,3.62-8.6-13.46Zm13.09,8.23c3.33-2.12,4.16-5.53,2.23-8.54-1.93-3.02-5.36-3.69-8.69-1.57l-3.63,2.32,6.46,10.11,3.63-2.32Z"/><path class="cls-7" d="M552.37,287.8l1.92-1.23,8.6,13.46-1.92,1.23-8.6-13.46Z"/><path class="cls-7" d="M569.9,276.6l8.6,13.46-1.58,1.01-14.49-4.88,6.41,10.03-1.92,1.23-8.6-13.46,1.58-1.01,14.49,4.88-6.41-10.03,1.92-1.23Z"/><path class="cls-7" d="M587.51,274.72l1.84-1.18,3.35,5.25c-.62,1.99-2.12,3.76-4,4.97-4.13,2.64-9.03,1.68-11.57-2.3-2.54-3.98-1.36-8.82,2.81-11.49,2.13-1.36,4.4-1.81,6.5-1.23l-.43,1.95c-1.8-.36-3.38-.03-4.9,.94-3.11,1.99-3.98,5.6-2.06,8.6,1.89,2.96,5.55,3.73,8.65,1.76,1.13-.72,2.03-1.65,2.6-2.88l-2.8-4.38Z"/><path class="cls-7" d="M506.56,356.16c1.87,2.92,.88,6.04-2.62,8.28l-3.33,2.13,2.6,4.08-1.92,1.23-8.6-13.46,5.25-3.35c3.5-2.24,6.74-1.82,8.61,1.1Zm-1.92,1.23c-1.23-1.92-3.22-2.19-5.68-.62l-3.27,2.09,3.86,6.04,3.27-2.09c2.46-1.57,3.05-3.49,1.82-5.41Z"/><path class="cls-7" d="M520.73,354.71l-7.15,4.57,.67,4.31-1.98,1.26-2.51-17.35,1.9-1.22,14.71,9.55-2.02,1.29-3.63-2.42Zm-1.66-1.11l-7.12-4.74,1.31,8.45,5.81-3.71Z"/><path class="cls-7" d="M526.16,353.81l-.25-1.96c1.58,.27,3.71-.17,5.44-1.28,2.33-1.49,2.75-3.03,2-4.2-2.1-3.29-8.92,4-12.12-1-1.33-2.08-.84-4.88,2.7-7.14,1.58-1.01,3.48-1.63,5.09-1.57l.35,1.94c-1.65,0-3.2,.5-4.39,1.26-2.29,1.46-2.65,3.05-1.9,4.22,2.1,3.29,8.94-3.98,12.09,.96,1.31,2.06,.79,4.88-2.76,7.15-2.06,1.31-4.52,1.91-6.23,1.6Z"/><path class="cls-7" d="M538.1,346.18l-.25-1.95c1.58,.27,3.71-.17,5.43-1.28,2.33-1.49,2.75-3.03,2-4.2-2.1-3.29-8.92,4-12.12-1-1.33-2.08-.84-4.88,2.7-7.14,1.58-1.01,3.48-1.63,5.09-1.57l.35,1.94c-1.65,0-3.2,.5-4.39,1.26-2.29,1.46-2.65,3.05-1.9,4.22,2.1,3.29,8.94-3.98,12.09,.96,1.31,2.06,.79,4.88-2.76,7.15-2.06,1.31-4.52,1.91-6.23,1.6Z"/></g><path class="cls-11" d="M634.22,331.66l-446.25,54.42,341.56-218.26c5.27-3.37,12.27-1.83,15.64,3.44l92.5,144.75c3.37,5.27,1.83,12.27-3.44,15.64Z"/></g><path class="cls-12" d="M634.22,331.66l-173.53,110.89-190.16,86.27c-13.62,5.52-23.44-2.07-27.75-10.56l-52.47-133.56,183.92-116.43,180.81-81.54,82.62,129.29c3.37,5.27,1.83,12.27-3.44,15.64Z"/><g><rect class="cls-4" x="203.21" y="253.98" width="448.08" height="194.43" rx="3.06" ry="3.06" transform="translate(-100.67 186.32) rotate(-22.08)"/><rect class="cls-7" x="179.18" y="299.7" width="351.01" height="3.42" transform="translate(-87.28 155.4) rotate(-22.08)"/><rect class="cls-7" x="182.23" y="307.21" width="351.01" height="3.42" transform="translate(-89.88 157.1) rotate(-22.08)"/><rect class="cls-7" x="234.39" y="426.37" width="448.08" height="3.42" transform="translate(-127.28 203.68) rotate(-22.08)"/><path class="cls-7" d="M590.4,233.47l.48-1.14c.68-1.6-.07-3.44-1.67-4.12h0c-1.01-.43-2.12-.28-2.97,.28l-5.9-7.07c6.2-15.39,2.48-20.51,.38-21.4-2.11-.89-8.37,0-15.09,15.18l-9.18,.69c-.19-1-.86-1.9-1.87-2.32h0c-1.6-.68-3.44,.07-4.12,1.67l-.48,1.14-10.49,.78c-.81,.06-1.56,.42-2.12,1l-4.06,4.24c-.44,.46-.17,1.23,.46,1.32l27.18,3.6c-3.52,10.01-7.16,22.11-9.22,31.06l-4.92,1.11c-.67,.15-1.26,.55-1.65,1.12l-1.78,2.6c-.56,.82,.03,1.94,1.03,1.93l6-.04c-.53,3.45-.51,5.69,.26,6.02,.78,.33,2.39-1.22,4.5-4l4.15,4.33c.69,.72,1.9,.37,2.1-.61l.62-3.09c.14-.68,.01-1.38-.35-1.97l-2.63-4.31c4.99-7.71,11.13-18.75,15.86-28.25l21.52,16.99c.5,.4,1.24,.05,1.27-.58l.21-5.87c.03-.81-.24-1.6-.76-2.22l-6.74-8.07Z"/><g><rect class="cls-7" x="461.56" y="275.41" width="2.74" height="4.11" transform="translate(-70.34 194.33) rotate(-22.08)"/><path class="cls-7" d="M507.92,384.75l-2.54,1.03-3.07-7.56,2.54-1.03,3.07,7.56Zm-6.13-15.13l-2.54,1.03-3.07-7.56,2.54-1.03,3.07,7.56Zm-6.14-15.13l-2.54,1.03-3.07-7.56,2.54-1.03,3.07,7.56Zm-6.13-15.13l-2.54,1.03-3.07-7.56,2.54-1.03,3.07,7.56Zm-6.14-15.13l-2.54,1.03-3.07-7.56,2.54-1.03,3.07,7.56Zm-6.13-15.12l-2.54,1.03-3.07-7.56,2.54-1.03,3.07,7.56Zm-6.14-15.13l-2.54,1.03-3.07-7.56,2.54-1.03,3.07,7.56Z"/><rect class="cls-7" x="509.12" y="392.67" width="2.74" height="4.11" transform="translate(-110.93 220.8) rotate(-22.08)"/></g><g><rect class="cls-5" x="230.05" y="356.6" width="158.94" height="10.76" transform="translate(-113.35 142.87) rotate(-22.08)"/><rect class="cls-5" x="237.4" y="374.72" width="158.94" height="10.76" transform="translate(-119.62 146.96) rotate(-22.08)"/><rect class="cls-5" x="254.91" y="426.28" width="72.92" height="10.76" transform="translate(-140.87 141.15) rotate(-22.08)"/><rect class="cls-5" x="334.62" y="393.95" width="72.92" height="10.76" transform="translate(-122.88 168.74) rotate(-22.08)"/><rect class="cls-5" x="262.97" y="446.16" width="72.92" height="10.76" transform="translate(-147.75 145.64) rotate(-22.08)"/><rect class="cls-5" x="342.69" y="413.83" width="72.92" height="10.76" transform="translate(-129.76 173.23) rotate(-22.08)"/></g><g><path class="cls-7" d="M523.86,342.27c1.03,2.54-.3,4.78-4.04,6.29l-7.06,2.86-6-14.8,6.64-2.69c3.4-1.38,5.89-.71,6.86,1.67,.65,1.61,.28,3.06-.65,4.1,1.86-.21,3.46,.59,4.26,2.55Zm-14.3-4.79l1.92,4.74,4.33-1.76c2.16-.87,3.06-2.18,2.42-3.74-.63-1.56-2.19-1.87-4.34-1l-4.33,1.76Zm12.09,5.48c-.69-1.71-2.27-1.96-4.62-1.01l-4.86,1.97,2,4.93,4.86-1.97c2.35-.95,3.31-2.21,2.62-3.92Z"/><path class="cls-7" d="M524.55,338.03c-1.76-4.33,.27-8.92,4.82-10.76,4.5-1.83,9.15,.03,10.91,4.39,1.77,4.36-.27,8.92-4.77,10.75-4.54,1.84-9.2-.04-10.96-4.37Zm13.61-5.52c-1.33-3.28-4.76-4.69-8.03-3.36-3.32,1.35-4.79,4.75-3.47,8.03,1.33,3.28,4.76,4.69,8.08,3.35,3.28-1.33,4.75-4.73,3.42-8.01Z"/><path class="cls-7" d="M554.22,330.31l-7.86,3.19-.13,4.36-2.18,.88,.7-17.52,2.09-.85,12.72,12.07-2.22,.9-3.13-3.04Zm-1.43-1.39l-6.13-5.96-.25,8.55,6.38-2.59Z"/><path class="cls-7" d="M571.65,327.54l-5.04-3.25c-.29,.14-.6,.29-.91,.42l-3.66,1.48,1.83,4.5-2.11,.86-6-14.8,5.77-2.34c3.85-1.56,6.96-.56,8.27,2.65,.93,2.28,.41,4.41-1.36,5.99l5.52,3.54-2.3,.93Zm-3.97-9.61c-.86-2.11-2.76-2.74-5.47-1.65l-3.59,1.46,2.7,6.66,3.59-1.46c2.71-1.1,3.62-2.9,2.77-5.01Z"/><path class="cls-7" d="M571.12,310.53l6.24-2.53c4.76-1.93,9.21-.24,10.99,4.16,1.78,4.4-.23,8.71-4.99,10.64l-6.24,2.53-6-14.8Zm11.37,10.48c3.66-1.48,5.09-4.67,3.75-8-1.35-3.32-4.6-4.61-8.26-3.12l-4,1.62,4.51,11.12,4-1.62Z"/><path class="cls-7" d="M588.58,303.45l2.11-.86,6,14.8-2.11,.86-6-14.8Z"/><path class="cls-7" d="M607.85,295.63l6,14.8-1.73,.7-13.35-7.43,4.48,11.04-2.11,.86-6-14.8,1.73-.7,13.36,7.43-4.48-11.04,2.11-.86Z"/><path class="cls-7" d="M625.51,296.99l2.03-.82,2.34,5.77c-.97,1.85-2.77,3.31-4.84,4.15-4.54,1.84-9.18,0-10.95-4.37-1.77-4.38,.27-8.92,4.86-10.78,2.35-.95,4.65-.98,6.61-.02l-.78,1.84c-1.71-.69-3.32-.65-4.99,.03-3.43,1.39-4.93,4.78-3.59,8.08,1.32,3.26,4.78,4.68,8.18,3.3,1.25-.51,2.3-1.25,3.08-2.36l-1.96-4.82Z"/><path class="cls-7" d="M531.07,362.31c1.3,3.21-.23,6.1-4.08,7.66l-3.66,1.48,1.82,4.48-2.11,.86-6-14.8,5.77-2.34c3.85-1.56,6.96-.56,8.26,2.66Zm-2.11,.86c-.86-2.11-2.76-2.75-5.47-1.65l-3.59,1.46,2.69,6.64,3.59-1.46c2.71-1.1,3.63-2.88,2.78-4.99Z"/><path class="cls-7" d="M545.27,363.46l-7.86,3.19-.13,4.36-2.18,.88,.7-17.52,2.09-.85,12.72,12.07-2.22,.9-3.13-3.04Zm-1.43-1.39l-6.13-5.96-.25,8.54,6.38-2.59Z"/><path class="cls-7" d="M550.78,363.57l.11-1.97c1.5,.55,3.67,.5,5.58-.27,2.56-1.04,3.25-2.48,2.73-3.77-1.47-3.62-9.5,2.3-11.73-3.19-.92-2.28,.06-4.95,3.95-6.53,1.73-.7,3.72-.97,5.29-.62v1.97c-1.64-.3-3.25-.09-4.56,.44-2.52,1.02-3.17,2.51-2.64,3.8,1.47,3.62,9.51-2.28,11.72,3.15,.92,2.26-.11,4.94-4.02,6.53-2.26,.92-4.79,1.06-6.42,.44Z"/><path class="cls-7" d="M563.9,358.25l.11-1.97c1.5,.55,3.68,.5,5.58-.27,2.56-1.04,3.25-2.48,2.73-3.77-1.47-3.62-9.5,2.3-11.73-3.19-.92-2.28,.06-4.95,3.95-6.53,1.73-.7,3.72-.97,5.29-.62v1.97c-1.64-.3-3.25-.09-4.56,.44-2.52,1.02-3.16,2.51-2.64,3.8,1.47,3.62,9.51-2.28,11.72,3.15,.92,2.26-.11,4.94-4.02,6.53-2.26,.92-4.79,1.06-6.42,.44Z"/></g><path class="cls-11" d="M660.91,361.34l-448.69-27.84,375.62-152.34c5.8-2.35,12.4,.44,14.75,6.24l64.56,159.19c2.35,5.8-.44,12.4-6.24,14.75Z"/></g></g><g><path class="cls-9" d="M112.52,188.8H427.99c1.7,0,3.08,1.38,3.08,3.08v405.79c0,1.7-1.38,3.08-3.08,3.08H112.52c-1.7,0-3.08-1.38-3.08-3.08V191.88c0-1.7,1.38-3.08,3.08-3.08Z" transform="translate(-58.68 47.37) rotate(-9.04)"/><path class="cls-10" d="M445.87,575.4S228.97,429.18,177.05,201.04l204.09-32.47c8.6-1.37,16.68,4.49,18.05,13.09l59.78,375.69c1.37,8.6-4.49,16.68-13.09,18.05Z"/><path class="cls-8" d="M111.05,211.54l-16.41,2.61c-8.6,1.37-14.46,9.45-13.09,18.05l59.78,375.69c1.37,8.6,9.45,14.46,18.05,13.09l16.41-2.61L111.05,211.54Z"/><g><path class="cls-3" d="M255.77,303.74c-41.25,6.56-69.47,45.46-62.91,86.72s45.47,69.47,86.72,62.9c41.25-6.56,69.47-45.46,62.91-86.71s-45.46-69.47-86.71-62.91Zm76.29,104.6c-2.5-1.86-6.94-4.53-13.7-6.71,1.21-9.02,1.2-18.71-.17-28.69l19.83-3.16c1.7,13.61-.53,26.88-5.96,38.56Zm-133.98-16.29l19.83-3.16c1.79,9.91,4.79,19.13,8.74,27.33-5.75,4.18-9.14,8.09-10.94,10.63-8.78-9.42-15.03-21.34-17.63-34.8Zm5.21-43.28c2.5,1.86,6.94,4.53,13.7,6.71-1.21,9.02-1.2,18.71,.17,28.69l-19.83,3.16c-1.7-13.61,.53-26.88,5.96-38.56Zm85.39,24.02c-1.15-6.81-2.56-13.61-4.2-20.16,8.45-2.7,15.08-5.88,20.23-9.08,3.59,7.64,6.33,16.21,8,25.42l-24.03,3.82Zm-38.04,6.05c-1.06-7.02-1.81-13.66-2.26-19.8,4.87-.23,10.17-.76,15.92-1.67s10.96-2.06,15.65-3.35c1.48,5.98,2.82,12.52,4,19.52l-33.32,5.3Zm34.07-.58c1.06,7.02,1.81,13.66,2.26,19.8-4.87,.23-10.16,.76-15.92,1.67-5.76,.92-10.96,2.06-15.66,3.35-1.48-5.98-2.82-12.52-4-19.52l33.32-5.3Zm-1.42-30.29c-4.71-17.36-10.95-32.29-17.72-39.57,14.21,1.97,27.75,13.57,36.98,30.78-4.83,3.06-11.13,6.15-19.26,8.79Zm-4.55,1.39c-4.55,1.27-9.58,2.39-15.19,3.28s-10.74,1.39-15.46,1.59c-1.44-27.79,3.04-44.92,8.43-45.78s14.96,14.04,22.22,40.9Zm-35.4,4.97c-8.54,.01-15.5-.97-21.03-2.38,3.44-19.22,12.7-34.46,25.6-40.74-4.18,9.02-5.48,25.15-4.57,43.11Zm.31,4.79c.48,6.74,1.24,13.64,2.27,20.47l-24.03,3.82c-1.27-9.27-1.32-18.27-.28-26.65,5.89,1.44,13.17,2.41,22.05,2.35Zm-21.01,29.02l24.03-3.82c1.15,6.81,2.56,13.61,4.2,20.16-8.45,2.7-15.08,5.88-20.23,9.08-3.59-7.64-6.33-16.21-8-25.42Zm29.42,20.99c4.71,17.36,10.95,32.28,17.72,39.56-14.21-1.97-27.74-13.57-36.98-30.78,4.83-3.06,11.13-6.15,19.26-8.79Zm4.55-1.39c4.55-1.27,9.58-2.39,15.19-3.28s10.74-1.39,15.45-1.59c1.44,27.79-3.03,44.92-8.42,45.77-5.39,.86-14.96-14.03-22.22-40.9Zm35.4-4.97c8.54-.01,15.5,.97,21.03,2.37-3.44,19.22-12.7,34.45-25.6,40.74,4.18-9.02,5.48-25.15,4.57-43.11Zm-.31-4.79c-.48-6.74-1.24-13.64-2.27-20.47l24.03-3.82c1.27,9.27,1.32,18.27,.28,26.64-5.89-1.44-13.17-2.41-22.05-2.35Zm25.73-29.77c-1.79-9.91-4.79-19.13-8.74-27.33,5.75-4.18,9.14-8.09,10.94-10.63,8.78,9.42,15.02,21.34,17.63,34.8l-19.83,3.16Zm-1.29-41.36c-1.32,1.96-4.22,5.6-9.68,9.67-6.73-12.31-15.59-21.94-25.43-27.59,13.27,2.56,25.41,8.84,35.11,17.91Zm-82.79-10.33c-7.6,8.42-13.04,20.33-15.61,34.12-6.46-2.18-10.34-4.74-12.2-6.19,6.4-11.63,16-21.37,27.82-27.93Zm-14.16,113.73c1.32-1.96,4.22-5.6,9.68-9.67,6.73,12.3,15.6,21.94,25.43,27.59-13.27-2.56-25.41-8.84-35.11-17.91Zm82.79,10.32c7.59-8.42,13.03-20.33,15.61-34.12,6.46,2.17,10.34,4.74,12.2,6.19-6.4,11.63-15.99,21.37-27.81,27.93Z"/><text class="cls-2" transform="translate(150.32 277.93) rotate(-9.04)"><tspan class="cls-13" x="0" y="0">P</tspan><tspan x="24.56" y="0">ASSPO</tspan><tspan class="cls-1" x="152.86" y="0">R</tspan><tspan x="178.87" y="0">T</tspan></text><rect class="cls-3" x="199.58" y="521.86" width="184.42" height="16.45" transform="translate(-79.68 52.44) rotate(-9.04)"/></g></g></g></g></svg>