<?xml version="1.0" encoding="UTF-8"?><svg id="Layer_1" xmlns="http://www.w3.org/2000/svg" viewBox="0 0 750 750"><defs><style>.cls-1{fill:#e86a13;}.cls-2{fill:#e7f7f7;}.cls-3{fill:#fff;}.cls-4{fill:#f2b130;}.cls-5{fill:#ffcf4a;}.cls-6{fill:#ff9022;}.cls-7{fill:#7de2df;}.cls-8{fill:#a2fcf7;}.cls-9{fill:#dae8e8;}.cls-10{fill:#212121;}.cls-11{fill:#353535;}.cls-12{fill:#494949;}.cls-13{fill:#4c9847;}</style></defs><rect class="cls-13" x="-5.46" y="-5.85" width="760.91" height="760.91"/><g><path class="cls-1" d="M485.86,237.76s-17.21-5.32-17.02,21.12c.19,26.45,18.46,68.12,38.77,89.16,20.31,21.04,42.29,35.15,57.56,36.29,15.27,1.14,29.92-5.48,29.92-5.48,0,0-4.92,20.55-23.39,26.28-18.47,5.73-26.49,2.7-44.09-8.27-17.61-10.98-46.35-36.21-63.47-66.15-17.12-29.94-19.94-45.62-19.94-45.62,0,0-7.7-30.18,4.73-45.48,12.43-15.3,33.05-11.9,36.94-1.84Z"/><g><path class="cls-10" d="M484.4,229.61s-7.4,12.49-3.47,28.09c3.92,15.6,50.53,77.99,62.84,91.82,12.3,13.83,24.56,21.54,35.76,21.88s27.32-9.41,27.32-9.41l-122.44-132.37Z"/><path class="cls-11" d="M611.54,316.9s1.18,33.17-1.43,40.54-14.16,9.75-18.31,10.23-15.14-2.39-27.42-13.24c-12.28-10.85-50.36-64.3-60.68-77.93-10.32-13.63-15.17-28.85-15.69-39.76-.53-10.91,7.7-16.67,16.57-18.45,8.87-1.78,21.35-2.15,21.35-2.15l85.61,100.76Z"/></g><g><rect class="cls-12" x="528.39" y="206.74" width="55.36" height="148.25" rx="15.42" ry="15.42" transform="translate(-57.36 389.51) rotate(-36.84)"/><g><path class="cls-8" d="M545.77,233.23c-2.22-2.97-5.15-5.1-8.37-6.38l-16.12,38.8,23.7,31.64,3.7-60.17-2.91-3.88Z"/><path class="cls-7" d="M518.44,229.31c-8.59,6.44-10.36,18.74-3.92,27.33l6.75,9.01,16.12-38.8c-6.12-2.43-13.33-1.76-18.95,2.46Z"/><polygon class="cls-7" points="548.68 237.11 544.98 297.28 565.96 325.29 561.02 253.57 548.68 237.11"/><path class="cls-8" d="M561.02,253.57l4.95,71.71,1.39,1.85c4.43,5.91,11.63,8.59,18.49,7.59l-11.45-63.3-13.38-17.85Z"/><path class="cls-7" d="M598.6,303.73l-24.2-32.3,11.45,63.3c3.11-.45,6.16-1.66,8.84-3.67h0c8.59-6.44,10.36-18.74,3.92-27.33Z"/></g></g><g><path class="cls-2" d="M463.03,222.54c13.07,.06,14.72,2.99,16.72,2.18,2-.82,5.62-6.28,5.42-7.66s-10.86-4.47-18.2-4.17c-4.91,2.02-9.83,5.01-14.09,9.28-1.33,1.33-2.58,2.84-3.76,4.47,3.26-2.15,7.88-4.13,13.9-4.1Z"/><path class="cls-6" d="M489.15,209.84c-5.06-1-13.61-.47-22.17,3.05,7.33-.3,18.01,2.85,18.2,4.17,.2,1.38-3.42,6.85-5.42,7.66-2,.82-3.66-2.12-16.72-2.18-6.02-.03-10.64,1.96-13.9,4.1-9.2,12.75-13.42,34.28-4.94,58.43,0,0-7.02-33.95,15.07-46.27,16.93-9.44,28.51-.14,30.7-2.34,2.19-2.2,3.14-3.95,8.22-9.65,5.67-6.36,6.34-7.47,6.4-8.54,.06-1.06-7.47-6.88-15.43-8.45Z"/></g><g><path class="cls-2" d="M605.41,385.7c4.16-11.75,1.73-27.13,.62-27.6-1.11-.47-9.18,4.46-10.09,5.42s6.39,10.99-5.63,31.95c-6.66,11.61-18.64,15.65-28,16.94,4.93,.45,10.32,.3,16.11-.74,5.35-.96,9.9-2.64,13.78-4.78,6.48-5.75,9.99-12.09,13.21-21.2Z"/><path class="cls-6" d="M608.24,348.31c-1.85-.29-4.44,.78-8.13,2.57-7.15,3.45-12.33,6.1-13.07,8.29-.74,2.2,3.25,11.51-2.69,23.52-5.93,12-14.49,18.39-26.99,19.63-12.5,1.24-29.77-5.46-29.77-5.46,0,0,12.96,13.59,34.71,15.57,9.37-1.3,21.34-5.33,28-16.94,12.03-20.96,4.73-30.99,5.63-31.95s8.97-5.89,10.09-5.42c1.11,.47,3.54,15.85-.62,27.6-3.22,9.11-6.74,15.45-13.21,21.2,18.84-10.4,21.75-32.11,21.63-40.17-.15-9.73-3.73-18.13-5.58-18.42Z"/></g></g><g><path class="cls-2" d="M418.7,713.82l-1-9.4c47.76-5.09,70.51-31.11,71.86-54.63,1.39-24.23-18.38-44.52-50.36-51.71-79.32-17.82-135.61-50.69-136.17-51.02l4.8-8.14c.55,.32,55.65,32.46,133.44,49.94,36.74,8.25,59.4,32.38,57.73,61.47-1.58,27.51-27.02,57.81-80.29,63.49Z"/><path class="cls-3" d="M430.85,714.13c-17.99,0-35.32-1.92-50.53-5.3-34.69-7.69-57-21.61-66.31-41.35-8.83-18.71-5.99-42.57,8.44-70.9,26.85-52.73,79.81-81.23,82.05-82.42l4.43,8.35c-.52,.28-52.59,28.36-78.05,78.36-13.03,25.59-15.83,46.65-8.32,62.58,8,16.96,28.12,29.13,59.81,36.16,44.62,9.89,108.23,6.9,149.75-22.1,24.25-16.94,38.6-40.83,42.63-71,6.5-48.56-7.92-96.51-39.58-131.55-33.5-37.08-83.63-56.5-141.15-54.68-15.66,.5-30.93,1.25-45.7,1.99-106.77,5.31-191.12,9.5-221-97.45-11.17-39.99-5.71-76.23,16.24-107.71,31.42-45.06,90.49-68.22,113.68-70.09l32.57-2.63,.76,9.42-32.57,2.63c-21.69,1.75-77.04,23.57-106.68,66.08-20.26,29.05-25.27,62.61-14.89,99.76,27.85,99.68,104.85,95.85,211.42,90.55,14.81-.74,30.13-1.5,45.87-2,60.31-1.92,113.07,18.61,148.47,57.79,33.52,37.11,48.81,87.82,41.93,139.15-4.41,32.91-20.08,58.98-46.59,77.5-29.57,20.65-69.51,28.88-106.68,28.88Z"/><g><g><path class="cls-4" d="M310.94,137.91c-1.17,.21-2.34,.42-3.48,.63,1.27,2.6,2.59,6.51,2,10.89,1.2-.23,2.44-.46,3.7-.69,.47-4.42-.94-8.32-2.22-10.83Z"/><path class="cls-5" d="M324.8,135.52c1.25,2.61,2.51,6.47,1.91,10.79,.46-.07,.88-.14,1.24-.19,6.3-.94,9.45-5.56,9.45-7.93s-6.52-3.44-12.61-2.67Z"/><path class="cls-5" d="M307.46,138.54c-6.39,1.16-12.01,2.21-12.01,2.21l3.74,10.64s4.63-.89,10.27-1.96c.58-4.38-.73-8.29-2-10.89Z"/><path class="cls-5" d="M320.37,136.23c-2.66,.46-6.03,1.06-9.43,1.67,1.28,2.51,2.69,6.41,2.22,10.83,2.97-.55,6-1.11,8.64-1.58,.82-4.27-.22-8.16-1.43-10.92Z"/><path class="cls-4" d="M324.8,135.52c-.26,.03-.52,.06-.78,.1-.92,.14-2.17,.35-3.65,.61,1.21,2.76,2.25,6.65,1.43,10.92,1.9-.34,3.6-.63,4.92-.85,.59-4.32-.66-8.18-1.91-10.79Z"/></g><path class="cls-3" d="M256.26,151.85s.98-7.55,4.52-10.9c3.55-3.35,30.93-6.89,36.05-6.3s7.68,12.21,7.49,18.71-6.5,7.71-12.41,9.27c-5.91,1.56-20.68,2.55-25.8,1.56s-9.84-12.34-9.84-12.34Z"/></g><g><path class="cls-10" d="M302.69,531.62s10.65,10.77,11.42,13.13c.77,2.36-1.43,8.14-5.71,9.45-4.28,1.31-15.05-5.83-15.05-5.83l9.34-16.75Z"/><g><path class="cls-10" d="M296.27,526.47c-1.93,3.23-4.93,7.78-8.5,11.58-5.58,5.93-15.62,13.7-22.09,17.32,10.71,4.36,22.9-.87,24.65-3,1.84-2.23,18.96-25.74,18.96-25.74h0c-3.78,.51-8.27,.66-13.01-.15Z"/><path class="cls-12" d="M285.21,522.69c3.69,2,7.45,3.17,11.06,3.79,1.48-2.48,2.33-4.18,2.33-4.18,0,0-.85,1.71-2.33,4.18,4.74,.81,9.23,.66,13.01,.15l-.97-13-24.29-15.63-11.87,2.56c-.1,5.72,1.53,15.88,13.05,22.12Z"/><path class="cls-11" d="M287.77,538.05c3.57-3.79,6.57-8.34,8.5-11.58-3.61-.62-7.37-1.79-11.06-3.79-11.53-6.24-13.16-16.4-13.05-22.12h0s-20.56,30-20.56,33.29,1.58,15.36,12.61,20.88c.49,.24,.98,.44,1.48,.64,6.47-3.62,16.52-11.39,22.09-17.32Z"/></g><g><g><path class="cls-6" d="M318.89,497.28c3.23-4.2,4.8-9.5,5.54-14.11-4.42-8.5-14.45-10.65-22.54-9.33-10.51,1.71-19.96,15.1-20.75,18.52-.79,3.41,.59,14.03,10.77,20.22,1.74,1.06,3.51,1.92,5.26,2.61,8.02-3.05,15.74-10.15,21.73-17.91Z"/><path class="cls-1" d="M324.43,483.17c-.74,4.61-2.3,9.91-5.54,14.11-5.99,7.77-13.7,14.86-21.73,17.91,7.34,2.93,14.28,2.96,16.95,2.64,3.3-.39,13.12-9.06,12.59-25.34-.12-3.73-.96-6.79-2.28-9.32Z"/></g><ellipse class="cls-1" cx="314.12" cy="484.84" rx="2.36" ry="6.19" transform="translate(-262.64 451.85) rotate(-53.79)"/></g></g><g><path class="cls-10" d="M412.07,502.58s-13.13,14.18-13.92,16.28-1.31,5.38,1.31,7.35c2.63,1.97,5.78,1.84,8.54,1.05,2.76-.79,17.73-11.29,17.73-11.29l-13.66-13.39Z"/><g><path class="cls-6" d="M420.52,458.08c-6.03-.29-12.4,1.15-17.59,4.27-.68,3.28-.98,7.83,1.25,11.29,3.15,4.89,11,8.63,14.02,9.93,3.43-2.86,8.42-5.76,15.66-8.29,0,0,.37-16.55-13.34-17.2Z"/><path class="cls-1" d="M404.19,473.64c-2.24-3.47-1.93-8.01-1.25-11.29-6.6,3.96-11.27,10.63-10.88,19.9,.7,16.55,18.83,15.76,18.83,15.76,0,0-1.5-7.08,7.32-14.42-3.01-1.3-10.86-5.05-14.02-9.93Z"/></g><g><path class="cls-10" d="M417.19,501.22c-4.03-4.41-7.81-11.13-10.02-15.42-3.89,6.07-5.23,12.47-4.17,15.75,1.58,4.86,16.68,20.67,23.25,23.14,2.15,.81,6.83-2.48,12.15-7.25-6.63-4.42-17.05-11.67-21.21-16.21Z"/><path class="cls-11" d="M462.87,491.57s-13.11-13.67-18.04-17.34c-4.93-3.68-20.82-3.94-30.27,3.41-3.07,2.39-5.52,5.23-7.39,8.15,2.21,4.29,5.99,11.02,10.02,15.42,4.15,4.54,14.58,11.8,21.21,16.21,10.9-9.79,24.48-25.86,24.48-25.86Z"/></g><g><ellipse class="cls-12" cx="444.83" cy="508.42" rx="24.7" ry="16.51" transform="translate(-224.74 418.74) rotate(-41.19)"/><ellipse class="cls-2" cx="444.83" cy="508.42" rx="11.69" ry="7.81" transform="translate(-224.74 418.74) rotate(-41.19)"/></g></g></g><g><g><path class="cls-9" d="M251.57,438.55c-8.41,4.98-16.82,8.84-23.79,9.76-23.68,3.16-116.29-66.04-116.29-66.04,0,0-11.59,13.63-3.38,30.99,8.21,17.37,36.31,34.42,57.15,49.26,20.84,14.84,40.73,28.1,61.57,25.58,11-1.33,22.36-7,34.9-15.38-4.11-.3-7.48-1.26-9.32-3.25-6.51-7.01-2.7-24.12-.84-30.92Z"/><path class="cls-2" d="M465.97,272.72l-174.1,135.49s-20.14,18.4-40.31,30.34c-1.86,6.8-5.66,23.91,.84,30.92,1.85,1.99,5.22,2.95,9.32,3.25,11.22-7.49,23.38-17.14,37.09-27.88,29.05-22.73,127.56-96.62,150.3-116.51,22.73-19.89,23.92-42.7,16.86-55.61Z"/></g><path class="cls-12" d="M419.75,234.24c-26.52-19.89-50.84-36.94-60.31-37.26-9.47-.32-15.47,1.89-32.21,13.89-16.73,12-104.2,77.04-141.46,104.83-37.26,27.79-74.83,58.73-75.78,71.04-.95,12.31,8.21,17.68,25.26,32.52,17.05,14.84,54.94,41.05,63.78,47.05,8.84,6,27.47,6.95,40.42,0,12.95-6.95,45.15-32.84,70.73-52.73,25.58-19.89,91.88-71.99,115.88-90.3,24-18.31,42.94-30.31,41.05-45.15-1.89-14.84-10.42-17.05-23.05-26.21-12.63-9.16-24.31-17.68-24.31-17.68Z"/><g><path class="cls-8" d="M182.94,331.49l-37.75,80.24c12.62,9.9,29.51,22.72,43.28,32.34l44.15-150.37c-16.53,12.53-33.95,25.78-49.68,37.79Z"/><path class="cls-7" d="M248.62,281.6c-5.17,3.9-10.54,7.97-16,12.1l-44.15,150.37c9.06,6.34,16.77,11.28,20.99,13.08,6.33,2.69,12.61,2.32,19.84-.56l50.09-198.08c-9.55,7.12-19.87,14.86-30.78,23.09Z"/><path class="cls-7" d="M130.84,371.59c-9.47,7.58-11.68,18.31-2.84,26.21,2.5,2.23,8.93,7.46,17.19,13.94l37.75-80.24c-25.71,19.63-46.88,35.91-52.1,40.09Z"/><path class="cls-7" d="M450.38,269.6c-6.63-8.53-29.36-22.1-29.36-22.1,0,0-11.37,7.58-19.26,1.58-7.89-6-3.47-17.05-3.47-17.05,0,0-10.28-8.14-20.26-15.6l28.72,106.92c22.03-17.25,38.42-30.2,41.11-32.59,8.53-7.58,9.16-12.63,2.53-21.16Z"/><path class="cls-8" d="M371.76,211.82c-11.37-8.21-21.79-4.1-31.26,2.21-1.62,1.08-4.02,2.74-7.1,4.92l15.65,149.39c20.12-15.64,40.6-31.61,57.69-45l-28.72-106.92c-2.14-1.6-4.26-3.16-6.26-4.61Z"/><path class="cls-7" d="M298.58,244.27l-24.54,182.11c15.9-12.18,45.05-34.74,75.02-58.05l-15.65-149.39c-7.7,5.45-19.72,14.17-34.83,25.32Z"/><path class="cls-8" d="M279.39,258.51l-50.09,198.08c9.71-3.87,21.11-12.3,36.68-24.06,2.04-1.54,4.77-3.62,8.05-6.14l24.54-182.11c-5.94,4.39-12.37,9.15-19.18,14.23Z"/></g><ellipse class="cls-2" cx="408.7" cy="239.82" rx="6.47" ry="4.96" transform="translate(-63.02 284.84) rotate(-35.86)"/></g><g><path class="cls-2" d="M434.68,122.96s-.39,12.26,3.63,21.08c4.02,8.82,13.65,11.76,20.77,14.33,7.12,2.57,57.45,18.74,70.68,23.14,13.22,4.41,24.16,7.9,24.16,7.9,0,0,5.41,15.99,10.74,19.57,5.33,3.58,12.49,1.19,16.9-8,4.41-9.18,23.33-55.65,27.55-66.86,4.22-11.2,7.28-28.81-12.16-41.5l-162.26,30.34Z"/><path class="cls-3" d="M548.08,169.11s7.2,28.37,10.69,31.31c3.49,2.94,7.9,2.51,11.94-6.18,4.04-8.69,20.94-55.35,25.71-68.57,4.78-13.22,6.98-28.84-.92-34.26s-111.49-38.48-119.02-40.87c-7.53-2.39-16.45,3.86-20.81,12.12-4.36,8.27-21.05,44.98-21.07,58.78-.01,12.31,12.12,14.69,41.88,24.43,29.76,9.73,71.59,23.24,71.59,23.24Z"/><path class="cls-6" d="M520.75,102.78s1.29-17.45-14.14-13.96c-15.43,3.49-8.27,28.84,2.76,39.67,0,0,22.04,.92,33.61-13.22,11.57-14.14-14.14-27.55-22.23-12.49Z"/></g><g><path class="cls-2" d="M193.05,137.44s-6.13,4.24-11.95,5.1c-5.82,.86-10.5-3.09-14.16-5.87s-28.5-23.13-35.11-28.43c-6.61-5.29-12-9.72-12-9.72,0,0-9.94,2.51-13.52,.98s-4.72-5.98-1.49-11.26c3.23-5.28,20.7-30.25,25.02-36.1s12.3-13.21,25.18-7.48l38.02,92.79Z"/><path class="cls-3" d="M132.11,94.8s-16.85,5.68-19.5,4.87-3.88-3.2-.78-8.13c3.1-4.93,21.33-28.93,26.51-35.73,5.17-6.8,12.41-13.07,17.78-10.83s56.39,44.19,60.09,47.25c3.7,3.05,3.46,9.66,.68,14.61-2.78,4.95-16,25.57-23.04,30.13-6.27,4.07-11.49-1.34-26.27-13.31-14.78-11.97-35.46-28.86-35.46-28.86Z"/><ellipse class="cls-7" cx="150.4" cy="75.44" rx="10.75" ry="7.89" transform="translate(-4.27 141.69) rotate(-49.82)"/><ellipse class="cls-7" cx="170.13" cy="92.1" rx="10.75" ry="7.89" transform="translate(-10 162.67) rotate(-49.82)"/><ellipse class="cls-7" cx="188.91" cy="107.96" rx="10.75" ry="7.89" transform="translate(-15.45 182.64) rotate(-49.82)"/></g></svg>