<?xml version="1.0" encoding="UTF-8"?><svg xmlns="http://www.w3.org/2000/svg" viewBox="0 0 750 750"><defs><style>.cls-1{fill:#ffb000;}.cls-2{fill:#ffb100;}.cls-3{fill:#ffbebe;}.cls-4{fill:#fce7d6;}.cls-5{fill:#c2dcd1;}.cls-6{fill:#d63e6a;}.cls-7{fill:#17488d;}.cls-8{fill:#4bacb0;}.cls-9,.cls-10,.cls-11,.cls-12{mix-blend-mode:multiply;}.cls-13{isolation:isolate;}.cls-10{opacity:.5;}.cls-11{opacity:.62;}.cls-12{opacity:.6;}</style></defs><g class="cls-13"><g id="Layer_1"><rect class="cls-7" x="-5.46" y="-5.85" width="760.91" height="760.91"/><g class="cls-9"><path class="cls-4" d="M396.77,496.93c-3.19-13.77-13.11-25.46-21.55-36.34-9.32-12.02-18.66-24.32-27.8-36.48-7.29-9.7-13.58-18.32-20.63-27.31-1.2-1.53-4.28-5.55-7.32-8.96,.16-.34,.32-.67,.45-.97,.79-1.75,.58-3.79-.58-5.32-8.58-11.32-16.83-24.08-24.95-35.57-13.87-19.62-27.68-38.97-45.71-54.79-14.55-12.76-33.99-21.33-53.13-18.45-7.33,1.1-14.31,3.84-20.64,7.72-4.44,2.72-8.56,6-12.24,9.67-7.87,7.84-14.01,17.64-16.41,28.49-3.79,17.18,2.66,34.17,11.65,49.29,11.71,19.7,25.91,37.37,40.49,55.68,2.67,3.36,17.33,21.89,25.02,31.17,1.43,1.73,3.65,2.56,5.86,2.25,12.75,16.75,25.47,33.56,38.19,50.31,17.55,23.12,37.66,51.98,68.56,55.8,13.75,1.7,28.16-1.61,39.56-9.41,1.64-1.12,3.22-2.34,4.73-3.64,14.88-12.91,20.86-34.12,16.46-53.15Z"/></g><g class="cls-9"><path class="cls-4" d="M341.56,248.04c10.87-5.47,23.88-7.26,38.27-3.68,15.69,3.9,28.3,15.71,37.68,28.87,36.28,50.86,58.64,113.87,70.59,174.81,2.85,14.53,5.04,29.37,3.73,44.12-2.58,29.02-20.35,52.58-50.5,55.77-15.12,1.6-30.79-2.9-42.76-12.27-10.58-8.29-18.01-19.88-24.77-31.5-17.7-30.4-32.28-62.61-43.47-95.96-10.36-30.88-21.39-65.4-22.43-98.18-.83-26.3,12.29-51.24,33.65-61.98Z"/></g><g><path class="cls-5" d="M366.84,548.84c-1.51,1.31-3.08,2.52-4.73,3.64-5.39,3.68-11.45,6.37-17.79,7.99-7.08,1.82-14.51,2.32-21.77,1.42-30.89-3.82-51-32.67-68.55-55.8-14.22-18.73-28.44-37.52-42.69-56.23h0s21.78-31.35,21.78-31.35l55.71-40.02s11.15,2.68,11.15,2.68c3.32,1.28,11.26,11.68,13.38,14.38,7.05,8.98,13.33,17.61,20.63,27.31,4.1,5.45,8.24,10.93,12.4,16.4h0c5.11,6.73,10.26,13.45,15.4,20.07,8.44,10.88,18.36,22.57,21.55,36.35,4.4,19.03-1.58,40.24-16.46,53.15Z"/><path class="cls-8" d="M161.44,279.24c-4.44,2.72-8.56,6-12.24,9.67-7.87,7.84-14.01,17.64-16.41,28.49-3.79,17.18,2.66,34.17,11.65,49.29,11.71,19.7,25.91,37.37,40.49,55.68,2.67,3.36,17.33,21.89,25.02,31.17,1.53,1.85,3.97,2.69,6.32,2.19,7.9-1.71,27.14-7.49,51.75-26.15,25.4-19.26,35.31-37.06,38.43-43.93,.79-1.75,.58-3.79-.58-5.32-8.58-11.32-16.83-24.08-24.95-35.57-13.87-19.62-27.68-38.97-45.71-54.79-14.55-12.76-33.99-21.33-53.13-18.45-7.33,1.1-14.31,3.84-20.64,7.72Z"/><path class="cls-4" d="M277.32,381c-1.12-.2-2.17-.81-2.91-1.79l-36.16-47.85c-1.56-2.06-1.15-5,.91-6.56,2.07-1.56,5-1.15,6.56,.91l36.16,47.85c1.56,2.06,1.15,5-.91,6.56-1.09,.82-2.41,1.1-3.66,.87Z"/><path class="cls-4" d="M230.02,318.41c-1.12-.2-2.17-.81-2.91-1.79l-12.52-16.57c-1.56-2.06-1.15-5,.91-6.56,2.07-1.56,5-1.15,6.56,.91l12.52,16.57c1.56,2.06,1.15,5-.91,6.56-1.09,.82-2.41,1.1-3.66,.87Z"/><g class="cls-12"><path class="cls-5" d="M366.84,548.84c-1.51,1.31-3.08,2.52-4.73,3.64-5.39,3.68-11.45,6.37-17.79,7.99,.82-.67,46.53-38.82,2.02-121.19,5.11,6.73,10.26,13.44,15.4,20.07,8.44,10.88,18.36,22.57,21.55,36.35,4.4,19.03-1.58,40.24-16.46,53.15Z"/></g></g><g><path class="cls-6" d="M428.27,537.84c-15.11,1.6-30.79-2.9-42.75-12.27-10.58-8.28-18.01-19.88-24.77-31.5-17.7-30.4-32.28-62.61-43.48-95.96-10.36-30.87-21.39-65.4-22.43-98.18-.83-26.3,12.29-51.23,33.65-61.98,10.87-5.47,23.88-7.26,38.27-3.68,15.68,3.9,28.29,15.71,37.68,28.87,31.48,44.12,52.48,97.4,65.29,150.53,0,.02,0,.03,0,.05,1.96,8.09,3.71,16.18,5.29,24.23,2.85,14.53,5.04,29.37,3.73,44.12-2.58,29.02-20.35,52.58-50.5,55.77Z"/><path class="cls-4" d="M341.73,395.93c-1.69-.3-3.15-1.53-3.67-3.29l-16.98-57.52c-.73-2.48,.69-5.09,3.17-5.82,2.48-.73,5.09,.69,5.82,3.17l16.98,57.52c.73,2.48-.69,5.09-3.17,5.82-.72,.21-1.46,.24-2.15,.12Z"/><path class="cls-4" d="M319.52,320.69c-1.69-.3-3.15-1.53-3.67-3.29l-5.88-19.91c-.73-2.48,.69-5.09,3.17-5.82,2.48-.73,5.09,.69,5.82,3.17l5.88,19.91c.73,2.48-.69,5.09-3.17,5.82-.72,.21-1.46,.24-2.15,.12Z"/><g class="cls-11"><path class="cls-3" d="M428.27,537.84c-15.11,1.6-30.79-2.9-42.75-12.27,0,0,107.07,13.58,84.23-111.84,1.96,8.09,3.71,16.18,5.29,24.23,2.85,14.53,5.04,29.37,3.73,44.12-2.58,29.02-20.35,52.58-50.5,55.77Z"/></g></g><g class="cls-9"><circle class="cls-4" cx="524.95" cy="379.1" r="93.37"/></g><g><path class="cls-2" d="M606.01,372.07c0,51.57-41.8,93.37-93.37,93.37-5.93,0-11.73-.55-17.35-1.61-43.27-8.13-76.01-46.12-76.01-91.76,0-51.56,41.8-93.36,93.36-93.36,36.65,0,68.36,21.11,83.64,51.83,6.23,12.51,9.72,26.61,9.72,41.53Z"/><path class="cls-4" d="M488.69,452.44c-.29,0-.58-.04-.87-.13-1.55-.48-2.41-2.12-1.93-3.66l47.91-154.87c.48-1.55,2.12-2.41,3.66-1.93,1.55,.48,2.41,2.12,1.93,3.66l-47.91,154.87c-.39,1.26-1.55,2.06-2.8,2.06Z"/><g class="cls-10"><path class="cls-1" d="M606.01,372.07c0,51.57-41.8,93.37-93.37,93.37-5.93,0-11.73-.55-17.35-1.61h0s109.69-25.21,100.99-133.28c6.23,12.51,9.72,26.61,9.72,41.53Z"/></g></g></g></g></svg>