<?xml version="1.0" encoding="utf-8"?>
<!-- Generator: Adobe Illustrator 26.3.1, SVG Export Plug-In . SVG Version: 6.00 Build 0)  -->
<svg version="1.1" id="Layer_1" xmlns="http://www.w3.org/2000/svg" xmlns:xlink="http://www.w3.org/1999/xlink" x="0px" y="0px"
	 viewBox="0 0 357.2 157.2" style="enable-background:new 0 0 357.2 157.2;" xml:space="preserve">
<style type="text/css">
	.st0{fill:#E4116D;}
	.st1{fill:#54565C;}
	.st2{fill:#EC7534;}
	.st3{fill:none;stroke:#54565C;stroke-width:0.5;stroke-miterlimit:10;}
</style>
<g>
	<path class="st0" d="M3.7,21.5H14v2.1H1.4V1.2h2.3L3.7,21.5z"/>
</g>
<g>
	<path class="st0" d="M18.5,23.6h-2.6l9.6-22.4h2.2l9.6,22.4h-2.6l-2.4-5.9H21L18.5,23.6z M21.7,15.6h9.6L26.5,3.8L21.7,15.6z"/>
</g>
<g>
	<path class="st0" d="M40.1,50.1l-10.8,1.7c0-3.8-1.9-8.3-7.1-8.3c-4.9,0-8.6,4.3-8.6,11.3c0,8,4.9,11.3,10,11.3
		c5.3,0,8.6-3.8,9.8-5.6l6.9,7.4c-2.4,3.4-7.7,8.5-17.1,8.5c-13,0-21.5-8.3-21.5-21.5S10.2,33.4,22,33.4
		C35.2,33.2,40.1,42.2,40.1,50.1"/>
	<path class="st0" d="M88.4,54.6c0,13.2-8.5,21.5-20.9,21.5c-12.3,0-20.9-8.3-20.9-21.5s8.5-21.4,20.9-21.4S88.4,41.4,88.4,54.6
		 M76.5,54.6c0-7.2-3.8-11.2-8.9-11.2c-5.1,0-8.9,3.9-8.9,11.2s3.8,11.3,8.9,11.3S76.5,61.9,76.5,54.6"/>
	<path class="st0" d="M39,128.8H28.5l-10.6-14.9c-1.7-2.4-3.6-5.3-5.2-7.8l-0.4,0.2c0.3,1.3,0.3,4.2,0.3,7.6v14.9H1.3v-42h9.3
		l11.9,16.5c1.8,2.5,4.3,6.7,5.2,8.3l0.4-0.2c-0.3-1.3-0.3-4.6-0.3-8.1V86.8H39V128.8z"/>
	<polygon class="st0" points="61.4,96.5 61.4,104.1 76,104.1 76,113.4 61.4,113.4 61.4,128.8 49.6,128.8 49.6,86.8 78.1,86.8 
		78.1,96.5 	"/>
	<polygon class="st0" points="98.4,96.5 98.4,103.4 113.1,103.4 113.1,112.3 98.4,112.3 98.4,119.1 115.8,119.1 115.8,128.8 
		86.7,128.8 86.7,86.8 115.8,86.8 115.8,96.5 	"/>
</g>
<g>
	<path class="st1" d="M7.2,144.6H4.7v5.2c0,0.3,0,0.6,0.1,0.8c0.1,0.2,0.1,0.4,0.3,0.5s0.2,0.2,0.4,0.2c0.2,0,0.3,0.1,0.5,0.1
		s0.4,0,0.7-0.1c0.2-0.1,0.4-0.1,0.6-0.2l0.1,1.2c-0.5,0.2-1,0.3-1.7,0.3c-0.2,0-0.5,0-0.7-0.1c-0.3-0.1-0.5-0.2-0.7-0.4
		c-0.2-0.2-0.4-0.4-0.5-0.7c-0.1-0.3-0.2-0.7-0.2-1.2v-5.6H1.7v-1.1h1.9V141h1.2v2.5h2.5v1.1H7.2z"/>
	<path class="st1" d="M18.7,147.9c0,0.7-0.1,1.3-0.3,1.8c-0.2,0.6-0.6,1.1-1,1.5s-0.9,0.7-1.5,1c-0.6,0.2-1.2,0.3-1.9,0.3
		c-0.7,0-1.3-0.1-1.9-0.3c-0.6-0.2-1.1-0.6-1.5-1s-0.7-0.9-1-1.5c-0.2-0.6-0.3-1.2-0.3-1.8c0-0.7,0.1-1.3,0.3-1.8
		c0.2-0.6,0.6-1.1,1-1.5s0.9-0.7,1.5-1c0.6-0.2,1.2-0.3,1.9-0.3c0.7,0,1.3,0.1,1.9,0.3c0.6,0.2,1.1,0.6,1.5,1s0.7,0.9,1,1.5
		C18.6,146.7,18.7,147.3,18.7,147.9z M17.4,147.9c0-0.5-0.1-0.9-0.2-1.4c-0.2-0.4-0.4-0.8-0.7-1.1c-0.3-0.3-0.6-0.6-1-0.7
		c-0.4-0.2-0.9-0.3-1.4-0.3s-1,0.1-1.4,0.3s-0.7,0.4-1,0.7c-0.3,0.3-0.5,0.7-0.7,1.1s-0.2,0.9-0.2,1.4s0.1,1,0.2,1.4
		c0.2,0.4,0.4,0.8,0.7,1.1c0.3,0.3,0.6,0.6,1,0.7s0.9,0.3,1.4,0.3s1-0.1,1.4-0.3c0.4-0.2,0.8-0.4,1-0.7c0.3-0.3,0.5-0.7,0.7-1.1
		C17.3,148.9,17.4,148.4,17.4,147.9z"/>
	<path class="st1" d="M22.7,154.1c0.4,0.5,0.8,0.9,1.4,1.2c0.6,0.3,1.2,0.4,1.9,0.4c0.6,0,1.2-0.1,1.6-0.3c0.4-0.2,0.8-0.4,1.1-0.7
		c0.3-0.3,0.5-0.7,0.6-1.1s0.2-0.9,0.2-1.3v-1.6l0,0c-0.4,0.6-0.9,1-1.5,1.3s-1.2,0.4-1.8,0.4s-1.2-0.1-1.8-0.3
		c-0.6-0.2-1-0.5-1.4-0.9s-0.7-0.9-1-1.4c-0.2-0.6-0.4-1.2-0.4-1.8s0.1-1.2,0.3-1.8c0.2-0.6,0.5-1,0.9-1.5c0.4-0.4,0.9-0.7,1.4-1
		c0.5-0.2,1.1-0.3,1.8-0.3c0.3,0,0.5,0,0.8,0.1s0.6,0.1,0.9,0.3s0.6,0.3,0.9,0.5c0.3,0.2,0.6,0.5,0.8,0.8l0,0v-1.5h1.2v8.8
		c0,0.5-0.1,1-0.2,1.5c-0.1,0.5-0.3,1-0.7,1.5s-0.8,0.8-1.4,1.1c-0.6,0.3-1.4,0.5-2.4,0.5c-0.9,0-1.7-0.1-2.3-0.4
		c-0.7-0.3-1.3-0.7-1.9-1.3L22.7,154.1z M22.9,147.8c0,0.5,0.1,0.9,0.3,1.3s0.4,0.8,0.7,1.1c0.3,0.3,0.6,0.6,1,0.7
		c0.4,0.2,0.8,0.3,1.3,0.3c0.4,0,0.9-0.1,1.3-0.2c0.4-0.2,0.8-0.4,1.1-0.7s0.6-0.7,0.7-1.1c0.2-0.4,0.2-0.9,0.2-1.4
		s-0.1-0.9-0.2-1.3c-0.1-0.4-0.4-0.8-0.7-1.1c-0.3-0.3-0.6-0.6-1-0.7c-0.4-0.2-0.9-0.3-1.4-0.3s-0.9,0.1-1.3,0.3
		c-0.4,0.2-0.7,0.4-1,0.7c-0.3,0.3-0.5,0.7-0.7,1.1C23,146.9,22.9,147.4,22.9,147.8z"/>
	<path class="st1" d="M35.3,148.3c0,0.4,0.1,0.9,0.3,1.2c0.2,0.4,0.4,0.7,0.7,1s0.6,0.5,1,0.7s0.8,0.2,1.2,0.2
		c0.7,0,1.2-0.2,1.7-0.5s0.8-0.7,1.1-1.1l1,0.8c-0.5,0.7-1.1,1.1-1.7,1.4c-0.6,0.3-1.3,0.4-2,0.4c-0.6,0-1.2-0.1-1.8-0.3
		c-0.6-0.2-1-0.6-1.4-1s-0.7-0.9-0.9-1.5s-0.3-1.2-0.3-1.8c0-0.7,0.1-1.3,0.3-1.8c0.2-0.6,0.5-1.1,0.9-1.5s0.9-0.7,1.4-1
		c0.5-0.2,1.1-0.3,1.7-0.3c0.7,0,1.3,0.1,1.8,0.4c0.5,0.2,1,0.6,1.3,1c0.4,0.4,0.6,0.9,0.8,1.4s0.3,1.1,0.3,1.7v0.6L35.3,148.3
		L35.3,148.3z M41.3,147.3c0-0.8-0.2-1.5-0.7-2s-1.2-0.8-2.1-0.8c-0.4,0-0.8,0.1-1.2,0.2s-0.7,0.4-1,0.6c-0.3,0.3-0.5,0.6-0.7,0.9
		s-0.3,0.7-0.3,1.1L41.3,147.3L41.3,147.3z"/>
	<path class="st1" d="M50.5,144.6H48v5.2c0,0.3,0,0.6,0.1,0.8c0.1,0.2,0.1,0.4,0.3,0.5s0.2,0.2,0.4,0.2s0.3,0.1,0.5,0.1
		s0.4,0,0.7-0.1c0.2-0.1,0.4-0.1,0.6-0.2l0.1,1.2c-0.5,0.2-1,0.3-1.7,0.3c-0.2,0-0.5,0-0.7-0.1c-0.3-0.1-0.5-0.2-0.7-0.4
		c-0.2-0.2-0.4-0.4-0.5-0.7c-0.1-0.3-0.2-0.7-0.2-1.2v-5.6H45v-1.1h1.9V141h1.2v2.5h2.5v1.1H50.5z"/>
	<path class="st1" d="M53.2,138.1h1.2v6.9l0,0c0.1-0.2,0.3-0.5,0.5-0.7s0.4-0.4,0.7-0.5s0.5-0.3,0.8-0.3c0.3-0.1,0.6-0.1,0.9-0.1
		c1.1,0,2,0.3,2.5,0.9s0.8,1.5,0.8,2.6v5.6h-1.2v-4.9c0-1-0.2-1.7-0.5-2.3c-0.3-0.5-1-0.8-1.9-0.8c-0.1,0-0.2,0-0.5,0.1
		c-0.3,0-0.6,0.2-0.9,0.4c-0.3,0.2-0.6,0.6-0.9,1c-0.2,0.5-0.4,1.1-0.4,1.9v4.5h-1.2L53.2,138.1L53.2,138.1z"/>
	<path class="st1" d="M65.5,148.3c0,0.4,0.1,0.9,0.3,1.2c0.2,0.4,0.4,0.7,0.7,1s0.6,0.5,1,0.7s0.8,0.2,1.2,0.2
		c0.7,0,1.2-0.2,1.7-0.5s0.8-0.7,1.1-1.1l1,0.8c-0.5,0.7-1.1,1.1-1.7,1.4c-0.6,0.3-1.3,0.4-2,0.4c-0.6,0-1.2-0.1-1.8-0.3
		c-0.6-0.2-1-0.6-1.4-1s-0.7-0.9-0.9-1.5s-0.3-1.2-0.3-1.8c0-0.7,0.1-1.3,0.3-1.8c0.2-0.6,0.5-1.1,0.9-1.5s0.9-0.7,1.4-1
		c0.5-0.2,1.1-0.3,1.7-0.3c0.7,0,1.3,0.1,1.8,0.4c0.5,0.2,1,0.6,1.3,1c0.4,0.4,0.6,0.9,0.8,1.4s0.3,1.1,0.3,1.7v0.6L65.5,148.3
		L65.5,148.3z M71.4,147.3c0-0.8-0.2-1.5-0.7-2s-1.2-0.8-2.1-0.8c-0.4,0-0.8,0.1-1.2,0.2s-0.7,0.4-1,0.6c-0.3,0.3-0.5,0.6-0.7,0.9
		s-0.3,0.7-0.3,1.1L71.4,147.3L71.4,147.3z"/>
	<path class="st1" d="M76.2,146.3c0-0.4,0-0.8,0-1.2s0-0.9,0-1.6h1.2v1.6l0,0c0.1-0.2,0.2-0.5,0.4-0.7s0.4-0.4,0.6-0.6
		c0.2-0.2,0.5-0.3,0.8-0.4s0.7-0.2,1-0.2s0.7,0,0.9,0.1l-0.2,1.2c-0.2-0.1-0.4-0.1-0.7-0.1c-0.5,0-0.9,0.1-1.2,0.3
		c-0.3,0.2-0.6,0.4-0.8,0.7c-0.2,0.3-0.4,0.6-0.5,0.9s-0.2,0.6-0.2,0.9v5h-1.2v-5.9H76.2z"/>
	<path class="st1" d="M89.9,143.5l2,7.2l0,0l2.3-7.2h1.3l2.3,7.2l0,0l2-7.2h1.5l-2.8,8.8h-1.4l-2.1-7.2l0,0l-2.3,7.2h-1.4l-2.8-8.8
		L89.9,143.5L89.9,143.5z"/>
	<path class="st1" d="M105,148.3c0,0.4,0.1,0.9,0.3,1.2c0.2,0.4,0.4,0.7,0.7,1s0.6,0.5,1,0.7s0.8,0.2,1.2,0.2c0.7,0,1.2-0.2,1.7-0.5
		s0.8-0.7,1.1-1.1l1,0.8c-0.5,0.7-1.1,1.1-1.7,1.4c-0.6,0.3-1.3,0.4-2,0.4c-0.6,0-1.2-0.1-1.8-0.3c-0.6-0.2-1-0.6-1.4-1
		s-0.7-0.9-0.9-1.5s-0.3-1.2-0.3-1.8c0-0.7,0.1-1.3,0.3-1.8c0.2-0.6,0.5-1.1,0.9-1.5s0.9-0.7,1.4-1c0.5-0.2,1.1-0.3,1.7-0.3
		c0.7,0,1.3,0.1,1.8,0.4c0.5,0.2,1,0.6,1.3,1c0.4,0.4,0.6,0.9,0.8,1.4s0.3,1.1,0.3,1.7v0.6L105,148.3L105,148.3z M110.9,147.3
		c0-0.8-0.2-1.5-0.7-2s-1.2-0.8-2.1-0.8c-0.4,0-0.8,0.1-1.2,0.2s-0.7,0.4-1,0.6c-0.3,0.3-0.5,0.6-0.7,0.9s-0.3,0.7-0.3,1.1
		L110.9,147.3L110.9,147.3z"/>
</g>
<g>
	<path class="st0" d="M157.3,128.8h-28.2v-5.2l17.7-18.1c0.7-0.7,1.3-1.4,2-2.1c0.7-0.8,1.3-1.6,1.8-2.4s1-1.7,1.3-2.7
		c0.3-0.9,0.5-1.9,0.5-2.9c0-1.2-0.2-2.3-0.7-3.3c-0.4-1-1.1-1.8-1.8-2.5c-0.8-0.7-1.7-1.2-2.8-1.5c-1-0.4-2.1-0.5-3.3-0.5
		c-2.3,0-4.2,0.6-5.8,1.9s-2.6,3-3.1,5.1l-4.8-0.5c0.6-3.3,2.1-5.9,4.5-7.8c2.4-1.9,5.3-2.8,8.7-2.8c1.8,0,3.5,0.2,5.1,0.7
		s3,1.2,4.3,2.2c1.2,1,2.2,2.2,2.9,3.6c0.7,1.5,1.1,3.1,1.1,5.1c0,1.7-0.3,3.3-0.8,4.7c-0.5,1.4-1.2,2.8-2,4
		c-0.8,1.3-1.8,2.5-2.8,3.6c-1.1,1.1-2.2,2.3-3.3,3.3l-14,14h23.3v4.1H157.3z"/>
</g>
<g>
	<path class="st0" d="M176.1,105c-1-0.3-1.8-0.8-2.7-1.5c-0.8-0.7-1.5-1.4-2.1-2.3s-1-1.9-1.4-2.9c-0.3-1.1-0.5-2.1-0.5-3.3
		c0-1.8,0.3-3.4,1-4.8c0.7-1.5,1.6-2.7,2.7-3.7s2.4-1.8,3.9-2.3s3.1-0.8,4.8-0.8s3.3,0.3,4.8,0.8s2.8,1.3,3.9,2.3s2,2.2,2.7,3.7
		s1,3.1,1,4.8c0,1.1-0.2,2.2-0.5,3.3s-0.8,2-1.4,2.9s-1.3,1.7-2.1,2.3c-0.8,0.7-1.7,1.1-2.7,1.5v0.1c2.5,0.7,4.5,2.1,6,4.2
		s2.3,4.6,2.3,7.6c0,1.9-0.4,3.7-1.2,5.2c-0.8,1.6-1.8,2.9-3.1,4c-1.3,1.1-2.8,2-4.4,2.6c-1.7,0.6-3.5,0.9-5.4,0.9s-3.7-0.3-5.4-0.9
		c-1.7-0.6-3.2-1.4-4.4-2.6c-1.3-1.1-2.3-2.5-3.1-4c-0.8-1.6-1.2-3.3-1.2-5.2c0-2.9,0.8-5.5,2.3-7.6s3.5-3.5,6-4.2V105H176.1z
		 M191.3,116.2c0-1.3-0.2-2.5-0.7-3.6s-1.1-2.1-1.9-2.9s-1.8-1.5-3-1.9c-1.2-0.5-2.5-0.7-3.9-0.7c-1.5,0-2.8,0.2-3.9,0.7
		c-1.2,0.5-2.2,1.1-3,1.9s-1.4,1.8-1.9,2.9s-0.7,2.3-0.7,3.6s0.2,2.5,0.7,3.6s1.1,2.1,1.9,2.9s1.8,1.5,3,1.9
		c1.2,0.5,2.5,0.7,3.9,0.7s2.7-0.2,3.9-0.7c1.2-0.5,2.2-1.1,3-1.9s1.4-1.8,1.9-2.9C191.1,118.7,191.3,117.5,191.3,116.2z
		 M189.7,95.4c0-1.1-0.2-2.2-0.6-3.2s-0.9-1.8-1.7-2.5c-0.7-0.7-1.5-1.2-2.5-1.6s-2-0.6-3.1-0.6s-2.2,0.2-3.1,0.6
		c-1,0.4-1.8,0.9-2.5,1.6s-1.3,1.5-1.7,2.5c-0.4,1-0.6,2-0.6,3.2c0,1.1,0.2,2.2,0.6,3.2s0.9,1.8,1.7,2.5c0.7,0.7,1.5,1.2,2.5,1.6
		s2,0.6,3.1,0.6s2.2-0.2,3.1-0.6c1-0.4,1.8-0.9,2.5-1.6s1.3-1.5,1.7-2.5S189.7,96.5,189.7,95.4z"/>
</g>
<g>
	<path class="st2" d="M132,146.2c0.3,0,0.5,0.2,0.6,0.5c0,0.1-0.1,0.4-0.4,0.7c-0.3,0.3-0.8,0.8-1.4,1.4c-1.8,1.7-3,2.7-3.7,2.9
		c-0.4,0.2-0.8,0.3-1.3,0.3s-0.9-0.2-1.2-0.6c-0.3-0.7-0.4-1.3-0.2-2.1l0.1-1.2l-0.9,1.1c-1.7,2.1-3,2.8-3.8,2.1
		c-0.7-0.9-0.2-2.2,1.4-4c1.2-1.2,2.2-1.7,3-1.7c0.4,0,0.8-0.4,1-1.1c0.4-0.9,0.9-2.2,1.6-4.1c0.4-1.1,0.7-2.1,1.1-3
		c0.3-0.9,0.6-1.6,0.9-2.2c0.2-0.6,0.4-0.9,0.5-1c0.3-0.2,0.6-0.2,0.9,0.1c0.2,0.2,0,0.9-0.4,2.2c-0.4,1.3-1.1,3.2-2.2,5.8
		c-0.4,0.9-0.7,1.9-1,2.8c-0.3,1-0.5,1.9-0.7,2.9c-0.2,0.7-0.3,1.4-0.3,2.1c0.1,0.4,0.2,0.6,0.6,0.6c0.3,0,0.6-0.1,0.9-0.3
		c1.4-1.1,2.8-2.2,4-3.5c0.1-0.1,0.3-0.3,0.5-0.5C131.7,146.3,131.9,146.2,132,146.2z M121.5,149.9c1.1-1.2,1.9-2.2,2.4-3
		c-0.2-0.1-0.7,0.2-1.4,0.8c-0.7,0.6-1.2,1.1-1.5,1.6c-0.3,0.6-0.5,1-0.4,1.1C120.7,150.6,121,150.4,121.5,149.9z"/>
	<path class="st2" d="M130.6,149c0.1-0.8,0.2-1.6,0.6-2.3c0.3-0.8,0.7-1.1,1.1-0.8c0.2,0.1,0.2,0.3,0,0.7c-0.4,1.2-0.6,2.1-0.7,3
		c0,0.6,0.3,0.9,0.7,1c0.4,0,0.9-0.1,1.3-0.3c0.8-0.4,2-1.3,3.7-2.8c0.5-0.5,1-0.9,1.6-1.2c0.2-0.1,0.4,0,0.5,0.2
		c0,0.2,0,0.5-0.1,0.7c-0.4,0.4-0.8,0.8-1.2,1.2c-1,1-2.1,1.8-3.3,2.6c-0.9,0.6-1.9,0.8-2.9,0.7c-0.2-0.1-0.5-0.2-0.6-0.4
		C130.6,150.6,130.4,149.9,130.6,149z M133.2,142c0.2-0.3,0.4-0.3,0.6-0.2c0.4,0.2,0.4,0.7,0,1.4c-0.5,0.8-0.8,0.9-1.1,0.5
		C132.5,143.2,132.7,142.6,133.2,142z"/>
	<path class="st2" d="M137.5,151.9l0.7-0.5v-2.1c-0.2-1,0-1.9,0.4-2.8c0.2-0.3,0.5-0.6,0.9-0.8c0.4-0.3,0.8-0.3,1.1,0
		c0.2,0.2,0.2,0.4,0,0.6s-0.4,0.3-0.6,0.4c-0.5,0.4-0.7,0.9-0.8,1.6c0,0.7,0,1.3,0.1,1.8l0.1,0.7l0.6-0.4c2-1.2,4.2-2.3,6.6-3.4
		c0.8-0.4,1.4-0.6,1.7-0.7c0.3-0.1,0.6,0,0.6,0.2c0.3,0.4,0,0.7-1,1.1c-4.1,1.9-7.3,3.6-9.6,5.3c-0.6,0.7-1.2,0.8-1.7,0.6
		C136.3,153.1,136.5,152.5,137.5,151.9z"/>
	<path class="st2" d="M146,149.7c0.1-1.6,0.8-2.8,2.1-3.6c0.3-0.2,0.8-0.3,1.2-0.4c0.5,0,0.8,0.1,1.1,0.5c0.1,0.2,0.1,0.5-0.1,0.7
		s-0.5,0.2-0.7,0l-0.1-0.1c-0.1,0-0.1,0-0.2,0c-0.4,0-0.8,0.2-1.1,0.4c-0.7,0.6-1.1,1.3-1.2,2.2c0,0.6,0.3,0.9,0.9,1s1.1,0,1.5-0.1
		c1.7-0.7,3.3-1.6,4.8-2.7c0.6-0.4,1.1-0.7,1.7-1.1c0.2-0.2,0.4-0.3,0.7-0.4c0.4,0.1,0.5,0.3,0.4,0.7c-0.1,0.2-0.2,0.3-0.4,0.4
		c-0.5,0.4-1,0.8-1.5,1.1c-1.1,0.8-2.3,1.6-3.6,2.3c-0.7,0.4-1.5,0.7-2.5,1c-0.9,0.3-1.8,0.2-2.5-0.3
		C146.3,150.8,146,150.3,146,149.7z"/>
	<path class="st2" d="M165.3,146.2c0.9-0.3,1.3-0.2,1.2,0.4c0,0.2-0.1,0.3-0.3,0.4s-0.6,0.3-1.2,0.5c-1.9,0.6-3.5,0.8-5,0.7
		c-0.6-0.2-0.9-0.1-0.9,0.3c-0.4,1.5-1.1,2.6-1.9,3.3c-0.8,0.4-1.4,0.3-1.9-0.4c-0.2-0.6-0.2-1.2-0.1-1.8c0.1-0.8,0.4-1.6,0.8-2.2
		c0.2-0.5,0.5-1,0.9-1.4c0.6-0.2,1.2,0,1.9,0.5c0.2,0.4,0.8,0.6,1.8,0.6C162,147.1,163.5,146.8,165.3,146.2z M158.2,148.1
		c0-0.2-0.2-0.4-0.5-0.5c-0.3-0.2-0.5-0.2-0.5-0.2c-0.2,0.4-0.4,0.8-0.5,1.1c-0.5,1.2-0.6,2-0.4,2.4c0.2,0.1,0.5-0.1,0.9-0.6
		C157.8,149.4,158.1,148.7,158.2,148.1z"/>
	<path class="st2" d="M164.8,150.7c0-0.5,0-1,0-1.5s0.1-1.1,0.2-1.6c0-0.4,0.1-0.8,0.3-1.1v-0.1c0.3-0.3,0.6-0.3,0.8-0.1
		c0.1,0.2,0,0.7-0.1,1.6c-0.2,0.9-0.2,1.7-0.2,2.2v0.7l1-1c0.6-0.7,1.3-1.5,2-2.3c0.5-0.7,0.9-1.2,1.2-1.3c0.3-0.1,0.7,0,1.2,0.3
		c0.6,0.2,1.2,0.4,1.9,0.3c0.7,0,1.4,0,2.1-0.1c0.4-0.1,0.7-0.2,1.1-0.3c1-0.5,1.5-0.4,1.6,0.2c0.1,0.3-0.4,0.7-1.5,1.1
		c-1.7,0.6-3.5,0.5-5.6-0.1c-0.1,0-0.3,0-0.4,0.2c-0.2,0.1-0.4,0.4-0.7,0.9c-1.3,1.6-2.4,2.7-3.2,3.2c-0.3,0.2-0.6,0.2-0.9,0.1
		C165,151.6,164.8,151.2,164.8,150.7z"/>
	<path class="st2" d="M185.5,147.3c0.8-0.6,1.4-0.9,1.7-1.1c0.4-0.1,0.5,0,0.5,0.3c0,0.2-0.4,0.7-1.3,1.4c-0.8,0.7-1.8,1.3-2.9,2
		s-2,1.1-2.9,1.4c-1.7,0.6-2.9,0.6-3.6,0c-1.1-1.2-0.9-2.7,0.6-4.5c0.3-0.4,0.9-0.8,1.6-1.1c0.7-0.3,1.2-0.1,1.5,0.7
		c0.1,0.6-0.1,1.1-0.6,1.6c-0.5,0.6-1.1,0.9-1.9,1.1c-0.5,0-0.8,0.2-0.7,0.5c0,0.6,0.3,1,0.9,1.1C180,150.6,182.4,149.5,185.5,147.3
		z M179.4,146.8c-0.3,0-0.7,0.4-1.2,1.1c0,0.1,0.1,0.2,0.4,0.1s0.5-0.2,0.7-0.4c0.2-0.2,0.4-0.4,0.4-0.6
		C179.6,146.8,179.5,146.8,179.4,146.8z"/>
	<path class="st2" d="M185.3,150c0.3-1.1,0.6-2.2,1-3.3c0.1-0.2,0.1-0.4,0.2-0.6s0.2-0.3,0.5-0.3c0.5,0,0.5,0.7,0,2.1
		c-0.1,0.2,0.2,0,0.8-0.6c0.5-0.6,1.1-1,1.9-1.3c0.4-0.1,0.9-0.1,1.3,0c0.7,0.3,1.4,0.7,2.1,0.9c0.6,0.1,1,0,1.5-0.4
		c0.6-0.3,1-0.4,1.2-0.2c0.2,0.2,0.1,0.5-0.3,1c-1.2,1-2.5,1.1-3.8,0.4c-0.9-0.7-1.7-0.7-2.5,0c-1,0.9-1.9,2-2.7,3.3
		c-0.2,0.4-0.4,0.7-0.7,1c-0.3,0.2-0.5,0.2-0.6-0.1C185,151.3,185,150.6,185.3,150z"/>
</g>
<g>
	<path class="st1" d="M219.2,135.6h5.4v0.9h-6.5v-10.2h6.3v0.9h-5.3v3.5h4.9v0.9h-4.9v4H219.2z"/>
</g>
<g>
	<path class="st1" d="M228.5,135.6h4.7v0.9h-5.8v-10.2h1L228.5,135.6L228.5,135.6z"/>
</g>
<g>
	<path class="st1" d="M244.6,128.1c-0.4-0.7-1.1-1-2-1c-0.3,0-0.5,0-0.8,0.1s-0.5,0.2-0.7,0.3c-0.2,0.1-0.4,0.3-0.5,0.6
		c-0.1,0.3-0.2,0.5-0.2,0.8c0,0.5,0.1,0.8,0.4,1.1c0.3,0.3,0.6,0.5,1,0.6c0.4,0.2,0.8,0.3,1.3,0.4s0.9,0.3,1.3,0.5s0.7,0.5,1,0.9
		s0.4,0.8,0.4,1.4c0,0.5-0.1,0.9-0.3,1.2c-0.2,0.4-0.5,0.7-0.8,0.9c-0.3,0.2-0.7,0.4-1.1,0.6s-0.8,0.2-1.2,0.2
		c-0.6,0-1.2-0.1-1.8-0.4c-0.6-0.2-1-0.6-1.4-1.2l0.9-0.7c0.2,0.4,0.5,0.7,0.9,0.9c0.4,0.2,0.9,0.3,1.4,0.3c0.3,0,0.5,0,0.8-0.1
		s0.5-0.2,0.7-0.4c0.2-0.2,0.4-0.4,0.5-0.6s0.2-0.5,0.2-0.8c0-0.4-0.1-0.6-0.2-0.9c-0.1-0.2-0.3-0.4-0.6-0.6
		c-0.2-0.2-0.5-0.3-0.8-0.4s-0.6-0.2-1-0.3c-0.3-0.1-0.7-0.2-1-0.4c-0.3-0.1-0.6-0.3-0.8-0.5c-0.2-0.2-0.4-0.5-0.6-0.8
		s-0.2-0.7-0.2-1.2s0.1-0.9,0.3-1.3s0.4-0.7,0.7-0.9c0.3-0.2,0.7-0.4,1.1-0.5s0.8-0.2,1.2-0.2c0.6,0,1.1,0.1,1.6,0.3
		c0.5,0.2,0.9,0.5,1.3,1L244.6,128.1z"/>
</g>
<g>
	<path class="st1" d="M248.2,136.5H247l4.4-10.2h1l4.4,10.2h-1.2l-1.1-2.7h-5.2L248.2,136.5z M249.7,132.9h4.4l-2.2-5.3L249.7,132.9
		z"/>
</g>
<g>
	<path class="st1" d="M260.1,135.6h4.7v0.9H259v-10.2h1v9.3H260.1z"/>
</g>
<g>
	<path class="st1" d="M268.8,135L268.8,135l3.4-8.6h1.1l-4,10.2h-1l-3.9-10.2h1.1L268.8,135z"/>
</g>
<g>
	<path class="st1" d="M274.7,136.5h-1.2l4.4-10.2h1l4.4,10.2h-1.2l-1.1-2.7h-5.2L274.7,136.5z M276.2,132.9h4.4l-2.2-5.3
		L276.2,132.9z"/>
	<path class="st1" d="M285.3,126.4h3.4c0.6,0,1.3,0.1,1.9,0.3s1.2,0.5,1.7,1c0.5,0.4,0.9,1,1.2,1.6c0.3,0.6,0.5,1.4,0.5,2.2
		c0,0.9-0.2,1.6-0.5,2.2s-0.7,1.2-1.2,1.6s-1.1,0.7-1.7,1s-1.3,0.3-1.9,0.3h-3.4V126.4z M286.4,135.6h2c0.8,0,1.4-0.1,2-0.4
		c0.6-0.2,1-0.5,1.4-0.9s0.7-0.8,0.8-1.3c0.2-0.5,0.3-1,0.3-1.5s-0.1-1-0.3-1.5c-0.2-0.5-0.5-0.9-0.8-1.3c-0.4-0.4-0.9-0.7-1.4-0.9
		c-0.6-0.2-1.2-0.4-2-0.4h-2V135.6z"/>
</g>
<g>
	<path class="st1" d="M306.8,131.5c0,0.8-0.1,1.5-0.4,2.1c-0.3,0.7-0.6,1.2-1.1,1.7s-1,0.8-1.7,1.1s-1.3,0.4-2.1,0.4
		c-0.8,0-1.5-0.1-2.1-0.4s-1.2-0.6-1.7-1.1s-0.8-1-1.1-1.7c-0.3-0.6-0.4-1.4-0.4-2.1s0.1-1.5,0.4-2.1s0.6-1.2,1.1-1.7
		c0.5-0.5,1-0.8,1.7-1.1c0.6-0.3,1.3-0.4,2.1-0.4c0.8,0,1.5,0.1,2.1,0.4s1.2,0.6,1.7,1.1c0.5,0.5,0.8,1,1.1,1.7
		C306.7,130,306.8,130.7,306.8,131.5z M305.7,131.5c0-0.6-0.1-1.1-0.3-1.7c-0.2-0.5-0.5-1-0.8-1.4c-0.3-0.4-0.8-0.7-1.3-1
		c-0.5-0.2-1.1-0.4-1.7-0.4c-0.7,0-1.2,0.1-1.8,0.4c-0.5,0.2-1,0.6-1.3,1c-0.4,0.4-0.6,0.9-0.8,1.4c-0.2,0.5-0.3,1.1-0.3,1.7
		s0.1,1.1,0.3,1.7c0.2,0.5,0.5,1,0.8,1.4c0.4,0.4,0.8,0.7,1.3,1c0.5,0.2,1.1,0.4,1.8,0.4c0.6,0,1.2-0.1,1.7-0.4c0.5-0.2,1-0.6,1.3-1
		s0.6-0.9,0.8-1.4C305.6,132.6,305.7,132,305.7,131.5z"/>
</g>
<g>
	<path class="st1" d="M310.7,136.5h-1v-10.2h3.1c1,0,1.8,0.2,2.4,0.7s0.9,1.1,0.9,2c0,0.7-0.2,1.3-0.7,1.8c-0.4,0.5-1.1,0.8-1.9,0.8
		l2.9,4.8h-1.3l-2.8-4.7h-1.7v4.8H310.7z M310.7,130.9h1.8c0.5,0,0.8,0,1.2-0.1c0.3-0.1,0.6-0.2,0.8-0.4c0.2-0.2,0.3-0.3,0.4-0.6
		c0.1-0.2,0.1-0.4,0.1-0.7c0-0.2,0-0.5-0.1-0.7s-0.2-0.4-0.4-0.6c-0.2-0.2-0.4-0.3-0.8-0.4c-0.3-0.1-0.7-0.1-1.2-0.1h-1.8V130.9z"/>
</g>
<g>
	<path class="st1" d="M329.5,136.5H323v-1.2l4-4.1c0.2-0.2,0.3-0.3,0.5-0.5s0.3-0.4,0.4-0.5s0.2-0.4,0.3-0.6
		c0.1-0.2,0.1-0.4,0.1-0.7c0-0.3-0.1-0.5-0.2-0.7c-0.1-0.2-0.2-0.4-0.4-0.6c-0.2-0.2-0.4-0.3-0.6-0.4s-0.5-0.1-0.8-0.1
		c-0.5,0-1,0.1-1.3,0.4c-0.4,0.3-0.6,0.7-0.7,1.2l-1.1-0.1c0.1-0.8,0.5-1.3,1-1.8c0.5-0.4,1.2-0.6,2-0.6c0.4,0,0.8,0.1,1.2,0.2
		c0.4,0.1,0.7,0.3,1,0.5s0.5,0.5,0.7,0.8s0.3,0.7,0.3,1.2c0,0.4-0.1,0.8-0.2,1.1c-0.1,0.3-0.3,0.6-0.5,0.9s-0.4,0.6-0.7,0.8
		c-0.2,0.3-0.5,0.5-0.8,0.8l-3.2,3.2h5.3v0.8H329.5z"/>
</g>
<g>
	<path class="st1" d="M335.1,126.2c0.7,0,1.3,0.2,1.8,0.5c0.4,0.3,0.8,0.8,1,1.3c0.2,0.5,0.4,1.1,0.5,1.7s0.1,1.2,0.1,1.8
		c0,0.6,0,1.2-0.1,1.8s-0.3,1.2-0.5,1.7s-0.6,0.9-1,1.3c-0.4,0.3-1,0.5-1.8,0.5c-0.7,0-1.3-0.2-1.8-0.5c-0.4-0.3-0.8-0.8-1-1.3
		s-0.4-1.1-0.5-1.7s-0.1-1.2-0.1-1.8c0-0.6,0-1.2,0.1-1.8c0.1-0.6,0.3-1.2,0.5-1.7c0.2-0.5,0.6-0.9,1-1.3
		C333.8,126.4,334.4,126.2,335.1,126.2z M335.1,127.2c-0.6,0-1,0.1-1.3,0.4s-0.6,0.7-0.7,1.1c-0.2,0.4-0.3,0.9-0.3,1.4
		s-0.1,0.9-0.1,1.3s0,0.9,0.1,1.3c0,0.5,0.1,1,0.3,1.4c0.2,0.4,0.4,0.8,0.7,1.1c0.3,0.3,0.8,0.4,1.3,0.4c0.6,0,1-0.1,1.3-0.4
		s0.6-0.7,0.7-1.1c0.2-0.4,0.3-0.9,0.3-1.4s0.1-0.9,0.1-1.3s0-0.9-0.1-1.3s-0.1-1-0.3-1.4c-0.2-0.4-0.4-0.8-0.7-1.1
		C336.1,127.3,335.7,127.2,335.1,127.2z"/>
</g>
<g>
	<path class="st1" d="M347,136.5h-6.5v-1.2l4-4.1c0.2-0.2,0.3-0.3,0.5-0.5s0.3-0.4,0.4-0.5s0.2-0.4,0.3-0.6c0.1-0.2,0.1-0.4,0.1-0.7
		c0-0.3-0.1-0.5-0.2-0.7c-0.1-0.2-0.2-0.4-0.4-0.6c-0.2-0.2-0.4-0.3-0.6-0.4s-0.5-0.1-0.8-0.1c-0.5,0-1,0.1-1.3,0.4
		c-0.4,0.3-0.6,0.7-0.7,1.2l-1.1-0.1c0.1-0.8,0.5-1.3,1-1.8c0.5-0.4,1.2-0.6,2-0.6c0.4,0,0.8,0.1,1.2,0.2c0.4,0.1,0.7,0.3,1,0.5
		s0.5,0.5,0.7,0.8s0.3,0.7,0.3,1.2c0,0.4-0.1,0.8-0.2,1.1c-0.1,0.3-0.3,0.6-0.5,0.9s-0.4,0.6-0.7,0.8c-0.2,0.3-0.5,0.5-0.8,0.8
		l-3.2,3.2h5.3v0.8H347z"/>
</g>
<g>
	<path class="st1" d="M354.5,133.2h1.5v0.9h-1.5v2.4h-1v-2.4H349v-1.2l4.1-6.6h1.3v6.9H354.5z M353.4,127.4L353.4,127.4l-3.5,5.8
		h3.5V127.4z"/>
</g>
<g>
	<path class="st1" d="M218.1,143.6h3.4c0.6,0,1.3,0.1,1.9,0.3s1.2,0.5,1.7,1c0.5,0.4,0.9,1,1.2,1.6c0.3,0.6,0.5,1.4,0.5,2.2
		c0,0.9-0.2,1.6-0.5,2.2s-0.7,1.2-1.2,1.6s-1.1,0.7-1.7,1s-1.3,0.3-1.9,0.3h-3.4V143.6z M219.1,152.8h2c0.8,0,1.4-0.1,2-0.4
		c0.6-0.2,1-0.5,1.4-0.9s0.7-0.8,0.8-1.3c0.2-0.5,0.3-1,0.3-1.5s-0.1-1-0.3-1.5c-0.2-0.5-0.5-0.9-0.8-1.3c-0.4-0.4-0.9-0.7-1.4-0.9
		c-0.6-0.2-1.2-0.4-2-0.4h-2V152.8z"/>
</g>
<g>
	<path class="st1" d="M234,150.4h1.5v0.9H234v2.4h-1v-2.4h-4.4v-1.2l4.1-6.6h1.3V150.4z M233,144.6L233,144.6l-3.5,5.8h3.5V144.6z"
		/>
</g>
<g>
	<path class="st1" d="M243.8,153.7h-6.5v-1.2l4-4.1c0.2-0.2,0.3-0.3,0.5-0.5s0.3-0.4,0.4-0.5s0.2-0.4,0.3-0.6
		c0.1-0.2,0.1-0.4,0.1-0.7c0-0.3-0.1-0.5-0.2-0.7s-0.2-0.4-0.4-0.6c-0.2-0.2-0.4-0.3-0.6-0.4s-0.5-0.1-0.8-0.1c-0.5,0-1,0.1-1.3,0.4
		c-0.4,0.3-0.6,0.7-0.7,1.2l-1.1-0.1c0.1-0.8,0.5-1.3,1-1.8c0.5-0.4,1.2-0.6,2-0.6c0.4,0,0.8,0.1,1.2,0.2c0.4,0.1,0.7,0.3,1,0.5
		s0.5,0.5,0.7,0.8s0.3,0.7,0.3,1.2c0,0.4-0.1,0.8-0.2,1.1c-0.1,0.3-0.3,0.6-0.5,0.9s-0.4,0.6-0.7,0.8c-0.2,0.3-0.5,0.5-0.8,0.8
		l-3.2,3.2h5.3v0.8H243.8z"/>
</g>
<g>
	<path class="st1" d="M251.2,150.4h1.5v0.9h-1.5v2.4h-1v-2.4h-4.4v-1.2l4.1-6.6h1.3V150.4z M250.2,144.6L250.2,144.6l-3.5,5.8h3.5
		V144.6z"/>
	<path class="st1" d="M258,143.4c0.7,0,1.3,0.2,1.8,0.5c0.4,0.3,0.8,0.8,1,1.3s0.4,1.1,0.5,1.7s0.1,1.2,0.1,1.8c0,0.6,0,1.2-0.1,1.8
		s-0.3,1.2-0.5,1.7s-0.6,0.9-1,1.3c-0.4,0.3-1,0.5-1.8,0.5c-0.7,0-1.3-0.2-1.8-0.5c-0.4-0.3-0.8-0.8-1-1.3s-0.4-1.1-0.5-1.7
		s-0.1-1.2-0.1-1.8c0-0.6,0-1.2,0.1-1.8c0.1-0.6,0.3-1.2,0.5-1.7s0.6-0.9,1-1.3C256.7,143.6,257.3,143.4,258,143.4z M258,144.4
		c-0.6,0-1,0.1-1.3,0.4s-0.6,0.7-0.7,1.1c-0.2,0.4-0.3,0.9-0.3,1.4s-0.1,0.9-0.1,1.3s0,0.9,0.1,1.3c0,0.5,0.1,1,0.3,1.4
		c0.2,0.4,0.4,0.8,0.7,1.1c0.3,0.3,0.8,0.4,1.3,0.4c0.6,0,1-0.1,1.3-0.4s0.6-0.7,0.7-1.1c0.2-0.4,0.3-0.9,0.3-1.4s0.1-0.9,0.1-1.3
		s0-0.9-0.1-1.3s-0.1-1-0.3-1.4c-0.2-0.4-0.4-0.8-0.7-1.1C259,144.5,258.6,144.4,258,144.4z"/>
</g>
<g>
	<path class="st1" d="M275,143.6h3.4c0.6,0,1.3,0.1,1.9,0.3s1.2,0.5,1.7,1c0.5,0.4,0.9,1,1.2,1.6c0.3,0.6,0.5,1.4,0.5,2.2
		c0,0.9-0.2,1.6-0.5,2.2s-0.7,1.2-1.2,1.6s-1.1,0.7-1.7,1s-1.3,0.3-1.9,0.3H275V143.6z M276,152.8h2c0.8,0,1.4-0.1,2-0.4
		c0.6-0.2,1-0.5,1.4-0.9s0.7-0.8,0.8-1.3c0.2-0.5,0.3-1,0.3-1.5s-0.1-1-0.3-1.5c-0.2-0.5-0.5-0.9-0.8-1.3c-0.4-0.4-0.9-0.7-1.4-0.9
		c-0.6-0.2-1.2-0.4-2-0.4h-2V152.8z"/>
	<path class="st1" d="M290.9,150.4h1.5v0.9h-1.5v2.4h-1v-2.4h-4.4v-1.2l4.1-6.6h1.3V150.4z M289.9,144.6L289.9,144.6l-3.5,5.8h3.5
		V144.6z"/>
	<path class="st1" d="M300.6,153.7h-6.5v-1.2l4-4.1c0.2-0.2,0.3-0.3,0.5-0.5s0.3-0.4,0.4-0.5s0.2-0.4,0.3-0.6
		c0.1-0.2,0.1-0.4,0.1-0.7c0-0.3-0.1-0.5-0.2-0.7s-0.2-0.4-0.4-0.6c-0.2-0.2-0.4-0.3-0.6-0.4s-0.5-0.1-0.8-0.1c-0.5,0-1,0.1-1.3,0.4
		c-0.4,0.3-0.6,0.7-0.7,1.2l-1.1-0.1c0.1-0.8,0.5-1.3,1-1.8c0.5-0.4,1.2-0.6,2-0.6c0.4,0,0.8,0.1,1.2,0.2c0.4,0.1,0.7,0.3,1,0.5
		s0.5,0.5,0.7,0.8s0.3,0.7,0.3,1.2c0,0.4-0.1,0.8-0.2,1.1c-0.1,0.3-0.3,0.6-0.5,0.9s-0.4,0.6-0.7,0.8c-0.2,0.3-0.5,0.5-0.8,0.8
		l-3.2,3.2h5.3v0.8H300.6z"/>
	<path class="st1" d="M308.6,144.5h-4.1l-0.1,3.1c0.2-0.1,0.4-0.1,0.7-0.2s0.5-0.1,0.7-0.1c0.5,0,0.9,0.1,1.3,0.2
		c0.4,0.2,0.7,0.4,1,0.7c0.3,0.3,0.5,0.6,0.7,1s0.2,0.8,0.2,1.3s-0.1,0.9-0.3,1.3c-0.2,0.4-0.4,0.8-0.7,1s-0.7,0.5-1.1,0.7
		s-0.9,0.2-1.4,0.2c-0.6,0-1.2-0.2-1.7-0.5s-0.9-0.8-1.2-1.3l1-0.4c0.2,0.4,0.5,0.7,0.8,1s0.7,0.4,1.2,0.4c0.3,0,0.6-0.1,0.9-0.2
		s0.5-0.3,0.7-0.5s0.4-0.4,0.5-0.7s0.2-0.6,0.2-0.9c0-0.4-0.1-0.7-0.2-1s-0.3-0.6-0.5-0.8c-0.2-0.2-0.5-0.4-0.8-0.5s-0.6-0.2-1-0.2
		s-0.7,0-1.1,0.2c-0.4,0.1-0.7,0.2-1,0.4l0.1-5.3h5.2L308.6,144.5L308.6,144.5z"/>
	<path class="st1" d="M314.5,143.4c0.7,0,1.3,0.2,1.8,0.5c0.4,0.3,0.8,0.8,1,1.3s0.4,1.1,0.5,1.7s0.1,1.2,0.1,1.8
		c0,0.6,0,1.2-0.1,1.8s-0.3,1.2-0.5,1.7s-0.6,0.9-1,1.3c-0.4,0.3-1,0.5-1.8,0.5c-0.7,0-1.3-0.2-1.8-0.5c-0.4-0.3-0.8-0.8-1-1.3
		s-0.4-1.1-0.5-1.7s-0.1-1.2-0.1-1.8c0-0.6,0-1.2,0.1-1.8c0.1-0.6,0.3-1.2,0.5-1.7s0.6-0.9,1-1.3
		C313.2,143.6,313.7,143.4,314.5,143.4z M314.5,144.4c-0.6,0-1,0.1-1.3,0.4s-0.6,0.7-0.7,1.1c-0.2,0.4-0.3,0.9-0.3,1.4
		s-0.1,0.9-0.1,1.3s0,0.9,0.1,1.3c0,0.5,0.1,1,0.3,1.4c0.2,0.4,0.4,0.8,0.7,1.1c0.3,0.3,0.8,0.4,1.3,0.4c0.6,0,1-0.1,1.3-0.4
		s0.6-0.7,0.7-1.1c0.2-0.4,0.3-0.9,0.3-1.4s0.1-0.9,0.1-1.3s0-0.9-0.1-1.3s-0.1-1-0.3-1.4c-0.2-0.4-0.4-0.8-0.7-1.1
		C315.5,144.5,315,144.4,314.5,144.4z"/>
</g>
<line class="st3" x1="207.3" y1="87.8" x2="207.3" y2="156.5"/>
<g>
	<g>
		<path class="st1" d="M270,149.6h-3.7v-0.9h3.7V149.6z"/>
	</g>
</g>
</svg>
