<?xml version="1.0" encoding="UTF-8"?><svg xmlns="http://www.w3.org/2000/svg" viewBox="0 0 750 750"><defs><style>.cls-1{fill:#f8d440;}.cls-2{fill:#f9c438;}.cls-3{fill:#ebedec;}.cls-4{fill:#f0a530;}.cls-5{fill:#d63e6a;}.cls-6{fill:#4c9847;}.cls-7{opacity:.65;stroke:#86af35;stroke-width:5.48px;}.cls-7,.cls-8{fill:none;mix-blend-mode:screen;stroke-linecap:round;stroke-linejoin:round;}.cls-9{isolation:isolate;}.cls-8{opacity:.68;stroke:#f0a530;stroke-width:1.83px;}</style></defs><g class="cls-9"><g id="Layer_1"><rect class="cls-5" x="-5.46" width="760.91" height="760.91"/><g><path class="cls-1" d="M334.22,247.66c.19,.04-65.01-19.18-126.78-43.27-3.08-.84,10.63,80.11,46.37,136.56-.5,.03,83.71-80.4,80.41-93.29Z"/><g><g><path class="cls-4" d="M270.88,645.63s1.11,18,2.14,22.89c0,0,183.99-19.74,279.99-62.54l-5.6-18.51s-125.44,38.05-276.54,58.17Z"/><path class="cls-6" d="M547.41,587.46c-90.42,27.77-181.42,52.74-276.54,58.17-46.15-105.02-69.26-214.89-69.33-329.61,92.62-31.15,180.24-58.33,276.54-58.17,46.15,105.02,69.26,214.89,69.33,329.61Z"/><path class="cls-4" d="M201.55,316.02s160.69-54.22,276.54-58.17c0,0,2.5-15.84,1.03-22.82,0,0-195.23,14.81-282.12,59.34l4.55,21.65Z"/></g><path class="cls-3" d="M209.54,430.88s151.04-11.65,307.49-64.68c0,0,19.33,69.43,23.98,118.49,0,0-154.68,57.47-305.7,64.3,0,0-20.06-64.67-25.78-118.11Z"/><g><path class="cls-4" d="M460.95,504.2c.18,.03-63.93-15.42-124.97-35.75-3.03-.67,14.21,77.12,51.6,130.07-.48,.06,77.2-81.99,73.37-94.32Z"/><path class="cls-2" d="M376.86,379.83c0-.19-3.17,65.69-11.72,129.45-.09,3.1,73.09-28.4,118.11-75.04,.14,.46-95-60.49-106.39-54.41Z"/><path class="cls-1" d="M396.64,435.63c.13,.13-44.64-48.29-84.14-99.07-2.15-2.24-30.96,72.04-29.23,136.85-.43-.22,109.72-25.39,113.37-37.77Z"/></g><g><g><path class="cls-7" d="M251.76,323.62s22.24-10.79,72.36-18.66"/><path class="cls-7" d="M249.31,513.08c-17.07-64.95-23.59-134.83-25.69-163.72"/><path class="cls-7" d="M265.01,562.27c-2.9-7.45-5.6-15.16-8.12-23.05"/></g><g><path class="cls-8" d="M213.92,296.28s53.93-25.56,160.85-40.76"/><path class="cls-8" d="M385.44,254.25s15.51-2.55,20.31-2.82"/></g></g></g></g><path class="cls-2" d="M342.63,80.47c.05-.19-20.74,64.53-46.31,125.7-.92,3.06,80.34-8.7,137.63-43.08,.02,.5-78.36-85.62-91.33-82.62Z"/></g></g></svg>